<svg width="61" height="52" viewBox="0 0 61 52" fill="none" xmlns="http://www.w3.org/2000/svg">
<path d="M20.3294 11.059C20.3294 12.1884 19.3882 13.1296 18.2588 13.1296H9.12943C8.00001 13.1296 7.05884 12.1884 7.05884 11.059V8.51785C7.05884 7.38844 8.00001 6.44727 9.12943 6.44727H18.2588C19.3882 6.44727 20.3294 7.38844 20.3294 8.51785V11.059Z" fill="#212528"/>
<path d="M57.1295 10.8709C57.1295 11.4356 56.6589 12.0003 56.0001 12.0003H51.106C50.5413 12.0003 49.9766 11.5297 49.9766 10.8709V9.55324C49.9766 8.98853 50.4472 8.42383 51.106 8.42383H56.0001C56.5648 8.42383 57.1295 8.89442 57.1295 9.55324V10.8709Z" fill="#212528"/>
<path d="M60.2353 43.2471C60.2353 46.0706 57.9765 48.3294 55.1529 48.3294H5.08235C2.25882 48.3294 0 46.0706 0 43.2471V41.7412H60.2353V43.2471Z" fill="#212528"/>
<path d="M0 14.8236C0 12 2.25882 9.74121 5.08235 9.74121H55.0588C57.8824 9.74121 60.1412 12 60.1412 14.8236V16.3294H0V14.8236Z" fill="#51575B"/>
<path d="M0 16.1411H60.2353V42.7764H0V16.1411Z" fill="#3E4347"/>
<path d="M51.4823 12.8471H21.2705L24.2823 2.68235C24.5646 2.11765 25.7882 1.17647 26.5411 0.988235C31.1529 -0.329412 41.5058 -0.329412 46.1176 0.988235C46.8705 1.17647 48.094 2.11765 48.3764 2.68235L51.4823 12.8471Z" fill="#51575B"/>
<path d="M49.9765 23.7647H22.6824L25.4118 10.0236C25.6 9.27061 26.8236 8.04708 27.4824 7.76473C31.6236 6.07061 41.0353 6.07061 45.1765 7.76473C45.8353 8.04708 46.9647 9.27061 47.2471 10.0236L49.9765 23.7647Z" fill="#3E4347"/>
<path d="M57.0353 31.2943C57.0353 42.7766 47.7177 52.0001 36.3294 52.0001C24.9412 52.0001 15.6235 42.7766 15.6235 31.2943C15.6235 19.906 24.9412 10.5884 36.3294 10.5884C47.8118 10.5884 57.0353 19.906 57.0353 31.2943Z" fill="#788287"/>
<path d="M54.7764 31.2942C54.7764 41.4589 46.4941 49.7413 36.3294 49.7413C26.1647 49.7413 17.8823 41.4589 17.8823 31.2942C17.8823 21.1295 26.1647 12.8472 36.3294 12.8472C46.4941 12.9413 54.7764 21.1295 54.7764 31.2942Z" fill="#212528"/>
<path d="M36.3294 46.2585C44.5942 46.2585 51.2942 39.5586 51.2942 31.2938C51.2942 23.029 44.5942 16.3291 36.3294 16.3291C28.0647 16.3291 21.3647 23.029 21.3647 31.2938C21.3647 39.5586 28.0647 46.2585 36.3294 46.2585Z" fill="#3E4347"/>
<path d="M36.3295 39.3884C40.7997 39.3884 44.4236 35.7646 44.4236 31.2943C44.4236 26.8241 40.7997 23.2002 36.3295 23.2002C31.8592 23.2002 28.2354 26.8241 28.2354 31.2943C28.2354 35.7646 31.8592 39.3884 36.3295 39.3884Z" fill="#212528"/>
<path opacity="0.5" d="M47.3417 24.9883C47.3417 27.5294 45.2711 29.6 42.7299 29.6C40.1888 29.6 38.1182 27.5294 38.1182 24.9883C38.1182 22.4471 40.1888 20.3765 42.7299 20.3765C45.2711 20.2824 47.3417 22.4471 47.3417 24.9883Z" fill="#E61D7D"/>
<path opacity="0.5" d="M33.5063 37.1292C35.1176 37.1292 36.4239 35.823 36.4239 34.2116C36.4239 32.6002 35.1176 31.2939 33.5063 31.2939C31.8949 31.2939 30.5886 32.6002 30.5886 34.2116C30.5886 35.823 31.8949 37.1292 33.5063 37.1292Z" fill="#E61D7D"/>
<path opacity="0.5" d="M28.33 41.1766C29.3176 41.1766 30.1182 40.3759 30.1182 39.3883C30.1182 38.4007 29.3176 37.6001 28.33 37.6001C27.3424 37.6001 26.5417 38.4007 26.5417 39.3883C26.5417 40.3759 27.3424 41.1766 28.33 41.1766Z" fill="#E61D7D"/>
<path d="M14.1176 38.5413C14.1176 39.6707 13.1765 40.6119 12.047 40.6119H3.38822C2.2588 40.6119 1.31763 39.6707 1.31763 38.5413V20.2825C1.31763 19.1531 2.2588 18.2119 3.38822 18.2119H12.047C13.1765 18.2119 14.1176 19.1531 14.1176 20.2825V38.5413Z" fill="#636C72"/>
<path d="M9.50566 16.4234C11.169 16.4234 12.5174 15.075 12.5174 13.4117C12.5174 11.7483 11.169 10.3999 9.50566 10.3999C7.84231 10.3999 6.4939 11.7483 6.4939 13.4117C6.4939 15.075 7.84231 16.4234 9.50566 16.4234Z" fill="#212528"/>
</svg>
