<svg width="338" height="426" viewBox="0 0 338 426" fill="none" xmlns="http://www.w3.org/2000/svg">
<path d="M174.898 352.69L177.91 351.274L196.334 390.312C197.229 392.21 199.047 393.498 201.149 393.696L201.362 394.008L196.533 396.273C196.348 396.358 196.149 396.372 195.964 396.316L195.794 396.259C194.587 395.863 193.592 394.999 193.052 393.852L174.359 354.248C174.06 353.653 174.316 352.959 174.898 352.69Z" fill="#00276F"/>
<path d="M226.846 305.142L192.711 346.064L180.225 353.483L197.953 391.034C198.536 392.28 200.041 392.818 201.291 392.238C202.229 391.799 202.797 390.822 202.726 389.802L200.908 364.882L238.296 334.24" fill="#F8BD86"/>
<path d="M202.627 362.97L203.408 391.091C203.436 392.252 202.683 393.385 201.504 393.937C199.928 394.673 197.896 393.654 197.243 392.28L177.881 351.274L193.166 345.78C193.194 345.78 191.717 355.239 202.627 362.97Z" fill="#E7E7E7"/>
<path d="M203.934 368.436C201.604 367.912 199.217 367.671 196.831 367.714" stroke="#00276F" stroke-miterlimit="10" stroke-linecap="round"/>
<path d="M203.536 372.202C201.007 371.721 199.672 371.678 197.541 371.678" stroke="#00276F" stroke-miterlimit="10" stroke-linecap="round"/>
<path d="M203.408 375.289C201.732 374.935 199.629 374.921 197.925 374.836" stroke="#00276F" stroke-miterlimit="10" stroke-linecap="round"/>
<path d="M244.83 161.72L249.731 173.006C251.322 176.673 253.694 179.958 256.677 182.634C270.101 194.641 304.037 241.906 304.406 261.828C304.861 285.9 230.696 363.466 230.696 363.466L201.746 331.083L260.044 261.744L209.417 213.544C209.417 213.544 186.305 205.417 195.609 164.184" fill="#00224C"/>
<path d="M210.255 330.927L264.831 263.301C266.834 261.106 266.564 257.708 264.248 255.839L217.855 209.41C217.855 209.41 194.729 200.957 204.019 158.152" stroke="#15489B" stroke-width="0.75" stroke-miterlimit="10" stroke-dasharray="2 2"/>
<path d="M210.084 335.911L267.999 264.929C270.84 261.814 270.47 256.958 267.175 254.31C267.175 254.31 217.684 205.912 217.499 205.842C215.042 204.78 199.985 196.199 208.706 156" stroke="#15489B" stroke-width="0.75" stroke-miterlimit="10"/>
<path d="M206.902 325.164L197.342 334L228.636 366.255L237.429 356.981L206.902 325.164Z" fill="#15489B"/>
<path d="M267.061 407.825V404.511H310.344C312.446 404.511 314.393 403.407 315.472 401.609L315.841 401.538V406.862C315.841 407.06 315.77 407.244 315.628 407.4L315.501 407.541C314.634 408.462 313.427 408.986 312.148 408.986H268.226C267.587 409 267.061 408.476 267.061 407.825Z" fill="#00276F"/>
<path d="M250.768 347.236L268.638 388.95L270.058 403.364H311.694C313.072 403.364 314.194 402.246 314.194 400.872C314.194 399.839 313.555 398.918 312.589 398.536L289.193 389.559L277.303 342.79" fill="#F8BD86"/>
<path d="M288.213 387.194L314.066 398.451C315.131 398.918 315.842 400.079 315.842 401.368C315.842 403.095 314.052 404.497 312.532 404.497H267.075L268.595 388.37C268.581 388.384 276.536 393.736 288.213 387.194Z" fill="#E7E7E7"/>
<path d="M293.724 388.341C292.261 390.224 291.025 392.277 290.045 394.444" stroke="#00276F" stroke-miterlimit="10" stroke-linecap="round"/>
<path d="M296.977 390.309C295.457 392.377 294.861 393.566 293.951 395.492" stroke="#00276F" stroke-miterlimit="10" stroke-linecap="round"/>
<path d="M299.719 391.74C298.696 393.099 297.773 394.996 296.963 396.497" stroke="#00276F" stroke-miterlimit="10" stroke-linecap="round"/>
<path d="M178.918 170.327C178.918 170.327 177.1 195.814 188.351 219.885C199.615 243.956 245.157 383.753 245.157 383.753L285.556 366.436L236.549 200.062C236.549 200.062 234.929 179.304 226.506 151.962" fill="#00276F"/>
<path d="M256.478 378.911L200.467 219.658C200.467 219.658 189.075 199.835 189.075 184.727" stroke="#1B5ABF" stroke-width="0.75" stroke-miterlimit="10"/>
<path d="M253.325 380.256L195.95 219.644C195.95 219.644 184.558 199.821 184.558 184.713" stroke="#1B5ABF" stroke-width="0.75" stroke-miterlimit="10" stroke-dasharray="2 2"/>
<path d="M241.662 373.077L245.555 385.552L286.749 369.027L282.942 357.544L241.662 373.077Z" fill="#1B5ABF"/>
<path d="M192.328 202.44C192.328 202.44 203.777 196.734 206.746 183.75" stroke="#1B5ABF" stroke-width="0.75" stroke-miterlimit="10"/>
<path d="M236.662 204.465C236.662 204.465 241.222 199.255 240.781 194.993C239.574 183.254 236.662 168.387 236.662 168.387" stroke="#00276F" stroke-width="0.75" stroke-miterlimit="10"/>
<path d="M293.483 94.7571L283.368 84.5197C283.368 84.5197 292.829 60.8308 293.895 61.0574C296.068 61.5247 292.147 71.5921 292.147 71.5921C292.147 71.5921 297.702 60.8167 298.469 61.5247C299.861 62.799 295.869 73.8293 295.869 73.8293C295.869 73.8293 300.713 63.1672 301.651 64.2858C302.602 65.4185 298.185 81.971 298.185 81.971L293.483 94.7571Z" fill="#F8BD86"/>
<path d="M281.437 85.6241L283.326 81.971C283.326 81.971 283.923 75.7407 285.514 71.1955C287.119 66.6503 288.298 64.4697 289.136 64.4697C289.974 64.4697 289.136 71.5353 289.136 71.5353C289.136 71.5353 290.585 77.6098 288.483 81.5603" fill="#F8BD86"/>
<path d="M294.079 84.2365L287.034 77.6806C286.735 77.4116 286.622 76.9584 286.778 76.5761L294.775 55.6342C294.775 55.6342 295.145 55.7191 295.4 55.7899C295.542 55.8324 295.713 55.8607 295.855 55.974L303.568 62.6715C303.866 62.9405 303.98 63.3936 303.824 63.7759L295.826 83.9816C295.713 84.279 295.443 84.463 295.173 84.4772L294.079 84.2365Z" fill="#0A172B"/>
<path d="M293.852 84.1091L286.224 77.4824C285.926 77.2134 285.812 76.7603 285.968 76.378L294.008 56.0732C294.179 55.6343 294.69 55.4927 295.045 55.79L302.759 62.4875C303.057 62.7565 303.171 63.2096 303.014 63.5919L295.017 83.7976C294.818 84.279 294.25 84.4348 293.852 84.1091Z" fill="#00276F"/>
<path d="M286.551 74.9195L295.457 82.6648L302.46 64.9795L293.554 57.2484L286.551 74.9195Z" fill="#8DADE0"/>
<path d="M290.528 79.6488C290.457 79.932 290.23 80.0595 290.031 79.9462C289.818 79.8329 289.704 79.5072 289.775 79.224C289.846 78.9408 290.073 78.8134 290.272 78.9267C290.485 79.0399 290.599 79.3656 290.528 79.6488Z" fill="#8DADE0"/>
<path d="M297.517 59.2024L299.065 60.5759" stroke="#8DADE0" stroke-width="0.25" stroke-miterlimit="10" stroke-linecap="round"/>
<path opacity="0.55" d="M292.943 62.6575C292.872 62.9266 292.659 63.054 292.474 62.9407C292.275 62.8275 292.176 62.5301 292.232 62.2611C292.304 61.9921 292.517 61.8646 292.701 61.9779C292.914 62.0912 293.014 62.3885 292.943 62.6575Z" fill="#8DADE0"/>
<path opacity="0.51" d="M300.187 65.6026L295.5 61.5247C295.002 61.0858 294.25 61.2982 293.994 61.9353L293.411 63.4221L292.943 63.507L298.682 68.4629C299.179 68.9018 299.932 68.6894 300.187 68.0522L300.543 67.146C300.756 66.608 300.614 65.9708 300.187 65.6026Z" fill="white"/>
<path d="M294.889 62.5159L299.619 66.608" stroke="#8DADE0" stroke-width="0.25" stroke-miterlimit="10" stroke-linecap="round"/>
<path d="M294.463 63.6345L297.176 65.985" stroke="#8DADE0" stroke-width="0.25" stroke-miterlimit="10" stroke-linecap="round"/>
<path opacity="0.55" d="M288.383 73.5177C288.312 73.7867 288.099 73.9141 287.914 73.8008C287.715 73.6876 287.616 73.3902 287.673 73.1212C287.729 72.8522 287.957 72.7247 288.142 72.838C288.34 72.9371 288.44 73.2486 288.383 73.5177Z" fill="#8DADE0"/>
<path opacity="0.51" d="M295.613 76.463L290.926 72.385C290.428 71.946 289.676 72.1584 289.42 72.7956L288.837 74.2824L288.369 74.3673L294.108 79.3232C294.605 79.7621 295.358 79.5498 295.613 78.9126L295.969 78.0063C296.182 77.4541 296.04 76.8311 295.613 76.463Z" fill="white"/>
<path d="M290.329 73.3619L295.059 77.4682" stroke="#8DADE0" stroke-width="0.25" stroke-miterlimit="10" stroke-linecap="round"/>
<path d="M289.889 74.4948L292.602 76.8452" stroke="#8DADE0" stroke-width="0.25" stroke-miterlimit="10" stroke-linecap="round"/>
<path opacity="0.55" d="M298.327 74.2399C298.256 74.5089 298.042 74.6364 297.858 74.5231C297.659 74.4098 297.559 74.1125 297.616 73.8435C297.687 73.5744 297.9 73.447 298.085 73.5603C298.284 73.6736 298.383 73.9709 298.327 74.2399Z" fill="#8DADE0"/>
<path opacity="0.51" d="M297.46 70.5159L292.389 66.1123C291.963 65.7442 291.338 65.9283 291.124 66.4663L290.571 67.8681C290.414 68.2504 290.528 68.7035 290.826 68.9584L297.076 74.3532L296.92 73.6027L297.716 71.6204C297.858 71.2239 297.758 70.7708 297.46 70.5159Z" fill="white"/>
<path d="M291.948 67.2451L296.679 71.3372" stroke="#8DADE0" stroke-width="0.25" stroke-miterlimit="10" stroke-linecap="round"/>
<path d="M291.522 68.3636L294.235 70.7141" stroke="#8DADE0" stroke-width="0.25" stroke-miterlimit="10" stroke-linecap="round"/>
<path d="M294.633 71.0964L295.684 72.0027" stroke="#8DADE0" stroke-width="0.25" stroke-miterlimit="10" stroke-linecap="round"/>
<path d="M302.645 59.5281L304.406 61.2697L286.593 82.2825L284.846 80.5408L302.645 59.5281Z" fill="url(#paint0_linear)"/>
<path d="M302.503 57.5741L302.943 58.013L285.13 79.0259L284.69 78.5869L302.503 57.5741Z" fill="url(#paint1_linear)"/>
<path d="M251.791 99.5288L261.777 115.515L283.326 81.9709C283.326 81.9709 298.696 83.4011 296.934 90.9906C288.397 112.485 281.437 145.151 264.646 146.808C246.194 148.62 222.684 114.241 222.684 114.241" fill="#F8BD86"/>
<path d="M261.777 115.515C261.777 115.515 257.316 121.674 254.007 130.779" stroke="#D34F9B" stroke-width="0.75" stroke-miterlimit="10"/>
<path d="M295.187 95.2669C295.187 95.2669 301.381 80.2152 302.148 77.355C302.901 74.4948 304.889 66.6079 303.611 66.6079C302.347 66.6079 299.349 74.1691 299.023 75.4293C296.494 76.7745 292.9 79.2099 292.943 83.5852" fill="#F8BD86"/>
<path d="M213.11 57.2484C213.11 57.2484 234.19 59.2024 257.444 106.184C252.884 112.796 229.219 126.743 222.67 126.616C215.582 116.294 208.92 89.8578 208.92 89.8578" fill="white"/>
<path d="M233.906 98.481C227.358 72.6965 217.499 60.3069 217.499 60.3069L195.879 54.1191L178.379 75.7833C160.793 129.066 177.611 187.672 177.611 187.672C189.728 192.826 239.958 182.348 252.203 170.142C252.188 170.142 239.432 120.202 233.906 98.481Z" fill="white"/>
<path d="M239.276 119.819C239.276 119.819 230.099 79.2099 225.398 71.5496" stroke="#225BAF" stroke-width="0.75" stroke-miterlimit="10"/>
<path d="M157.256 94.7571C157.256 94.7571 146.673 123.133 149.471 139.784C153.761 165.371 195.126 189.81 195.126 189.81C195.126 189.81 193.72 196.692 196.646 199.962C203.919 194.553 206.263 187.969 206.263 187.969L202.797 182.235C202.797 182.235 180.126 146.666 180.793 134.956C181.262 126.673 194.146 85.525 194.146 85.525" fill="#F8BD86"/>
<path d="M195.879 54.1191C195.879 54.1191 172.909 60.5334 163.179 77.9072C151.388 98.9483 149.059 116.846 149.059 116.846C159.116 126.871 179.387 131.218 190.509 128.924L198.436 88.6543" fill="white"/>
<path d="M190.495 128.924L197.797 91.8259" stroke="#225BAF" stroke-width="0.75" stroke-miterlimit="10"/>
<path d="M219.687 42.4517L208.025 22.2885L198.877 38.3879L199.487 42.0835L195.879 54.1191C199.487 64.7813 214.403 65.9848 217.499 60.3069L219.687 42.4517Z" fill="#F8BD86"/>
<path d="M229.972 15.4069C231.875 22.5858 232.386 46.9402 226.605 49.5173C220.823 52.0802 209.161 49.6306 205.752 45.2836C202.797 41.503 199.999 21.2407 205.311 16.299C210.638 11.3431 227.301 5.35365 229.972 15.4069Z" fill="#F8BD86"/>
<path d="M212.329 20.1221C217.769 21.0566 222.5 19.5557 226.718 18.1823C230.937 16.8088 234.901 14.1468 236.946 10.2246C238.651 6.95375 238.764 2.33773 234.602 0.539469C233.608 0.114683 232.5 -0.0552249 231.42 0.0155728C227.954 0.256285 225.199 2.35189 222.571 4.39086C223.664 -1.03224 213.366 1.44569 211.221 3.3997C210.553 4.02272 210.099 4.80149 209.289 5.29707C206.846 6.75551 203.735 6.85462 201.135 7.97323C197.925 9.36086 195.382 12.2069 194.359 15.5486C193.507 18.338 192.47 22.9682 194.743 26.324C195.837 27.924 196.888 29.6798 197.2 31.5772L199.004 39.3224C199.004 39.3224 202.655 36.7171 203.053 36.4056C204.487 35.2728 205.027 33.8002 206.178 32.4126C209.133 28.8727 211.135 23.747 212.329 20.1221Z" fill="#292A2D"/>
<path d="M208.735 30.6143C208.039 29.34 207.115 27.8957 205.766 27.7824C205.07 27.7116 204.402 28.0514 203.905 28.5329C201.32 30.9825 201.121 35.7118 203.834 38.1897C204.97 39.2234 206.547 39.6906 207.598 38.2605L208.948 31.5205C209.047 31.2232 208.891 30.8975 208.735 30.6143Z" fill="#F8BD86"/>
<path d="M218.693 50.8907C218.693 50.8907 209.36 50.5509 205.439 44.788" stroke="#D34F9B" stroke-width="0.75" stroke-miterlimit="10"/>
<path d="M225.156 27.1311C225.156 27.1311 228.949 33.5737 227.77 35.3436C226.591 37.1136 223.48 36.0516 223.48 36.0516" stroke="#D34F9B" stroke-width="0.75" stroke-miterlimit="10"/>
<path d="M220.539 26.9044C220.696 27.3575 220.653 27.9805 220.681 28.3487C220.724 29.0142 220.014 29.3682 219.417 29.1699C218.295 28.8018 218.508 26.1681 219.886 26.3239C220.241 26.3664 220.426 26.6071 220.539 26.9044Z" fill="#00276F"/>
<path d="M229.844 26.9044C230 27.3575 229.957 27.9805 229.986 28.3487C230.028 29.0142 229.318 29.3682 228.721 29.1699C227.599 28.8018 227.812 26.1681 229.19 26.3239C229.545 26.3664 229.744 26.6071 229.844 26.9044Z" fill="#00276F"/>
<path d="M226.96 40.965L217.372 38.2322C217.372 38.2322 216.988 45.5243 222.798 46.6004C226.321 47.2659 226.96 40.965 226.96 40.965Z" fill="white"/>
<path d="M221.292 23.3787C219.446 23.3929 217.471 23.8177 215.852 24.5256C215.667 24.4265 215.184 23.5486 215.468 23.0389C215.681 22.6283 218.579 21.6371 221.179 21.6937C221.179 21.6937 221.647 23.1522 221.292 23.3787Z" fill="#00276F"/>
<path d="M226.435 23.2797C227.756 23.2939 229.105 23.6904 230.142 24.3559C230.298 24.2567 230.625 23.5346 230.526 23.0532C230.455 22.6709 228.551 21.7222 226.662 21.7788C226.662 21.7788 226.221 23.0532 226.435 23.2797Z" fill="#00276F"/>
<path d="M202.684 36.717C202.684 36.717 204.573 39.5348 207.115 38.7419" stroke="#D34F9B" stroke-width="0.75" stroke-miterlimit="10"/>
<path d="M94.4377 44.0275C93.3013 42.4133 91.9802 40.7283 90.0767 40.2044C89.5369 40.0487 88.9687 40.0062 88.4005 39.992C86.1419 39.9496 83.8833 40.5301 81.923 41.6345C81.369 41.9461 80.8292 42.3142 80.3888 42.7815C79.8632 43.3337 79.6644 43.7868 79.7212 44.5231C79.7638 45.0612 79.778 45.6134 79.7354 46.1514C79.6786 47.001 79.4939 47.8081 79.3092 48.6435C78.7978 50.8524 78.8831 52.948 79.3661 55.1711C79.5507 56.0065 79.5649 56.9127 79.2382 57.6915C78.9541 58.3853 78.4001 58.9092 77.9029 59.4331C76.8943 60.4951 75.971 61.6703 75.4454 63.0579C74.9056 64.4456 74.7778 66.0598 75.3318 67.4332C75.6159 68.1554 76.0705 68.7926 76.4256 69.4864C77.3063 71.2422 77.4484 73.3802 76.8233 75.2635C76.6813 75.6883 76.9796 76.1413 77.4199 76.2263C81.3263 76.9484 85.2896 77.3591 89.2244 76.9343C93.4717 76.467 97.6906 74.9944 101.015 72.1767" fill="#212429"/>
<path d="M81.6814 39.7088C80.0337 47.1426 81.2979 67.2208 86.8805 69.7129C92.4631 72.205 99.5088 66.6261 101.611 64.1199C104.68 60.4525 110.475 44.9195 105.276 39.9779C100.063 35.0362 83.9827 29.2874 81.6814 39.7088Z" fill="#F8BD86"/>
<path d="M94.3951 65.1959L98.4862 79.9502L96.8668 83.9432C96.8668 83.9432 95.7872 91.9009 97.1083 92.3115C102.407 93.9257 114.083 77.6847 114.083 77.6847L104.751 56.4453" fill="#F8BD86"/>
<path d="M109.168 40.9406C107.549 33.9033 98.685 29.4431 91.0569 30.6042C84.8066 28.8059 72.6612 35.3759 78.0876 48.2753C78.0876 48.2753 82.9173 43.8292 89.0965 37.9247C93.003 50.1302 107.847 56.3037 107.847 56.3037C107.847 56.3037 111.114 49.4363 109.168 40.9406Z" fill="#212429"/>
<path d="M89.267 30.9865C94.878 23.5103 108.43 28.3954 111.967 32.1476C115.973 36.4097 117.564 40.7 122.194 43.5319C124.339 44.8346 126.996 45.6842 128.189 47.893C129.823 50.9373 127.82 55.1994 129.965 57.9038C130.874 59.0366 135.221 62.534 135.221 68.1695C130.476 71.3979 126.626 70.3642 121.342 72.474C117.521 74.0174 112.251 76.5236 107.947 77.2458C107.435 77.3307 106.995 76.8918 107.052 76.3679C107.265 74.5413 107.606 72.2191 106.81 70.789C106.398 70.0386 105.717 69.4863 105.234 68.7784C104.04 67.0651 104.168 64.7995 104.509 62.7464C104.836 60.6933 105.319 58.5552 104.694 56.5728C104.111 54.7321 102.662 53.3161 101.142 52.1267" fill="#212429"/>
<path d="M103.671 29.9812C102.591 30.0945 101.824 28.9617 101.427 27.9564C100.901 26.6254 100.574 25.1245 101.029 23.7651C102.094 20.5792 106.342 20.381 108.785 21.981C110.887 23.3545 112.421 26.4555 110.717 28.721C109.524 30.3069 107.066 30.6608 105.248 31.0007" fill="#212429"/>
<path d="M101.171 54.5621C101.199 54.279 101.455 54.0807 101.696 53.9108C102.776 53.1745 104.111 52.4099 105.319 52.9196C105.944 53.1887 106.384 53.7692 106.64 54.3922C107.492 56.4879 107.236 59.2914 105.645 61.0189C104.211 62.5623 100.446 63.6101 99.8072 60.7641" fill="#F8BD86"/>
<path d="M87.0226 52.3533C87.0226 52.3533 83.3576 58.7109 84.5225 59.8578C85.6873 61.0047 88.0169 60.2968 88.0169 60.2968" stroke="#D34F9B" stroke-width="0.75" stroke-miterlimit="10"/>
<path d="M91.5398 52.1267C91.5114 52.6081 91.6961 53.1887 91.7671 53.5568C91.8808 54.2082 92.6336 54.3639 93.1308 54.0241C94.0683 53.3869 93.2302 50.8948 92.0086 51.4046C91.6819 51.532 91.5683 51.8152 91.5398 52.1267Z" fill="#212429"/>
<path d="M82.1077 52.1267C82.0792 52.6081 82.2639 53.1887 82.3349 53.5568C82.4486 54.2082 83.2014 54.3639 83.6986 54.0241C84.6361 53.3869 83.798 50.8948 82.5764 51.4046C82.2497 51.532 82.1361 51.8152 82.1077 52.1267Z" fill="#212429"/>
<path d="M89.0255 49.5355C89.0255 49.5355 91.3125 46.6895 95.2189 49.5355" stroke="#212429" stroke-width="0.75" stroke-miterlimit="10" stroke-linecap="round"/>
<path d="M81.7383 49.7337C82.5906 48.8842 84.0111 48.2186 85.5595 49.5497" stroke="#212429" stroke-width="0.75" stroke-miterlimit="10" stroke-linecap="round"/>
<path d="M86.1419 63.4544L93.2444 61.7411C93.2444 61.7411 91.9944 66.0173 88.4715 66.0173C86.7527 66.0173 86.1419 63.4544 86.1419 63.4544Z" fill="white"/>
<path d="M95.5741 69.4579C95.5741 69.4579 100.333 67.9145 102.222 63.879" stroke="#D34F9B" stroke-width="0.75" stroke-miterlimit="10"/>
<path d="M34.1085 113.735C34.1085 113.735 32.9721 116.822 34.9182 122.117C37.4325 128.942 64.479 171.109 81.653 172.681C98.827 174.253 116.1 122.924 116.1 107.122C116.1 91.3203 102.123 86.6051 93.1592 98.0036C84.1957 109.402 73.8686 149.006 73.8686 149.006L34.1085 113.735Z" fill="#DD3C91"/>
<path d="M51.8081 127.569C51.1547 125.218 48.5267 121.296 47.1346 119.399C46.3534 118.337 43.6544 114.584 42.1202 115.307C41.0548 115.802 42.177 118.62 42.6032 119.399C43.214 120.546 44.0521 121.508 44.8902 122.457" fill="#DD3C91"/>
<path d="M51.7087 372.954L44.9044 405.931C44.9044 405.931 17.7584 421.833 17.7584 422.172C17.7584 422.512 43.5975 423.433 43.5975 423.433L55.0326 417.854H66.1979C67.5047 417.854 68.4707 416.636 68.1866 415.376L65.8569 405.209L77.9597 370.49" fill="#F8BD86"/>
<path d="M19.6193 418.364C23.682 416.013 38.9525 408.48 38.9525 408.48L54.9332 417.854H68.7406V425.797H54.9332V419.808H53.1718C52.561 419.808 51.9502 420.006 51.4672 420.388L45.4442 425.033C44.7908 425.542 43.9811 425.811 43.1572 425.811C43.1572 425.811 21.3098 425.811 17.7443 425.811C14.1788 425.811 13.3975 421.974 19.6193 418.364Z" fill="#FBBDDB"/>
<path d="M60.7005 419.369L67.2633 410.547L66.4962 407.177L58.7118 417.896L60.7005 419.369Z" fill="#FBBDDB"/>
<path d="M145.207 152.688C145.207 152.688 166.046 185.495 142.849 218.615C133.473 232.01 101.966 287.883 101.966 287.883L84.5935 388.26H38.6684C38.6684 388.26 53.3991 288.832 60.0329 270.892C66.6667 252.952 108.075 168.773 108.075 168.773V155.746" fill="#EF8318"/>
<path d="M124.695 216.618C115.319 230.013 87.4914 287.883 87.4914 287.883L70.1185 388.26" stroke="#AF480E" stroke-width="0.75" stroke-miterlimit="10"/>
<path d="M128.217 216.618C118.842 230.013 91.0142 287.883 91.0142 287.883L73.6414 388.26" stroke="#AF480E" stroke-width="0.75" stroke-miterlimit="10" stroke-dasharray="2 2"/>
<path d="M118.487 348.713L141.812 372.132C141.812 372.132 128.914 400.282 129.112 400.565C129.297 400.834 150.704 387.014 150.704 387.014L156.784 376.069L165.804 369.768C166.855 369.032 166.955 367.502 166.003 366.639L158.361 359.743L138.332 331.933" fill="#F8BD86"/>
<path d="M128.459 396.444C130.405 392.239 138.474 377.556 138.474 377.556L156.713 376.111L167.864 368.323L172.367 374.738L161.216 382.526L157.807 377.683L156.386 378.674C155.889 379.028 155.52 379.524 155.335 380.104L153.091 387.255C152.849 388.034 152.352 388.699 151.684 389.166C151.684 389.166 134.027 401.485 131.158 403.496C128.303 405.507 125.49 402.859 128.459 396.444Z" fill="#FBBDDB"/>
<path d="M162.21 374.072L162.509 363.254L159.98 360.975L159.767 374.016L162.21 374.072Z" fill="#FBBDDB"/>
<path d="M105.901 155.463L104.225 168.787C104.225 168.787 49.0949 236.144 49.0949 264.576C49.0949 292.315 111.299 361.555 111.299 361.555L146.158 335.105L100.873 270.481C100.873 270.481 145.15 216.703 152.792 209.085C165.577 196.342 164.71 174.635 148.573 152.688" fill="#FFAB37"/>
<path d="M104.822 164.072C104.822 164.072 129.311 166.592 152.565 158.62" stroke="#AF480E" stroke-width="0.75" stroke-miterlimit="10"/>
<path d="M115.191 164.454V156.596" stroke="#AF480E" stroke-width="0.75" stroke-miterlimit="10" stroke-linecap="round"/>
<path d="M145.846 160.645L143.147 153.382" stroke="#AF480E" stroke-width="0.75" stroke-miterlimit="10"/>
<path d="M137.493 341.675L92.0938 276.357C89.6505 272.846 89.75 268.173 92.3211 264.761C102.89 250.799 129.61 215.613 135.221 209.085C146.982 195.379 148.204 179.265 139.34 162.118" stroke="#AF480E" stroke-width="0.75" stroke-miterlimit="10"/>
<path d="M138.189 336.068L137.38 334.907" stroke="#AF480E" stroke-width="0.75" stroke-miterlimit="10"/>
<path d="M136.172 333.18L95.3894 274.587C93.6848 272.138 93.7416 268.881 95.5457 266.488C105.02 253.971 133.899 215.91 139.752 209.085C151.002 195.973 151.94 180.115 144.241 163.76" stroke="#AF480E" stroke-width="0.75" stroke-miterlimit="10" stroke-dasharray="1.99 1.99"/>
<path d="M143.786 162.812C143.573 162.387 143.36 161.962 143.147 161.552" stroke="#AF480E" stroke-width="0.75" stroke-miterlimit="10"/>
<path d="M128.686 163.704C128.686 163.704 130.206 169.184 134.652 171.308C139.099 173.431 144.07 174.72 144.07 174.72" stroke="#AF480E" stroke-width="0.75" stroke-miterlimit="10"/>
<path d="M154.795 178.288C154.795 178.288 156.798 178.133 160.42 177.056" stroke="#AF480E" stroke-width="0.75" stroke-miterlimit="10"/>
<path d="M154.795 181.007C154.795 181.007 157.366 180.936 160.974 179.86" stroke="#AF480E" stroke-width="0.75" stroke-miterlimit="10"/>
<path d="M106.029 355.495L112.322 364.288L148.318 336.167L141.485 328.436L106.029 355.495Z" fill="#AF480E"/>
<path d="M37.8303 388.26L40.1599 378.377H86.3123V388.26H37.8303Z" fill="#AF480E"/>
<path d="M55.9276 131.293C56.1264 131.491 56.1407 131.817 55.9276 132.029L54.7059 133.261C54.5071 133.459 54.1803 133.473 53.9673 133.261L29.847 109.558C29.6481 109.36 29.6339 109.034 29.847 108.821L31.0686 107.59C31.2675 107.391 31.5942 107.377 31.8073 107.59" fill="#00276F"/>
<path d="M32.9721 110.733L34.9182 112.645" stroke="#2D5491" stroke-width="0.5" stroke-miterlimit="10" stroke-linecap="round"/>
<path d="M35.6853 113.438L35.9836 113.735" stroke="#2D5491" stroke-width="0.5" stroke-miterlimit="10" stroke-linecap="round"/>
<path d="M141.627 98.2585C132.593 79.7236 113.799 77.1041 113.799 77.1041C113.799 77.1041 98.8839 89.2955 96.8526 83.9432C94.6792 87.1574 80.815 111.144 82.7043 123.42C84.5935 135.696 95.2474 137.396 97.3781 140.058C99.5089 142.72 104.538 159.768 105.205 160.943C126.683 160.532 148.545 152.688 148.545 152.688C148.545 152.688 151.272 118.054 141.627 98.2585Z" fill="white"/>
<path d="M134.567 103.059C130.789 88.7291 118.757 81.0971 108.16 84.906C99.0259 88.191 97.1793 98.8107 99.793 112.786C102.421 126.776 101.768 145.65 101.768 145.65C101.768 145.65 68.7832 133.487 62.5756 131.024C56.2117 125.629 48.3705 119.993 47.0352 119.993C45.6999 119.993 46.3534 122.202 48.1716 124.001C50.0609 125.884 53.115 128.631 50.5581 128.404C48.6262 128.234 36.0546 115.632 36.0546 115.632C35.0035 116.68 36.2535 119.611 36.2535 119.611C36.2535 119.611 36.4524 124.439 40.3872 128.9C67.7179 159.852 99.8925 181.417 120.22 174.026C139.354 167.102 135.917 108.17 134.567 103.059Z" fill="#F8BD86"/>
<path d="M45.6289 129.976C45.6289 129.976 44.8618 129.537 43.7964 128.73C42.7452 127.923 41.4384 126.733 40.2593 125.416C39.0803 124.1 38.0291 122.698 37.3189 121.565C36.6228 120.446 36.2535 119.625 36.2535 119.625C36.2535 119.625 36.8927 120.248 37.8018 121.183C38.711 122.131 39.8758 123.406 41.0548 124.694C42.2055 125.997 43.3561 127.3 44.2226 128.277C44.6487 128.772 45.0039 129.197 45.2595 129.494C45.501 129.806 45.6289 129.976 45.6289 129.976Z" fill="#D34F9B"/>
<path d="M137.153 105.423C134.624 89.6495 122.535 80.2051 110.774 83.1645C100.631 85.7132 97.5203 96.9134 98.8414 112.177C99.2249 116.652 99.6227 121.593 99.9636 126.323L137.124 130.684C137.92 118.124 137.493 107.561 137.153 105.423Z" fill="#FCFCFC"/>
<path d="M48.4384 69.6087L10.918 75.1314C4.88376 76.0196 0.718258 81.6182 1.60187 87.6214C2.48721 93.6363 8.09924 97.7838 14.1218 96.8973L17.2563 96.4359L19.6006 98.6733L21.2009 95.8553L51.6539 91.3729C57.6881 90.4848 61.8536 84.8861 60.97 78.8829C60.0747 72.8815 54.4727 68.7205 48.4384 69.6087Z" fill="#E61D7D"/>
<path d="M20.3478 81.9928C19.9333 80.643 18.6409 79.6855 17.2329 79.6537C15.6201 79.6161 14.3353 80.666 13.9126 82.0314C13.1127 80.834 11.5816 80.2105 10.0481 80.7112C8.69725 81.1491 7.74905 82.4484 7.73926 83.8486C7.73024 85.0097 8.27096 85.9941 9.10389 86.6008L14.5561 90.6404C14.9465 90.9296 15.4865 90.8501 15.777 90.4607L19.8341 85.0214C20.4451 84.2022 20.691 83.102 20.3478 81.9928Z" fill="white"/>
<path d="M37.1709 79.5166C36.7564 78.1668 35.464 77.2093 34.0559 77.1775C32.4432 77.1399 31.1584 78.1898 30.7357 79.5552C29.9358 78.3578 28.4047 77.7343 26.8712 78.235C25.5203 78.6729 24.5721 79.9722 24.5623 81.3724C24.5533 82.5335 25.094 83.5179 25.927 84.1246L31.3792 88.1642C31.7696 88.4534 32.3096 88.3739 32.6001 87.9845L36.6572 82.5452C37.28 81.7243 37.5141 80.6258 37.1709 79.5166Z" fill="white"/>
<path d="M53.9941 77.0404C53.5795 75.6906 52.2872 74.7331 50.8792 74.7013C49.2664 74.6637 47.9816 75.7136 47.5589 77.079C46.759 75.8816 45.2279 75.2581 43.6944 75.7588C42.3436 76.1967 41.3953 77.496 41.3855 78.8963C41.3765 80.0573 41.9172 81.0417 42.7502 81.6484L48.2024 85.688C48.5928 85.9772 49.1328 85.8977 49.4233 85.5083L53.4803 80.0691C54.1031 79.2481 54.349 78.1478 53.9941 77.0404Z" fill="white"/>
<path d="M322.635 5.01139L276.372 5.0027C268.44 5.00121 262.005 11.4131 262.003 19.3201C262.002 27.2271 268.434 33.6414 276.367 33.6429L280.491 33.6436L283.077 36.9751L285.665 33.6446L322.629 33.6515C330.562 33.653 336.997 27.2412 336.998 19.3342C337 11.4271 330.573 5.01288 322.635 5.01139Z" fill="white" stroke="white" stroke-miterlimit="10" stroke-linecap="round" stroke-linejoin="round"/>
<path d="M275.469 28.1813C280.377 28.1822 284.357 24.2168 284.357 19.3242C284.358 14.4317 280.38 10.4648 275.472 10.4638C270.564 10.4629 266.584 14.4284 266.583 19.3209C266.582 24.2135 270.56 28.1804 275.469 28.1813Z" fill="#E6EFFC"/>
<path d="M282.13 20.8986C282.999 17.2347 280.723 13.5627 277.048 12.6968C273.372 11.8309 269.688 14.0991 268.82 17.763C267.951 21.4268 270.226 25.0989 273.902 25.9648C277.578 26.8306 281.262 24.5624 282.13 20.8986Z" fill="#FF5A89"/>
<path d="M272.745 15.0062C274.145 13.7338 276.842 13.4245 277.914 14.9684C278.391 15.6547 278.491 16.6119 279.123 17.1543C279.334 17.3369 279.601 17.4587 279.756 17.6912C280.017 18.0785 279.889 18.6097 279.717 19.0468C279.545 19.4839 279.334 19.9597 279.467 20.4135C279.561 20.7344 279.822 21.0167 279.772 21.3486C279.711 21.7968 279.161 21.9461 278.728 21.9737C278.373 22.0013 278.018 22.0123 277.662 21.9901C277.118 21.9513 276.58 21.8184 276.03 21.8404C275.364 21.8679 274.726 22.1334 274.071 22.2661C273.366 22.4098 272.633 22.4042 271.928 22.2436C271.506 22.1494 271.029 21.9169 270.985 21.4743C270.957 21.1755 271.151 20.8933 271.162 20.5945C271.179 20.0854 270.669 19.6814 270.669 19.1724C270.669 18.5748 271.318 18.2263 271.607 17.7118C271.862 17.2525 271.813 16.6826 271.968 16.1791C272.101 15.7365 272.379 15.3381 272.745 15.0062Z" fill="#00276F"/>
<path d="M268.136 25.4632C270.39 22.8906 273.754 22.9466 273.754 22.9466L277.074 22.8919C277.074 22.8919 280.032 23.2797 281.809 24.7298C287.131 29.0744 286.242 36.7046 286.242 36.7046C286.242 36.7046 264.66 32.0415 264.632 31.8921C264.61 31.7427 266.631 27.1837 268.136 25.4632Z" fill="#FFAB37"/>
<path d="M277.464 16.6118C278.135 19.3121 276.913 21.3315 275.87 21.4863C274.371 21.7129 273.538 20.9768 273.094 19.6432C272.9 19.0566 272.612 16.8322 273.234 16.1739C274.266 15.0951 276.892 14.3098 277.464 16.6118Z" fill="#F8BD86"/>
<path d="M273.932 20.2242L273.782 22.7087C273.782 22.7087 273.432 24.0421 275.48 24.0425C277.529 24.0429 277.035 22.7093 277.035 22.7093L276.702 19.9592" fill="#F8BD86"/>
<path d="M273.194 18.6471C273.067 18.5087 272.795 18.481 272.634 18.5972C272.495 18.6968 272.462 18.8628 272.451 19.0122C272.439 19.156 272.45 19.3054 272.506 19.4438C272.567 19.5821 272.678 19.7094 272.839 19.7647C273 19.8256 273.205 19.8091 273.327 19.704" fill="#F8BD86"/>
<path d="M277.374 18.648C277.502 18.5097 277.774 18.482 277.935 18.5983C278.074 18.6979 278.107 18.8639 278.118 19.0133C278.129 19.1572 278.118 19.3066 278.063 19.4449C278.001 19.5832 277.89 19.7104 277.729 19.7657C277.568 19.821 277.363 19.8099 277.241 19.7048" fill="#F8BD86"/>
<path d="M272.384 18.2985C273.661 18.0276 274.827 17.2863 275.615 16.2462C276.292 17.0708 277.18 17.7184 278.168 18.1059C278.252 17.4419 278.324 16.7337 278.035 16.1249C277.836 15.7044 277.48 15.3834 277.131 15.079C276.831 14.8189 276.52 14.5532 276.148 14.4148C275.432 14.1436 274.605 14.3813 273.978 14.8128C273.084 15.4213 272.473 16.4227 272.34 17.4961" fill="#00276F"/>
<path d="M275.976 14.282C275.91 14.3207 275.826 14.2598 275.771 14.1989C275.566 13.9665 275.349 13.6677 275.444 13.3689C275.488 13.2361 275.594 13.1255 275.71 13.0425C275.988 12.8489 276.365 12.7881 276.676 12.9209C276.987 13.0538 277.209 13.3969 277.159 13.7289C277.114 14.0609 276.776 14.343 276.443 14.2931" fill="#00276F"/>
<path d="M274.004 21.1484C274.004 21.1484 274.437 21.7516 275.22 21.8071C276.225 21.8792 276.663 20.9552 276.663 20.9552" stroke="#D34F9B" stroke-width="0.5" stroke-miterlimit="10" stroke-linecap="round" stroke-linejoin="round"/>
<path d="M275.476 19.9867C275.476 19.9867 275.026 20.0807 275.026 19.804C275.026 19.5273 275.165 18.299 275.165 18.299" stroke="#D34F9B" stroke-width="0.5" stroke-miterlimit="10" stroke-linecap="round" stroke-linejoin="round"/>
<path d="M276.275 18.515C276.27 18.5482 276.264 18.5869 276.259 18.6201C276.259 18.6422 276.259 18.6588 276.259 18.681C276.259 18.6976 276.259 18.7197 276.259 18.7363C276.259 18.7474 276.259 18.7529 276.259 18.764C276.259 18.7916 276.264 18.8193 276.27 18.847C276.275 18.8746 276.292 18.9023 276.308 18.9189C276.325 18.941 276.342 18.9632 276.37 18.9742C276.386 18.9798 276.403 18.9908 276.419 18.9964C276.447 19.0075 276.475 19.0075 276.508 19.0019C276.531 19.0019 276.547 18.9964 276.564 18.9853C276.592 18.9743 276.614 18.9632 276.636 18.9411C276.675 18.8968 276.703 18.847 276.703 18.7862C276.703 18.7308 276.686 18.6755 276.675 18.6202C276.669 18.6036 276.669 18.5814 276.664 18.5648C276.658 18.5482 276.653 18.5261 276.647 18.5095C276.642 18.4929 276.636 18.4818 276.631 18.4652C276.619 18.4431 276.603 18.4265 276.581 18.4099C276.569 18.3988 276.553 18.3877 276.536 18.3877C276.514 18.3767 276.486 18.3711 276.464 18.3711C276.447 18.3711 276.431 18.3767 276.414 18.3767C276.397 18.3822 276.386 18.3877 276.37 18.3932C276.347 18.4043 276.331 18.4209 276.314 18.443C276.292 18.4707 276.281 18.4928 276.275 18.515Z" fill="#00276F"/>
<path d="M276.076 17.9726C276.076 17.9726 276.425 17.7126 276.986 18.0447" stroke="#00276F" stroke-width="0.5" stroke-miterlimit="10" stroke-linecap="round" stroke-linejoin="round"/>
<path d="M273.894 18.5145C273.888 18.5311 273.877 18.5477 273.877 18.5699C273.872 18.5865 273.872 18.6086 273.866 18.6252C273.855 18.6805 273.838 18.7358 273.838 18.7912C273.838 18.8188 273.844 18.8465 273.855 18.8742C273.866 18.9018 273.877 18.924 273.899 18.9461C273.916 18.9572 273.927 18.9683 273.944 18.9793C273.972 18.9959 273.994 19.0015 274.027 19.007C274.044 19.0126 274.066 19.0126 274.083 19.007C274.11 19.007 274.138 18.996 274.166 18.9794C274.182 18.9683 274.194 18.9572 274.21 18.9462C274.238 18.9185 274.255 18.8853 274.266 18.8521C274.271 18.8134 274.277 18.7802 274.277 18.7415C274.277 18.7193 274.277 18.7027 274.277 18.6806C274.277 18.664 274.277 18.6419 274.277 18.6253C274.277 18.5921 274.266 18.5533 274.26 18.5201C274.255 18.5035 274.249 18.4925 274.244 18.4759C274.233 18.4537 274.216 18.4371 274.194 18.4205C274.183 18.4094 274.166 18.3984 274.149 18.3984C274.127 18.3873 274.099 18.3818 274.077 18.3818C274.06 18.3818 274.044 18.3873 274.027 18.3873C274.01 18.3928 273.999 18.3983 273.983 18.4039C273.961 18.4149 273.944 18.4315 273.927 18.4537C273.916 18.4703 273.899 18.4924 273.894 18.5145Z" fill="#00276F"/>
<path d="M274.46 17.9723C274.46 17.9723 274.111 17.7122 273.55 18.0441" stroke="#00276F" stroke-width="0.5" stroke-miterlimit="10" stroke-linecap="round" stroke-linejoin="round"/>
<path d="M274.604 20.3627L276.075 20.3629C276.075 20.3629 275.87 21.121 275.331 21.1209C274.798 21.1208 274.604 20.3627 274.604 20.3627Z" fill="white"/>
<path d="M287.656 11.9601L327.807 11.9676" stroke="#E6EFFC" stroke-width="3" stroke-miterlimit="10" stroke-linecap="round" stroke-linejoin="round"/>
<path d="M287.655 16.868L327.806 16.8756" stroke="#E6EFFC" stroke-width="3" stroke-miterlimit="10" stroke-linecap="round" stroke-linejoin="round"/>
<path d="M319.778 21.7821L327.805 21.7836" stroke="#E6EFFC" stroke-width="3" stroke-miterlimit="10" stroke-linecap="round" stroke-linejoin="round"/>
<path d="M287.654 21.7761L315.21 21.7813" stroke="#E6EFFC" stroke-width="3" stroke-miterlimit="10" stroke-linecap="round" stroke-linejoin="round"/>
<path d="M287.653 26.6841L308.897 26.6881" stroke="#E6EFFC" stroke-width="3" stroke-miterlimit="10" stroke-linecap="round" stroke-linejoin="round"/>
<defs>
<linearGradient id="paint0_linear" x1="304.082" y1="60.87" x2="285.229" y2="80.9931" gradientUnits="userSpaceOnUse">
<stop stop-color="white" stop-opacity="0.6"/>
<stop offset="0.8878" stop-color="white" stop-opacity="0.1"/>
</linearGradient>
<linearGradient id="paint1_linear" x1="303.261" y1="58.2864" x2="284.441" y2="78.3737" gradientUnits="userSpaceOnUse">
<stop stop-color="white" stop-opacity="0.6"/>
<stop offset="0.8878" stop-color="white" stop-opacity="0.1"/>
</linearGradient>
</defs>
</svg>
