<svg width="65" height="63" viewBox="0 0 65 63" fill="none" xmlns="http://www.w3.org/2000/svg">
<path opacity="0.3" d="M31.2326 45.229L17.5627 31.5591L9.95825 52.8335L31.2326 45.229Z" fill="#FAFF00"/>
<path d="M0 62.7917L42.247 47.7035L15.0882 20.5447L0 62.7917ZM31.2326 45.229L9.95822 52.8335L17.5627 31.5591L31.2326 45.229ZM37.811 34.2146L54.6797 17.346C55.0301 16.9947 55.4463 16.716 55.9046 16.5259C56.3628 16.3357 56.8541 16.2378 57.3503 16.2378C57.8464 16.2378 58.3377 16.3357 58.796 16.5259C59.2542 16.716 59.6705 16.9947 60.0209 17.346L61.8013 19.1264L65 15.9277L63.2196 14.1473C61.6601 12.5961 59.5499 11.7253 57.3503 11.7253C55.1506 11.7253 53.0405 12.5961 51.481 14.1473L34.6124 31.0159L37.811 34.2146ZM22.5418 18.9454L25.7405 22.1441L27.5209 20.3636C29.0721 18.8041 29.9429 16.694 29.9429 14.4943C29.9429 12.2947 29.0721 10.1845 27.5209 8.62502L25.7405 6.84461L22.5418 10.0735L24.3222 11.8539C25.7707 13.3024 25.7707 15.7165 24.3222 17.1649L22.5418 18.9454ZM45.4457 32.2532L40.6476 37.0512L43.8463 40.2499L48.6444 35.4519C48.9948 35.1006 49.411 34.8219 49.8693 34.6317C50.3276 34.4416 50.8188 34.3437 51.315 34.3437C51.8111 34.3437 52.3024 34.4416 52.7607 34.6317C53.219 34.8219 53.6352 35.1006 53.9856 35.4519L58.844 40.3103L62.0427 37.1116L57.1843 32.2532C55.6248 30.7019 53.5146 29.8312 51.315 29.8312C49.1154 29.8312 47.0052 30.7019 45.4457 32.2532ZM39.4104 14.1473L28.5771 24.9806L31.7758 28.1793L42.6091 17.346C44.1603 15.7865 45.0311 13.6763 45.0311 11.4767C45.0311 9.27706 44.1603 7.16688 42.6091 5.60738L37.811 0.809326L34.6124 4.00803L39.4104 8.80608C40.8589 10.2847 40.8589 12.6988 39.4104 14.1473Z" fill="#FAFF00" fill-opacity="0.79"/>
</svg>
