<svg width="209" height="125" viewBox="0 0 209 125" fill="none" xmlns="http://www.w3.org/2000/svg">
<path d="M16.7969 80.6602C16.5104 79.957 16.1589 79.319 15.7422 78.7461C14.7266 77.4049 13.6068 76.7344 12.3828 76.7344C11.5885 76.7344 10.7878 77.0273 9.98047 77.6133C8.44401 78.707 7.1224 80.6081 6.01562 83.3164C4.85677 86.1029 4.27734 88.8372 4.27734 91.5195C4.27734 94.0977 4.69401 96.2461 5.52734 97.9648C6.45182 99.8659 7.71484 100.816 9.31641 100.816C10.0586 100.816 10.8854 100.478 11.7969 99.8008C13.2292 98.7201 14.4596 97.151 15.4883 95.0938C15.5143 95.0156 15.5534 94.9375 15.6055 94.8594C15.9049 94.3516 16.3411 94.0977 16.9141 94.0977C17.1875 94.0977 17.4479 94.1628 17.6953 94.293C18.2161 94.5924 18.4766 95.0482 18.4766 95.6602C18.4766 95.8815 18.4115 96.1354 18.2812 96.4219C17.4479 98.1927 16.4453 99.6966 15.2734 100.934C13.3203 102.978 11.224 104 8.98438 104C8.69792 104 8.41146 103.98 8.125 103.941C6.11979 103.655 4.45964 102.464 3.14453 100.367C1.6862 98.0365 0.957031 95.1198 0.957031 91.6172C0.957031 89.5339 1.25651 87.4245 1.85547 85.2891C2.79297 81.9297 4.23828 79.1432 6.19141 76.9297C8.23568 74.638 10.3971 73.4922 12.6758 73.4922C13.6523 73.4922 14.5833 73.707 15.4688 74.1367C17.3438 75.0742 18.75 76.8385 19.6875 79.4297C19.7917 79.6771 19.8438 79.918 19.8438 80.1523C19.8438 80.4258 19.7721 80.6862 19.6289 80.9336C19.3164 81.4544 18.8672 81.7148 18.2812 81.7148C17.6823 81.6758 17.1875 81.3242 16.7969 80.6602ZM28.1641 87.5938C28.6198 87.6068 29.0495 87.6523 29.4531 87.7305C31.4583 88.1602 32.6888 89.7227 33.1445 92.418C33.3919 92.2747 33.8021 92.0078 34.375 91.6172C35.1562 91.0833 35.7487 90.8164 36.1523 90.8164C36.3477 90.8164 36.5365 90.875 36.7188 90.9922C37.1224 91.2526 37.3242 91.6042 37.3242 92.0469C37.3112 92.4896 37.0247 92.9779 36.4648 93.5117C35.6706 94.2409 34.6419 94.8594 33.3789 95.3672C33.3659 97.3984 33.0599 99.1172 32.4609 100.523C31.4844 102.815 29.8828 103.961 27.6562 103.961C26.862 103.961 26.0677 103.707 25.2734 103.199C23.4375 101.988 22.5195 99.8073 22.5195 96.6562C22.5195 94.7552 22.8385 93.0234 23.4766 91.4609C24.4792 89 26.0417 87.7109 28.1641 87.5938ZM30.6055 95.875C30.0977 95.862 29.6159 95.8099 29.1602 95.7188C27.4414 95.3542 26.3346 94.4427 25.8398 92.9844C25.5013 94.0781 25.332 95.2695 25.332 96.5586C25.332 97.1836 25.3906 97.7891 25.5078 98.375C25.8724 100.159 26.6667 101.051 27.8906 101.051C28.2943 101.051 28.6589 100.927 28.9844 100.68C29.9349 99.9505 30.4753 98.349 30.6055 95.875ZM30.3125 93.2188C30.3125 93.2188 30.4036 93.2188 30.5859 93.2188C30.3906 91.4349 29.9219 90.5365 29.1797 90.5234C29.1146 90.5234 29.0495 90.5299 28.9844 90.543C28.6979 90.6471 28.5547 90.862 28.5547 91.1875C28.5547 91.474 28.6003 91.7539 28.6914 92.0273C28.9779 92.8216 29.5182 93.2188 30.3125 93.2188ZM34.9414 101.969C34.9414 101.969 35.4948 97.7891 36.6016 89.4297C36.6276 89.2083 36.6602 89 36.6992 88.8047C36.9336 87.6849 37.4414 87.125 38.2227 87.125C38.3659 87.125 38.5091 87.138 38.6523 87.1641C39.2513 87.3073 39.5508 87.8737 39.5508 88.8633C39.5508 89.0065 39.5378 89.2539 39.5117 89.6055C39.4987 89.8398 39.4922 90.0221 39.4922 90.1523C39.5182 90.1003 39.5508 90.0482 39.5898 89.9961C40.5534 88.2904 41.9271 87.4375 43.7109 87.4375C44.349 87.4375 44.9349 87.6263 45.4688 88.0039C46.263 88.5898 46.6602 89.3646 46.6602 90.3281C46.6602 90.4844 46.6536 90.8555 46.6406 91.4414C46.6276 92.7695 46.6211 93.8242 46.6211 94.6055C46.6211 97.2617 46.6992 98.8242 46.8555 99.293C46.8945 99.3971 46.9336 99.5078 46.9727 99.625C47.3372 100.615 47.8516 101.109 48.5156 101.109C48.6328 101.109 48.763 101.096 48.9062 101.07C49.2969 100.992 49.8568 100.686 50.5859 100.152C51.3021 99.6445 51.875 99.3906 52.3047 99.3906C52.474 99.3906 52.6367 99.4362 52.793 99.5273C53.1966 99.7617 53.3984 100.146 53.3984 100.68C53.3203 101.318 52.7734 102.021 51.7578 102.789C50.5599 103.596 49.3555 104 48.1445 104C47.168 104 46.3411 103.733 45.6641 103.199C44.2708 102.079 43.5742 99.625 43.5742 95.8359C43.5742 95.5625 43.5807 95.1198 43.5938 94.5078C43.6198 93.8698 43.6328 93.3359 43.6328 92.9062C43.6328 91.513 43.4766 90.7969 43.1641 90.7578C43.112 90.7578 43.0469 90.7708 42.9688 90.7969C42.2266 91.0703 41.276 92.5482 40.1172 95.2305C39.1016 97.5872 38.4505 99.5469 38.1641 101.109L38.125 101.676C38.0859 102.145 37.9557 102.574 37.7344 102.965C37.3568 103.59 36.888 103.902 36.3281 103.902C36.1719 103.902 36.0156 103.87 35.8594 103.805C35.2474 103.518 34.9414 102.906 34.9414 101.969ZM50.6641 97.9648C50.6641 97.5221 50.6901 97.0534 50.7422 96.5586C51.0156 94.319 51.7188 92.3333 52.8516 90.6016C54.2318 88.4922 55.8919 87.4375 57.832 87.4375C58.6784 87.4375 59.4206 87.6003 60.0586 87.9258C60.319 87.6133 60.6706 87.4505 61.1133 87.4375C61.9727 87.4505 62.4154 88.0039 62.4414 89.0977C62.4414 89.1367 61.7253 94.293 60.293 104.566C63.1706 102.418 64.9935 101.025 65.7617 100.387C66.2435 99.9701 66.7448 99.7552 67.2656 99.7422C67.4479 99.7422 67.6237 99.8008 67.793 99.918C68.1706 100.178 68.3594 100.51 68.3594 100.914C68.3464 101.526 67.9883 102.132 67.2852 102.73C65.9831 103.824 63.4505 105.81 59.6875 108.688L58.7891 115.152C58.5677 116.637 57.9362 117.77 56.8945 118.551C56.0482 119.163 55.1172 119.469 54.1016 119.469C52.9036 119.456 51.8424 119 50.918 118.102C50.0326 117.203 49.5898 116.201 49.5898 115.094C49.5898 114 49.8372 113.095 50.332 112.379C50.6445 111.923 51.25 111.363 52.1484 110.699L52.1875 110.68C52.2005 110.667 52.2396 110.634 52.3047 110.582C53.2031 109.918 54.7591 108.753 56.9727 107.086L57.5391 103.297C56.6667 103.883 55.7552 104.182 54.8047 104.195C53.9714 104.195 53.2487 103.98 52.6367 103.551C51.3216 102.587 50.6641 100.725 50.6641 97.9648ZM57.5977 99.293C57.7799 99.0326 58.0013 98.3359 58.2617 97.2031C58.7956 94.8984 59.1797 92.5807 59.4141 90.25C59.1146 90.0938 58.8086 90.0091 58.4961 89.9961C58.2617 89.9961 58.0208 90.0286 57.7734 90.0938C56.5625 90.4323 55.5339 91.5521 54.6875 93.4531C53.9453 95.1589 53.5742 96.8711 53.5742 98.5898C53.5742 98.7721 53.5807 98.9544 53.5938 99.1367C53.6849 100.504 54.0885 101.188 54.8047 101.188C55.1693 101.188 55.612 101.005 56.1328 100.641C56.7448 100.211 57.2331 99.7617 57.5977 99.293ZM55.9961 113.59C55.9961 113.59 56.1068 112.796 56.3281 111.207C56.276 111.246 56.2174 111.292 56.1523 111.344C54.8633 112.333 54.2057 112.841 54.1797 112.867C53.2422 113.57 52.7669 114.234 52.7539 114.859C52.7539 115.081 52.793 115.289 52.8711 115.484C53.0924 116.057 53.5026 116.344 54.1016 116.344C54.349 116.344 54.5703 116.305 54.7656 116.227C55.4036 115.953 55.8138 115.074 55.9961 113.59ZM76.875 99.2539C76.875 99.2669 76.8815 99.2799 76.8945 99.293C77.3112 100.504 77.8646 101.109 78.5547 101.109C78.9583 101.083 79.6094 100.797 80.5078 100.25C81.3151 99.7161 81.9206 99.4492 82.3242 99.4492C82.5195 99.4492 82.7148 99.5143 82.9102 99.6445C83.2487 99.9049 83.418 100.204 83.418 100.543C83.3659 101.259 82.8516 102.001 81.875 102.77C80.7031 103.616 79.4661 104.039 78.1641 104.039C77.3047 104.039 76.5625 103.818 75.9375 103.375C74.4792 102.333 73.75 100.217 73.75 97.0273C73.75 96.4023 73.776 95.7448 73.8281 95.0547C73.9323 93.7266 74.0365 92.9128 74.1406 92.6133C73.2812 93.056 72.3893 93.2773 71.4648 93.2773C71.3607 93.2773 71.2044 93.2643 70.9961 93.2383C70.8919 93.2253 70.8138 93.2188 70.7617 93.2188C70.7227 93.2448 70.5729 93.3294 70.3125 93.4727C69.4401 93.9805 68.737 94.2344 68.2031 94.2344C68.0469 94.2344 67.8841 94.1953 67.7148 94.1172C67.3112 93.9089 67.1094 93.6094 67.1094 93.2188C67.1094 93.1536 67.1159 93.0885 67.1289 93.0234C67.168 92.763 67.3698 92.4896 67.7344 92.2031C67.8776 92.099 67.9818 92.0143 68.0469 91.9492C67.2396 91.207 66.8294 90.1914 66.8164 88.9023C66.8164 88.3424 66.9531 87.8216 67.2266 87.3398C67.7995 86.3372 68.7109 85.8359 69.9609 85.8359C70.599 85.8359 71.2044 86.0052 71.7773 86.3438C72.7148 86.9297 73.1836 87.737 73.1836 88.7656C73.1836 89.3776 73.0924 89.931 72.9102 90.4258C73.1055 90.3346 73.444 90.1198 73.9258 89.7812C74.9154 89.1042 75.612 88.7656 76.0156 88.7656C76.5495 88.7786 76.9987 88.9414 77.3633 89.2539C77.5586 89.4232 77.6628 89.612 77.6758 89.8203C77.6758 89.8984 77.6562 90.0156 77.6172 90.1719C77.5781 90.2891 77.5586 90.3737 77.5586 90.4258C76.8815 92.7174 76.543 94.6836 76.543 96.3242C76.543 97.0404 76.6276 97.8477 76.7969 98.7461C76.8359 98.9805 76.862 99.1497 76.875 99.2539ZM70.7227 89.0195C70.7227 88.9284 70.7096 88.8307 70.6836 88.7266C70.5664 88.401 70.3255 88.2383 69.9609 88.2383C69.8828 88.2383 69.7982 88.2513 69.707 88.2773C69.3424 88.3945 69.1602 88.6419 69.1602 89.0195C69.1732 89.6315 69.4987 90.1003 70.1367 90.4258C70.5143 90.0221 70.7096 89.5534 70.7227 89.0195ZM81.0547 97.8672C81.0547 97.4245 81.0807 96.9557 81.1328 96.4609C81.4062 94.2214 82.1094 92.2357 83.2422 90.5039C84.6224 88.3945 86.2826 87.3398 88.2227 87.3398C89.056 87.3398 89.7852 87.5026 90.4102 87.8281C90.6706 87.5156 91.0286 87.3529 91.4844 87.3398C91.7448 87.3398 91.9076 87.3594 91.9727 87.3984C92.5326 87.5807 92.8125 88.1341 92.8125 89.0586C92.8125 89.4362 92.7474 90.25 92.6172 91.5C92.2135 95.1979 92.0117 97.4961 92.0117 98.3945C92.0117 98.9935 92.1354 99.5534 92.3828 100.074C92.7474 100.855 93.2292 101.246 93.8281 101.246C93.9453 101.246 94.069 101.233 94.1992 101.207C94.5898 101.129 95.1497 100.829 95.8789 100.309C96.5951 99.7878 97.168 99.5273 97.5977 99.5273C97.7669 99.5273 97.9427 99.5859 98.125 99.7031C98.5026 99.9635 98.6914 100.309 98.6914 100.738C98.6523 101.415 98.138 102.118 97.1484 102.848C95.9635 103.681 94.707 104.098 93.3789 104.098C91.7383 104.085 90.5273 103.258 89.7461 101.617C89.5638 101.839 89.3555 102.06 89.1211 102.281C87.832 103.492 86.5234 104.098 85.1953 104.098C84.362 104.098 83.6393 103.883 83.0273 103.453C81.7122 102.49 81.0547 100.628 81.0547 97.8672ZM89.6484 91.4414C89.6484 91.4414 89.694 90.9987 89.7852 90.1133C89.4987 89.9701 89.1992 89.8984 88.8867 89.8984C88.6523 89.8984 88.4115 89.931 88.1641 89.9961C86.9531 90.3346 85.931 91.4544 85.0977 93.3555C84.3555 95.0612 83.9844 96.7734 83.9844 98.4922C83.9844 98.5573 83.9844 98.6224 83.9844 98.6875C84.0234 100.276 84.4271 101.07 85.1953 101.07C85.599 101.057 86.0938 100.836 86.6797 100.406C87.2786 99.9766 87.7148 99.5729 87.9883 99.1953C88.1576 98.9479 88.3854 98.2253 88.6719 97.0273C89.1927 94.8008 89.5182 92.9388 89.6484 91.4414ZM98.3008 82.3789C98.3138 82.3789 98.3789 82.3789 98.4961 82.3789C99.2253 82.4049 99.8828 82.418 100.469 82.418L101.328 76.3828C101.38 75.9792 101.445 75.6406 101.523 75.3672C101.758 74.5078 102.233 74.0781 102.949 74.0781C103.092 74.0781 103.236 74.0911 103.379 74.1172C103.978 74.2604 104.277 74.8268 104.277 75.8164C104.277 76.1289 104.017 78.3294 103.496 82.418H105.547C105.898 82.418 106.204 82.4896 106.465 82.6328C106.921 82.9062 107.148 83.3099 107.148 83.8438C107.148 84.0781 107.09 84.2995 106.973 84.5078C106.673 85.0026 106.185 85.25 105.508 85.25H103.086C102.07 93.0625 101.562 97.444 101.562 98.3945C101.562 98.9935 101.686 99.5534 101.934 100.074C102.298 100.855 102.78 101.246 103.379 101.246C103.522 101.246 103.672 101.227 103.828 101.188C104.18 101.096 104.681 100.797 105.332 100.289C105.97 99.7812 106.504 99.5273 106.934 99.5273C107.116 99.5273 107.292 99.5664 107.461 99.6445C107.93 99.8789 108.164 100.237 108.164 100.719C108.125 101.396 107.624 102.099 106.66 102.828C105.488 103.674 104.245 104.098 102.93 104.098C101.641 104.085 100.586 103.544 99.7656 102.477C98.9323 101.344 98.5156 99.918 98.5156 98.1992C98.5156 97.8216 99.0299 93.5052 100.059 85.25H98.3008C98.2227 85.25 98.1445 85.25 98.0664 85.25C97.168 85.1719 96.7188 84.7031 96.7188 83.8438C96.7188 83.6094 96.7578 83.3945 96.8359 83.1992C97.0703 82.6523 97.5586 82.3789 98.3008 82.3789ZM114.707 93.4336C114.811 92.6393 114.941 91.1484 115.098 88.9609C115.111 88.8568 115.124 88.7591 115.137 88.668C115.293 87.8477 115.794 87.4245 116.641 87.3984C116.68 87.3984 116.725 87.4049 116.777 87.418C117.48 87.4961 117.832 88.043 117.832 89.0586C117.832 89.319 117.806 89.7096 117.754 90.2305C117.728 90.4648 117.708 90.6406 117.695 90.7578C117.474 94.2865 117.363 96.5195 117.363 97.457C117.363 97.7956 117.383 98.1341 117.422 98.4727C117.63 100.126 118.21 100.953 119.16 100.953C119.29 100.953 119.427 100.94 119.57 100.914C119.948 100.823 120.501 100.517 121.23 99.9961C121.947 99.4753 122.52 99.2148 122.949 99.2148C123.118 99.2148 123.281 99.2669 123.438 99.3711C123.841 99.6185 124.043 100.003 124.043 100.523C124.043 100.562 124.036 100.615 124.023 100.68C123.932 101.305 123.392 101.949 122.402 102.613C121.191 103.434 119.987 103.844 118.789 103.844C117.174 103.831 116.022 103.095 115.332 101.637C114.186 103.043 112.617 103.753 110.625 103.766C110.156 103.766 109.714 103.707 109.297 103.59C107.018 102.9 105.879 100.393 105.879 96.0703C105.879 93.987 106.107 91.8906 106.562 89.7812C106.589 89.6771 106.615 89.5664 106.641 89.4492C107.044 88.0169 107.617 87.3008 108.359 87.3008C109.284 87.3138 109.759 87.8216 109.785 88.8242C109.785 89.0326 109.727 89.4948 109.609 90.2109C109.154 93.1276 108.926 95.237 108.926 96.5391C108.926 99.2474 109.616 100.615 110.996 100.641C112.78 100.628 114.017 98.2253 114.707 93.4336ZM129.727 104C126.589 103.87 124.264 101.956 122.754 98.2578C121.634 95.4714 121.074 92.0599 121.074 88.0234C121.074 87.8151 121.087 87.5482 121.113 87.2227C121.296 84.4753 121.803 81.9557 122.637 79.6641C123.991 75.9661 125.905 74.1172 128.379 74.1172C128.509 74.1172 128.646 74.1237 128.789 74.1367C131.042 74.2799 132.168 75.5885 132.168 78.0625C132.168 80.7578 131.009 83.7526 128.691 87.0469C127.22 89.1432 125.677 90.8424 124.062 92.1445C124.505 94.6185 124.993 96.474 125.527 97.7109C126.517 100.003 127.988 101.148 129.941 101.148C130.072 101.148 130.208 101.135 130.352 101.109C130.781 101.031 131.38 100.719 132.148 100.172C132.891 99.6641 133.47 99.4102 133.887 99.4102C134.069 99.4102 134.245 99.4688 134.414 99.5859C134.792 99.8464 134.98 100.198 134.98 100.641C134.954 101.318 134.473 102.014 133.535 102.73C132.363 103.577 131.094 104 129.727 104ZM128.398 77.0664C127.63 77.0794 126.953 77.4115 126.367 78.0625C124.883 79.7422 124.069 83.2513 123.926 88.5898C124.707 87.7956 125.488 86.8581 126.27 85.7773C128.431 82.8216 129.512 80.3281 129.512 78.2969C129.512 78.1927 129.486 78.069 129.434 77.9258C129.225 77.3529 128.88 77.0664 128.398 77.0664ZM131.641 97.8672C131.641 97.4245 131.667 96.9557 131.719 96.4609C131.992 94.2214 132.695 92.2357 133.828 90.5039C135.208 88.3945 136.868 87.3398 138.809 87.3398C139.642 87.3398 140.371 87.5026 140.996 87.8281C141.257 87.5156 141.615 87.3529 142.07 87.3398C142.331 87.3398 142.493 87.3594 142.559 87.3984C143.118 87.5807 143.398 88.1341 143.398 89.0586C143.398 89.4362 143.333 90.25 143.203 91.5C142.799 95.1979 142.598 97.4961 142.598 98.3945C142.598 98.9935 142.721 99.5534 142.969 100.074C143.333 100.855 143.815 101.246 144.414 101.246C144.531 101.246 144.655 101.233 144.785 101.207C145.176 101.129 145.736 100.829 146.465 100.309C147.181 99.7878 147.754 99.5273 148.184 99.5273C148.353 99.5273 148.529 99.5859 148.711 99.7031C149.089 99.9635 149.277 100.309 149.277 100.738C149.238 101.415 148.724 102.118 147.734 102.848C146.549 103.681 145.293 104.098 143.965 104.098C142.324 104.085 141.113 103.258 140.332 101.617C140.15 101.839 139.941 102.06 139.707 102.281C138.418 103.492 137.109 104.098 135.781 104.098C134.948 104.098 134.225 103.883 133.613 103.453C132.298 102.49 131.641 100.628 131.641 97.8672ZM140.234 91.4414C140.234 91.4414 140.28 90.9987 140.371 90.1133C140.085 89.9701 139.785 89.8984 139.473 89.8984C139.238 89.8984 138.997 89.931 138.75 89.9961C137.539 90.3346 136.517 91.4544 135.684 93.3555C134.941 95.0612 134.57 96.7734 134.57 98.4922C134.57 98.5573 134.57 98.6224 134.57 98.6875C134.609 100.276 135.013 101.07 135.781 101.07C136.185 101.057 136.68 100.836 137.266 100.406C137.865 99.9766 138.301 99.5729 138.574 99.1953C138.743 98.9479 138.971 98.2253 139.258 97.0273C139.779 94.8008 140.104 92.9388 140.234 91.4414ZM148.887 82.3789C148.9 82.3789 148.965 82.3789 149.082 82.3789C149.811 82.4049 150.469 82.418 151.055 82.418L151.914 76.3828C151.966 75.9792 152.031 75.6406 152.109 75.3672C152.344 74.5078 152.819 74.0781 153.535 74.0781C153.678 74.0781 153.822 74.0911 153.965 74.1172C154.564 74.2604 154.863 74.8268 154.863 75.8164C154.863 76.1289 154.603 78.3294 154.082 82.418H156.133C156.484 82.418 156.79 82.4896 157.051 82.6328C157.507 82.9062 157.734 83.3099 157.734 83.8438C157.734 84.0781 157.676 84.2995 157.559 84.5078C157.259 85.0026 156.771 85.25 156.094 85.25H153.672C152.656 93.0625 152.148 97.444 152.148 98.3945C152.148 98.9935 152.272 99.5534 152.52 100.074C152.884 100.855 153.366 101.246 153.965 101.246C154.108 101.246 154.258 101.227 154.414 101.188C154.766 101.096 155.267 100.797 155.918 100.289C156.556 99.7812 157.09 99.5273 157.52 99.5273C157.702 99.5273 157.878 99.5664 158.047 99.6445C158.516 99.8789 158.75 100.237 158.75 100.719C158.711 101.396 158.21 102.099 157.246 102.828C156.074 103.674 154.831 104.098 153.516 104.098C152.227 104.085 151.172 103.544 150.352 102.477C149.518 101.344 149.102 99.918 149.102 98.1992C149.102 97.8216 149.616 93.5052 150.645 85.25H148.887C148.809 85.25 148.73 85.25 148.652 85.25C147.754 85.1719 147.305 84.7031 147.305 83.8438C147.305 83.6094 147.344 83.3945 147.422 83.1992C147.656 82.6523 148.145 82.3789 148.887 82.3789ZM160.312 88.8633C160.312 89.2409 160.247 90.0547 160.117 91.3047C159.714 95.0026 159.512 97.3008 159.512 98.1992C159.512 98.7982 159.635 99.3581 159.883 99.8789C160.247 100.66 160.736 101.051 161.348 101.051C161.478 101.051 161.615 101.038 161.758 101.012C162.135 100.921 162.682 100.615 163.398 100.094C164.102 99.5729 164.668 99.3125 165.098 99.3125C165.28 99.3125 165.462 99.3776 165.645 99.5078C166.009 99.7682 166.191 100.113 166.191 100.543C166.139 101.207 165.625 101.91 164.648 102.652C163.451 103.486 162.194 103.902 160.879 103.902C159.772 103.902 158.854 103.518 158.125 102.75C157.031 101.578 156.484 99.7161 156.484 97.1641C156.484 96.2917 156.66 94.5859 157.012 92.0469C157.168 90.862 157.279 89.9896 157.344 89.4297C157.357 89.3125 157.37 89.1953 157.383 89.0781C157.591 87.776 158.125 87.125 158.984 87.125C159.128 87.125 159.271 87.138 159.414 87.1641C160.013 87.3073 160.312 87.8737 160.312 88.8633ZM158.086 83.7461C158.086 83.5117 158.138 83.2904 158.242 83.082C158.503 82.5742 158.926 82.3203 159.512 82.3203C159.746 82.3203 159.967 82.3724 160.176 82.4766C160.684 82.737 160.938 83.1602 160.938 83.7461C160.938 83.9805 160.885 84.2018 160.781 84.4102C160.521 84.918 160.098 85.1719 159.512 85.1719C159.277 85.1719 159.056 85.1198 158.848 85.0156C158.34 84.7552 158.086 84.332 158.086 83.7461ZM169.258 87.5938C169.714 87.6068 170.143 87.6523 170.547 87.7305C172.552 88.1602 173.783 89.7227 174.238 92.418C174.486 92.2747 174.896 92.0078 175.469 91.6172C176.25 91.0833 176.842 90.8164 177.246 90.8164C177.441 90.8164 177.63 90.875 177.812 90.9922C178.216 91.2526 178.418 91.6042 178.418 92.0469C178.405 92.4896 178.118 92.9779 177.559 93.5117C176.764 94.2409 175.736 94.8594 174.473 95.3672C174.46 97.3984 174.154 99.1172 173.555 100.523C172.578 102.815 170.977 103.961 168.75 103.961C167.956 103.961 167.161 103.707 166.367 103.199C164.531 101.988 163.613 99.8073 163.613 96.6562C163.613 94.7552 163.932 93.0234 164.57 91.4609C165.573 89 167.135 87.7109 169.258 87.5938ZM171.699 95.875C171.191 95.862 170.71 95.8099 170.254 95.7188C168.535 95.3542 167.428 94.4427 166.934 92.9844C166.595 94.0781 166.426 95.2695 166.426 96.5586C166.426 97.1836 166.484 97.7891 166.602 98.375C166.966 100.159 167.76 101.051 168.984 101.051C169.388 101.051 169.753 100.927 170.078 100.68C171.029 99.9505 171.569 98.349 171.699 95.875ZM171.406 93.2188C171.406 93.2188 171.497 93.2188 171.68 93.2188C171.484 91.4349 171.016 90.5365 170.273 90.5234C170.208 90.5234 170.143 90.5299 170.078 90.543C169.792 90.6471 169.648 90.862 169.648 91.1875C169.648 91.474 169.694 91.7539 169.785 92.0273C170.072 92.8216 170.612 93.2188 171.406 93.2188ZM195.527 88.3945C195.801 87.7174 196.283 87.3724 196.973 87.3594H197.09C197.363 87.3724 197.643 87.4049 197.93 87.457C200.039 87.8086 201.758 88.9219 203.086 90.7969C204.349 92.5547 204.98 94.5534 204.98 96.793C204.98 98.9154 204.382 100.777 203.184 102.379C203.158 102.405 203.132 102.444 203.105 102.496C202.611 103.108 202.07 103.414 201.484 103.414C201.263 103.414 201.042 103.336 200.82 103.18C200.443 102.867 200.254 102.47 200.254 101.988C200.254 101.819 200.286 101.643 200.352 101.461C200.352 101.461 200.423 101.324 200.566 101.051C201.517 99.5143 201.999 97.9974 202.012 96.5C202.012 96.3307 202.005 96.1549 201.992 95.9727C201.862 94.293 201.204 92.8607 200.02 91.6758C199.264 90.9076 198.574 90.5104 197.949 90.4844C197.897 90.7188 197.819 91.0768 197.715 91.5586C197.611 92.0143 197.533 92.3529 197.48 92.5742C196.712 95.9727 195.924 98.4857 195.117 100.113C194.948 100.465 194.733 100.823 194.473 101.188C193.197 102.958 191.589 103.844 189.648 103.844C188.711 103.844 187.917 103.596 187.266 103.102C185.807 102.008 185.078 99.5339 185.078 95.6797C185.078 94.026 185.104 92.9974 185.156 92.5938C185.156 92.5677 185.156 92.5482 185.156 92.5352C185.156 92.4049 185.15 92.2682 185.137 92.125C185.098 91.0964 184.941 90.582 184.668 90.582C184.564 90.582 184.453 90.6146 184.336 90.6797C183.542 91.1094 182.572 92.7109 181.426 95.4844C180.436 97.8672 179.837 99.7682 179.629 101.188C179.603 101.5 179.531 101.904 179.414 102.398C179.362 102.529 179.297 102.665 179.219 102.809C178.841 103.421 178.379 103.727 177.832 103.727C177.676 103.727 177.513 103.688 177.344 103.609C176.732 103.323 176.426 102.724 176.426 101.812L178.086 89.2539C178.125 89.0065 178.164 88.7786 178.203 88.5703C178.438 87.5026 178.945 86.9688 179.727 86.9688C179.896 86.9688 180.059 86.9883 180.215 87.0273C180.775 87.1836 181.055 87.737 181.055 88.6875C181.055 89.0391 181.035 89.4622 180.996 89.957C181.973 88.1732 183.372 87.2747 185.195 87.2617C185.833 87.2617 186.426 87.4635 186.973 87.8672C187.754 88.4401 188.145 89.2018 188.145 90.1523C188.145 90.4128 188.138 91.1875 188.125 92.4766C188.099 94.4818 188.086 95.8034 188.086 96.4414C188.086 97.2878 188.125 97.9844 188.203 98.5312C188.438 100.133 189.134 100.934 190.293 100.934C190.632 100.934 190.964 100.784 191.289 100.484C192.331 99.5469 193.398 96.8841 194.492 92.4961C195.143 89.8919 195.488 88.5247 195.527 88.3945Z" fill="#F5F1F1"/>
<path opacity="0.3" d="M103.233 45.229L89.5627 31.5591L81.9582 52.8335L103.233 45.229Z" fill="#FAFF00"/>
<path d="M72 62.7917L114.247 47.7035L87.0882 20.5447L72 62.7917ZM103.233 45.229L81.9582 52.8335L89.5627 31.5591L103.233 45.229ZM109.811 34.2146L126.68 17.346C127.03 16.9947 127.446 16.716 127.905 16.5259C128.363 16.3357 128.854 16.2378 129.35 16.2378C129.846 16.2378 130.338 16.3357 130.796 16.5259C131.254 16.716 131.67 16.9947 132.021 17.346L133.801 19.1264L137 15.9277L135.22 14.1473C133.66 12.5961 131.55 11.7253 129.35 11.7253C127.151 11.7253 125.04 12.5961 123.481 14.1473L106.612 31.0159L109.811 34.2146ZM94.5418 18.9454L97.7405 22.1441L99.5209 20.3636C101.072 18.8041 101.943 16.694 101.943 14.4943C101.943 12.2947 101.072 10.1845 99.5209 8.62502L97.7405 6.84461L94.5418 10.0735L96.3222 11.8539C97.7707 13.3024 97.7707 15.7165 96.3222 17.1649L94.5418 18.9454ZM117.446 32.2532L112.648 37.0512L115.846 40.2499L120.644 35.4519C120.995 35.1006 121.411 34.8219 121.869 34.6317C122.328 34.4416 122.819 34.3437 123.315 34.3437C123.811 34.3437 124.302 34.4416 124.761 34.6317C125.219 34.8219 125.635 35.1006 125.986 35.4519L130.844 40.3103L134.043 37.1116L129.184 32.2532C127.625 30.7019 125.515 29.8312 123.315 29.8312C121.115 29.8312 119.005 30.7019 117.446 32.2532ZM111.41 14.1473L100.577 24.9806L103.776 28.1793L114.609 17.346C116.16 15.7865 117.031 13.6763 117.031 11.4767C117.031 9.27706 116.16 7.16688 114.609 5.60738L109.811 0.809326L106.612 4.00803L111.41 8.80608C112.859 10.2847 112.859 12.6988 111.41 14.1473Z" fill="#FAFF00" fill-opacity="0.79"/>
</svg>
