<svg width="132" height="78" viewBox="0 0 132 78" fill="none" xmlns="http://www.w3.org/2000/svg">
<path d="M17.6208 20.1248C17.6208 20.1248 16.6164 20.5509 16.3911 23.0216" stroke="#CCDDE2" stroke-width="4.59" stroke-miterlimit="10"/>
<path d="M82.2312 25.3213C82.9196 25.3213 83.4778 24.7631 83.4778 24.0747C83.4778 23.3861 82.9196 22.8281 82.2312 22.8281C81.5428 22.8281 80.9846 23.3861 80.9846 24.0747C80.9846 24.7631 81.5428 25.3213 82.2312 25.3213Z" fill="#D7E8F0"/>
<path d="M81.7039 20.3389C82.8547 21.9928 82.2314 24.0749 82.2314 24.0749C82.2314 24.0749 84.0037 23.215 85.5863 24.4372" stroke="#CCDDE2" stroke-width="3.06" stroke-miterlimit="10"/>
<path d="M82.2316 28.175C82.2316 28.175 83.9212 24.8445 82.2316 24.0748C81.9199 23.9321 79.4042 22.7831 77.7502 24.4371" stroke="#CCDDE2" stroke-width="3.06" stroke-miterlimit="10"/>
<path d="M103.534 25.5522C104.222 25.5522 104.781 24.9941 104.781 24.3057C104.781 23.6172 104.222 23.0591 103.534 23.0591C102.846 23.0591 102.287 23.6172 102.287 24.3057C102.287 24.9941 102.846 25.5522 103.534 25.5522Z" fill="#D7E8F0"/>
<path d="M82.2312 6.01246C82.9196 6.01246 83.4778 5.45431 83.4778 4.76587C83.4778 4.07744 82.9196 3.51929 82.2312 3.51929C81.5428 3.51929 80.9846 4.07744 80.9846 4.76587C80.9846 5.45431 81.5428 6.01246 82.2312 6.01246Z" fill="#D7E8F0"/>
<path d="M81.7039 1.03174C82.8547 2.68572 82.2314 4.76774 82.2314 4.76774C82.2314 4.76774 84.0037 3.90789 85.5863 5.12819" stroke="#CCDDE2" stroke-width="3.06" stroke-miterlimit="10"/>
<path d="M82.2316 8.86606C82.2316 8.86606 83.9212 5.53558 82.2316 4.76586C81.9199 4.62317 79.4042 3.47421 77.7502 5.12631" stroke="#CCDDE2" stroke-width="3.06" stroke-miterlimit="10"/>
<path d="M103.534 6.24342C104.222 6.24342 104.781 5.68546 104.781 4.99683C104.781 4.30839 104.222 3.75024 103.534 3.75024C102.846 3.75024 102.287 4.30839 102.287 4.99683C102.287 5.68546 102.846 6.24342 103.534 6.24342Z" fill="#D7E8F0"/>
<path d="M50.6763 25.3213C51.3647 25.3213 51.9229 24.7631 51.9229 24.0747C51.9229 23.3861 51.3647 22.8281 50.6763 22.8281C49.9878 22.8281 49.4297 23.3861 49.4297 24.0747C49.4297 24.7631 49.9878 25.3213 50.6763 25.3213Z" fill="#D7E8F0"/>
<path d="M51.2059 20.3389C50.0551 21.9928 50.6765 24.0749 50.6765 24.0749C50.6765 24.0749 48.9042 23.215 47.3235 24.4372" stroke="#CCDDE2" stroke-width="3.06" stroke-miterlimit="10"/>
<path d="M50.6762 28.175C50.6762 28.175 48.9866 24.8445 50.6762 24.0748C50.9898 23.9321 53.5055 22.7831 55.1594 24.4371" stroke="#CCDDE2" stroke-width="3.06" stroke-miterlimit="10"/>
<path d="M50.6763 6.01246C51.3647 6.01246 51.9229 5.45431 51.9229 4.76587C51.9229 4.07744 51.3647 3.51929 50.6763 3.51929C49.9878 3.51929 49.4297 4.07744 49.4297 4.76587C49.4297 5.45431 49.9878 6.01246 50.6763 6.01246Z" fill="#D7E8F0"/>
<path d="M51.2059 1.03174C50.0551 2.68572 50.6765 4.76774 50.6765 4.76774C50.6765 4.76774 48.9042 3.90789 47.3235 5.12819" stroke="#CCDDE2" stroke-width="3.06" stroke-miterlimit="10"/>
<path d="M50.6762 8.86606C50.6762 8.86606 48.9866 5.53558 50.6762 4.76586C50.9898 4.62317 53.5055 3.47421 55.1594 5.12631" stroke="#CCDDE2" stroke-width="3.06" stroke-miterlimit="10"/>
<path d="M29.3738 6.24342C30.0624 6.24342 30.6204 5.68546 30.6204 4.99683C30.6204 4.30839 30.0624 3.75024 29.3738 3.75024C28.6853 3.75024 28.1272 4.30839 28.1272 4.99683C28.1272 5.68546 28.6853 6.24342 29.3738 6.24342Z" fill="#D7E8F0"/>
<path d="M32.4784 2.85474C30.4846 3.12884 29.3732 4.99683 29.3732 4.99683C29.3732 4.99683 28.81 3.11944 26.835 2.77588" stroke="#CCDDE2" stroke-width="3.06" stroke-miterlimit="10"/>
<path d="M26.3604 7.77535C26.3604 7.77535 27.6745 4.27778 29.3736 4.99682C29.6908 5.13012 32.2403 6.2021 32.1446 8.53757" stroke="#CCDDE2" stroke-width="3.06" stroke-miterlimit="10"/>
<path d="M51.6282 37.9158L51.646 37.8979" stroke="#CCDDE2" stroke-width="4.59" stroke-miterlimit="10"/>
<path d="M3.26838 28.648C3.26838 27.3601 3.25711 25.5541 3.24585 23.6692L3.27964 23.8757C3.27964 23.932 3.29091 23.979 3.29842 24.0184C3.30593 24.0578 3.31531 24.146 3.32094 24.2061C3.48803 25.6461 3.40355 27.1423 3.26838 28.648Z" stroke="#CCDDE2" stroke-width="4.59" stroke-miterlimit="10"/>
<path d="M69.2805 19.1711L29.1045 19.7175C29.9381 21.3339 31.4456 24.6343 31.8079 28.0399L54.468 34.9693C54.468 34.9693 17.5886 49.3295 34.5245 68.8749L34.9845 68.7942L35.0877 68.7773L35.0765 68.766C43.979 65.5914 50.0111 62.2628 53.9967 59.4148C56.2177 57.3215 58.356 55.2845 60.5582 53.1706C60.5916 53.1242 60.6222 53.076 60.6502 53.026C60.6633 53.026 60.6746 53.026 60.6859 53.026C65.2967 48.5935 70.2023 43.8137 76.7187 37.5001C83.6069 30.8391 78.874 19.1711 69.2805 19.1711ZM60.2747 52.8477C60.3329 52.8702 60.4887 52.9566 60.5807 53.0091C60.473 52.9671 60.3705 52.9128 60.2747 52.8477Z" fill="#2E2E2E"/>
<path d="M99.9894 67.0238C99.9903 69.1952 99.1309 71.2785 97.5993 72.8176C96.0675 74.3567 93.9883 75.2261 91.8171 75.2355C78.2455 75.2993 50.0941 75.4082 32.9742 75.3688C33.162 73.3149 32.9179 70.9062 32.717 69.4625C33.19 69.3805 33.6552 69.2592 34.1082 69.1002C34.4011 68.9969 34.6883 68.8993 34.9755 68.7942L35.0788 68.7773L35.0675 68.766C52.6943 62.4862 59.0568 55.5849 60.6431 53.026C60.6957 53.0673 60.2057 52.797 60.2677 52.8383C60.6593 53.1022 61.1352 53.2107 61.6025 53.1424L77.9357 50.8257C81.4418 50.3382 85.0144 50.781 88.2952 52.1104C91.5759 53.4396 94.4492 55.6085 96.627 58.3991C98.4762 60.7608 99.8167 64.0219 99.9894 67.0238Z" fill="white"/>
<path d="M32.6909 69.2035L34.9851 68.7942C34.6978 68.8993 34.4106 68.9969 34.1177 69.1002C33.6649 69.2592 33.1995 69.3805 32.7266 69.4625C32.7041 69.3687 32.6909 69.2842 32.6909 69.2035Z" fill="#3FBDF1"/>
<path d="M127.077 60.7609C127.077 60.7609 117.8 72.1472 110.088 73.3562C110.008 73.2733 109.933 73.1848 109.865 73.0915C109.553 72.6766 109.405 72.1772 109.193 71.7116C109.103 71.514 108.995 71.3255 108.87 71.1484L110.584 69.2861C110.985 68.8449 111.535 68.5661 112.128 68.5024C112.721 68.4388 113.317 68.5948 113.803 68.9406L114.413 69.3687C116.052 70.5308 118.14 68.5745 116.747 66.9412C116.362 66.4927 115.921 66.0962 115.433 65.7622C117.473 65.1596 122.191 63.6971 121.396 60.7533C120.545 57.6369 123.536 56.7057 123.708 56.8108C124.403 57.2601 125.034 57.7998 125.586 58.416C126.186 59.1268 126.688 59.9157 127.077 60.7609Z" fill="#3FBDF1"/>
<path d="M128.635 74.7361C128.635 74.7361 122.304 75.0627 117.082 74.9876H117.065C117.018 74.9876 116.973 74.9876 116.928 74.9876C116.588 74.9707 116.203 74.9594 115.788 74.9369C124.317 72.9863 128.796 66.7816 128.975 66.5413C129.814 70.4631 129.842 74.2498 128.635 74.7361Z" fill="#3FBDF1"/>
<path d="M48.8364 75.3743H51.0386" stroke="black" stroke-width="4.59" stroke-miterlimit="10"/>
<path d="M106.027 63.6426V58.7614C106.026 58.2564 106.125 57.7562 106.318 57.2893C106.51 56.8226 106.793 56.3983 107.15 56.041C107.506 55.6836 107.93 55.3999 108.397 55.2064C108.863 55.0128 109.363 54.9129 109.868 54.9127H113.247V53.8201C113.248 53.76 113.264 53.7013 113.294 53.6489C113.324 53.5965 113.366 53.5524 113.416 53.5203C113.467 53.4884 113.525 53.4694 113.585 53.4655C113.645 53.4613 113.705 53.4722 113.76 53.4972L117.098 55.1005C117.098 55.1005 122.199 54.6405 125.58 58.4197C128.961 62.1989 130.709 74.0621 128.524 74.9313C128.524 74.9313 122.291 75.0627 117.062 74.9876" stroke="black" stroke-width="4.59" stroke-miterlimit="10"/>
<path d="M96.627 58.3972C96.734 58.5324 106.025 60.0174 106.025 60.0174" stroke="black" stroke-width="4.59" stroke-miterlimit="10"/>
<path d="M117.03 56.7019C117.03 56.7019 117.426 57.9335 117.03 58.8083" stroke="black" stroke-width="4.59" stroke-miterlimit="10"/>
<path d="M127.072 60.7607C127.072 60.7607 117.686 72.2898 109.939 73.3805" stroke="black" stroke-width="4.59" stroke-miterlimit="10"/>
<path d="M115.786 74.9313C124.315 72.9807 128.794 66.7759 128.972 66.5356" stroke="black" stroke-width="4.59" stroke-miterlimit="10"/>
<path d="M117.897 64.8496H117.89" stroke="black" stroke-width="4.59" stroke-miterlimit="10"/>
<path d="M98.4895 71.6778C100.87 70.2528 107.578 68.169 109.191 71.7078C109.403 72.1753 109.555 72.6803 109.863 73.0915C111.209 74.8937 114.903 74.8806 116.924 74.9839C118.41 75.0589 119.905 75.0683 121.39 75.0008" stroke="black" stroke-width="4.59" stroke-miterlimit="10"/>
<path d="M123.701 56.8222C123.53 56.7095 120.54 57.6426 121.388 60.7647C122.192 63.7084 117.47 65.169 115.429 65.7754C115.918 66.1083 116.36 66.5048 116.743 66.9544C118.135 68.5877 116.047 70.5421 114.412 69.38L113.794 68.9501C113.308 68.6041 112.712 68.4482 112.119 68.5119C111.525 68.5755 110.976 68.8543 110.574 69.2955L108.654 71.3888" stroke="black" stroke-width="4.59" stroke-miterlimit="10"/>
<path d="M86.1645 59.6794L34.5176 68.8749" stroke="black" stroke-width="4.59" stroke-miterlimit="10"/>
<path d="M60.6432 53.0354C60.9459 53.1586 61.2759 53.198 61.5988 53.1499L77.9321 50.8332C81.4381 50.3453 85.011 50.7884 88.2917 52.1176C91.5724 53.4469 94.4457 55.6159 96.6233 58.4066C98.4688 60.7702 99.8149 64.0388 99.982 67.0426C99.978 69.2074 99.1191 71.2832 97.5921 72.8176C96.0648 74.3522 93.9933 75.2212 91.8285 75.2355C78.2569 75.2993 50.1055 75.4082 32.9856 75.3688" stroke="white" stroke-opacity="0.5" stroke-width="4.59" stroke-miterlimit="10"/>
<path d="M32.9764 75.3762C25.0914 75.3574 19.5437 75.3067 18.8416 75.2091C18.8416 74.2085 19.9173 73.144 21.239 72.271C22.5607 71.398 24.1264 70.7466 25.1101 70.5626L32.6835 69.2109L34.5177 68.8823" stroke="black" stroke-width="4.59" stroke-miterlimit="10"/>
<path d="M34.5172 68.875C17.5813 49.3295 54.4682 34.9694 54.4682 34.9694L46.6808 32.587C44.0168 31.7722 41.3246 31.0457 38.6643 30.2084C37.3182 29.7859 31.8231 28.04 31.8231 28.04L29.5496 28.3084C28.7178 28.407 27.8746 28.3289 27.0749 28.0796C26.2753 27.8301 25.5371 27.415 24.9087 26.861L14.0668 16.7644C13.9225 16.6292 13.8145 16.4597 13.7527 16.2718C13.6912 16.0837 13.6778 15.8832 13.7139 15.6887C13.7464 15.5174 13.8168 15.3556 13.9196 15.2148C14.0225 15.074 14.1554 14.958 14.3088 14.8752C14.4622 14.7922 14.6321 14.7447 14.8061 14.7357C14.9804 14.7267 15.1542 14.7565 15.3153 14.8232L25.1472 18.8896C26.5156 19.4551 27.9846 19.7361 29.4651 19.7157L69.2826 19.1712C78.8817 19.1712 83.6089 30.8392 76.7189 37.5114C66.2412 47.6605 59.9351 53.8446 52.2923 61.0163" stroke="black" stroke-width="4.59" stroke-miterlimit="10"/>
<path d="M3.24585 24.4184C3.24641 24.409 3.24641 24.3996 3.24585 24.3902C3.2466 24.3801 3.2466 24.3701 3.24585 24.3602V24.3376" stroke="#CCDDE2" stroke-width="4.59" stroke-miterlimit="10"/>
<path d="M3.29235 31.175L3.11963 31.192" stroke="#CCDDE2" stroke-width="4.59" stroke-miterlimit="10"/>
</svg>
