<svg width="66" height="37" viewBox="0 0 66 37" fill="none" xmlns="http://www.w3.org/2000/svg">
<g filter="url(#filter0_d)">
<path d="M14.3516 17.999C14.3516 18.0072 14.3475 18.0234 14.3394 18.0479C14.2498 18.6826 13.9243 19 13.3628 19C13.1675 19 12.9966 18.9512 12.8501 18.8535C12.5246 18.6419 12.3618 18.2961 12.3618 17.8159L13.1919 11.4072H7.58887C7.27148 14.0033 6.98258 16.2005 6.72217 17.999C6.60824 18.6582 6.27458 18.9919 5.72119 19C5.54215 19 5.38346 18.9552 5.24512 18.8657C4.90332 18.646 4.73242 18.292 4.73242 17.8037C4.78125 17.3805 5.25326 13.8405 6.14844 7.18359C6.70182 3.09017 6.97852 1.03125 6.97852 1.00684C6.97852 0.884766 7.02734 0.74235 7.125 0.57959C7.34473 0.229655 7.61735 0.0546875 7.94287 0.0546875C8.09749 0.0546875 8.24398 0.0953776 8.38232 0.176758C8.69971 0.363932 8.87061 0.640625 8.89502 1.00684L7.84521 9.41748C9.15544 9.4012 11.0272 9.39307 13.4604 9.39307C13.5418 8.73389 13.6883 7.60677 13.8999 6.01172C14.1847 3.90397 14.4045 2.23568 14.5591 1.00684C14.5754 0.884766 14.6079 0.762695 14.6567 0.640625C14.8358 0.25 15.1369 0.0546875 15.5601 0.0546875C15.7147 0.0546875 15.8652 0.0953776 16.0117 0.176758C16.3372 0.363932 16.5122 0.640625 16.5366 1.00684L15.4746 9.39307H18.5508C18.738 9.39307 18.9129 9.42562 19.0757 9.49072C19.4826 9.66976 19.686 9.97493 19.686 10.4062C19.686 10.5365 19.6535 10.6667 19.5884 10.7969C19.4256 11.1305 19.1082 11.334 18.6362 11.4072H15.2305C14.7259 15.3298 14.4329 17.527 14.3516 17.999ZM25.8384 12.396C25.9035 11.8996 25.9849 10.9678 26.0825 9.60059C26.0907 9.53548 26.0988 9.47445 26.1069 9.41748C26.2046 8.90479 26.5179 8.6403 27.0469 8.62402C27.0713 8.62402 27.0998 8.62809 27.1323 8.63623C27.5718 8.68506 27.7915 9.02686 27.7915 9.66162C27.7915 9.82438 27.7752 10.0685 27.7427 10.394C27.7264 10.5405 27.7142 10.6504 27.7061 10.7236C27.5677 12.929 27.4985 14.3247 27.4985 14.9106C27.4985 15.1222 27.5107 15.3338 27.5352 15.5454C27.6654 16.5789 28.0275 17.0957 28.6216 17.0957C28.703 17.0957 28.7884 17.0876 28.8779 17.0713C29.1139 17.0143 29.4598 16.8231 29.9155 16.4976C30.3631 16.172 30.7212 16.0093 30.9897 16.0093C31.0955 16.0093 31.1973 16.0418 31.2949 16.1069C31.5472 16.2616 31.6733 16.5016 31.6733 16.8271C31.6733 16.8516 31.6693 16.8841 31.6611 16.9248C31.6042 17.3154 31.2664 17.7183 30.6479 18.1333C29.8911 18.646 29.1383 18.9023 28.3896 18.9023C27.3805 18.8942 26.6603 18.4344 26.229 17.5229C25.5129 18.4019 24.5322 18.8454 23.2871 18.8535C22.9941 18.8535 22.7174 18.8169 22.457 18.7437C21.0329 18.3123 20.3208 16.7458 20.3208 14.0439C20.3208 12.7419 20.4632 11.4316 20.748 10.1133C20.7643 10.0482 20.7806 9.979 20.7969 9.90576C21.0492 9.01058 21.4072 8.56299 21.8711 8.56299C22.4489 8.57113 22.7459 8.88851 22.7622 9.51514C22.7622 9.64535 22.7256 9.93424 22.6523 10.3818C22.3675 12.2048 22.2251 13.5231 22.2251 14.3369C22.2251 16.0296 22.6564 16.8841 23.519 16.9004C24.634 16.8923 25.4071 15.3908 25.8384 12.396ZM29.7568 15.228C29.7568 14.9513 29.7731 14.6584 29.8057 14.3491C29.9766 12.9494 30.416 11.7083 31.124 10.626C31.9867 9.30762 33.0243 8.64844 34.2368 8.64844C34.7658 8.64844 35.2297 8.75016 35.6284 8.95361C35.7912 8.7583 36.0109 8.65658 36.2876 8.64844C36.8247 8.65658 37.1014 9.00244 37.1177 9.68604C37.1177 9.71045 36.6701 12.9331 35.7749 19.354C37.5734 18.0112 38.7127 17.1405 39.1929 16.7417C39.494 16.4813 39.8073 16.347 40.1328 16.3389C40.2467 16.3389 40.3566 16.3755 40.4624 16.4487C40.6984 16.6115 40.8164 16.819 40.8164 17.0713C40.8083 17.4538 40.5845 17.8322 40.145 18.2065C39.3312 18.8901 37.7484 20.1312 35.3965 21.9297L34.835 25.9702C34.6966 26.8979 34.3019 27.606 33.6509 28.0942C33.1219 28.4767 32.54 28.668 31.9053 28.668C31.1566 28.6598 30.4933 28.375 29.9155 27.8135C29.3621 27.252 29.0854 26.6253 29.0854 25.9336C29.0854 25.25 29.2401 24.6844 29.5493 24.2368C29.7446 23.952 30.123 23.6021 30.6846 23.187L30.709 23.1748C30.7171 23.1667 30.7415 23.1463 30.7822 23.1138C31.3438 22.6987 32.3162 21.9704 33.6997 20.9287L34.0537 18.5605C33.5085 18.9268 32.9388 19.1139 32.3447 19.1221C31.8239 19.1221 31.3722 18.9878 30.9897 18.7192C30.1678 18.117 29.7568 16.9533 29.7568 15.228ZM34.0903 16.0581C34.2043 15.8953 34.3426 15.46 34.5054 14.752C34.839 13.3115 35.0791 11.863 35.2256 10.4062C35.0384 10.3086 34.8472 10.2557 34.6519 10.2476C34.5054 10.2476 34.3548 10.2679 34.2002 10.3086C33.4434 10.5202 32.8005 11.2201 32.2715 12.4082C31.8076 13.4743 31.5757 14.5444 31.5757 15.6187C31.5757 15.7326 31.5798 15.8465 31.5879 15.9604C31.6449 16.8149 31.8971 17.2422 32.3447 17.2422C32.5726 17.2422 32.8493 17.1283 33.1748 16.9004C33.5573 16.6318 33.8625 16.3511 34.0903 16.0581ZM33.0894 24.9937C33.0894 24.9937 33.1585 24.4972 33.2969 23.5044C33.2643 23.5288 33.2277 23.5573 33.187 23.5898C32.3813 24.2083 31.9704 24.5257 31.9541 24.542C31.3682 24.9814 31.0711 25.3965 31.063 25.7871C31.063 25.9255 31.0874 26.0557 31.1362 26.1777C31.2746 26.5358 31.5309 26.7148 31.9053 26.7148C32.0599 26.7148 32.1982 26.6904 32.3203 26.6416C32.7191 26.4707 32.9754 25.9214 33.0894 24.9937ZM39.2051 15.228C39.2051 14.9513 39.2214 14.6584 39.2539 14.3491C39.4248 12.9494 39.8643 11.7083 40.5723 10.626C41.4349 9.30762 42.4725 8.64844 43.6851 8.64844C44.214 8.64844 44.6779 8.75016 45.0767 8.95361C45.2394 8.7583 45.4591 8.65658 45.7358 8.64844C46.2729 8.65658 46.5496 9.00244 46.5659 9.68604C46.5659 9.71045 46.1183 12.9331 45.2231 19.354C47.0216 18.0112 48.161 17.1405 48.6411 16.7417C48.9422 16.4813 49.2555 16.347 49.5811 16.3389C49.695 16.3389 49.8049 16.3755 49.9106 16.4487C50.1466 16.6115 50.2646 16.819 50.2646 17.0713C50.2565 17.4538 50.0327 17.8322 49.5933 18.2065C48.7795 18.8901 47.1966 20.1312 44.8447 21.9297L44.2832 25.9702C44.1449 26.8979 43.7502 27.606 43.0991 28.0942C42.5701 28.4767 41.9883 28.668 41.3535 28.668C40.6048 28.6598 39.9416 28.375 39.3638 27.8135C38.8104 27.252 38.5337 26.6253 38.5337 25.9336C38.5337 25.25 38.6883 24.6844 38.9976 24.2368C39.1929 23.952 39.5713 23.6021 40.1328 23.187L40.1572 23.1748C40.1654 23.1667 40.1898 23.1463 40.2305 23.1138C40.792 22.6987 41.7645 21.9704 43.1479 20.9287L43.502 18.5605C42.9567 18.9268 42.387 19.1139 41.793 19.1221C41.2721 19.1221 40.8205 18.9878 40.438 18.7192C39.616 18.117 39.2051 16.9533 39.2051 15.228ZM43.5386 16.0581C43.6525 15.8953 43.7909 15.46 43.9536 14.752C44.2873 13.3115 44.5273 11.863 44.6738 10.4062C44.4867 10.3086 44.2954 10.2557 44.1001 10.2476C43.9536 10.2476 43.8031 10.2679 43.6484 10.3086C42.8916 10.5202 42.2487 11.2201 41.7197 12.4082C41.2559 13.4743 41.0239 14.5444 41.0239 15.6187C41.0239 15.7326 41.028 15.8465 41.0361 15.9604C41.0931 16.8149 41.3454 17.2422 41.793 17.2422C42.0208 17.2422 42.2975 17.1283 42.623 16.9004C43.0055 16.6318 43.3107 16.3511 43.5386 16.0581ZM42.5376 24.9937C42.5376 24.9937 42.6068 24.4972 42.7451 23.5044C42.7126 23.5288 42.6759 23.5573 42.6353 23.5898C41.8296 24.2083 41.4186 24.5257 41.4023 24.542C40.8164 24.9814 40.5194 25.3965 40.5112 25.7871C40.5112 25.9255 40.5356 26.0557 40.5845 26.1777C40.7228 26.5358 40.9792 26.7148 41.3535 26.7148C41.5081 26.7148 41.6465 26.6904 41.7686 26.6416C42.1673 26.4707 42.4237 25.9214 42.5376 24.9937ZM51.1191 9.53955C51.1191 9.77555 51.0785 10.2842 50.9971 11.0654C50.7448 13.3766 50.6187 14.813 50.6187 15.3745C50.6187 15.7489 50.696 16.0988 50.8506 16.4243C51.0785 16.9126 51.3836 17.1567 51.7661 17.1567C51.8475 17.1567 51.9329 17.1486 52.0225 17.1323C52.2585 17.0754 52.6003 16.8841 53.0479 16.5586C53.4873 16.2331 53.8413 16.0703 54.1099 16.0703C54.2238 16.0703 54.3377 16.111 54.4517 16.1924C54.6795 16.3551 54.7935 16.5708 54.7935 16.8394C54.7609 17.2544 54.4395 17.6938 53.8291 18.1577C53.0804 18.6785 52.2951 18.939 51.4731 18.939C50.7814 18.939 50.2077 18.6989 49.752 18.2188C49.0684 17.4863 48.7266 16.3226 48.7266 14.7275C48.7266 14.1823 48.8364 13.1162 49.0562 11.5293C49.1538 10.7887 49.223 10.2435 49.2637 9.89355C49.2718 9.82031 49.2799 9.74707 49.2881 9.67383C49.4183 8.86003 49.752 8.45312 50.2891 8.45312C50.3786 8.45312 50.4681 8.46126 50.5576 8.47754C50.932 8.56706 51.1191 8.92106 51.1191 9.53955ZM49.7275 6.34131C49.7275 6.19482 49.7601 6.05648 49.8252 5.92627C49.988 5.60889 50.2524 5.4502 50.6187 5.4502C50.7651 5.4502 50.9035 5.48275 51.0337 5.54785C51.3511 5.71061 51.5098 5.9751 51.5098 6.34131C51.5098 6.48779 51.4772 6.62614 51.4121 6.75635C51.2493 7.07373 50.9849 7.23242 50.6187 7.23242C50.4722 7.23242 50.3338 7.19987 50.2036 7.13477C49.8862 6.97201 49.7275 6.70752 49.7275 6.34131ZM53.7437 15.2646C53.7437 14.988 53.7599 14.695 53.7925 14.3857C53.9634 12.9941 54.4028 11.7572 55.1108 10.6748C55.9735 9.34831 57.0111 8.68506 58.2236 8.68506C58.5492 8.68506 58.8625 8.72575 59.1636 8.80713C60.2378 9.11637 60.7749 9.87321 60.7749 11.0776C60.7749 11.1672 60.7708 11.2607 60.7627 11.3584C60.6813 12.4489 60.193 13.3644 59.2979 14.105C58.4189 14.8374 57.3976 15.2036 56.2339 15.2036C56.0142 15.2036 55.7985 15.1833 55.5869 15.1426C55.5706 15.2646 55.5625 15.4355 55.5625 15.6553C55.5625 16.1273 55.6439 16.4935 55.8066 16.7539C56.0264 17.0876 56.478 17.2829 57.1616 17.3398C57.4627 17.3398 57.7598 17.3073 58.0527 17.2422C58.5654 17.1201 59.1717 16.8312 59.8716 16.3755C60.3273 16.0744 60.6488 15.9238 60.8359 15.9238C60.9417 15.9238 61.0516 15.9564 61.1655 16.0215C61.4259 16.1761 61.5562 16.3999 61.5562 16.6929C61.5562 16.7905 61.5358 16.8963 61.4951 17.0103C61.2754 17.5392 60.6162 18.0397 59.5176 18.5117C58.5003 18.9512 57.6051 19.1709 56.832 19.1709C56.5391 19.1709 56.2664 19.1465 56.0142 19.0977C54.5005 18.7884 53.7437 17.5107 53.7437 15.2646ZM57.6621 10.6016C56.9215 11.098 56.3397 12.042 55.9165 13.4336C56.12 13.4824 56.3153 13.5068 56.5024 13.5068C57.1779 13.5068 57.7679 13.2993 58.2725 12.8843C58.834 12.4285 59.1147 11.8874 59.1147 11.2607C59.1147 10.6341 58.9154 10.3167 58.5166 10.3086C58.2318 10.3167 57.9469 10.4144 57.6621 10.6016Z" fill="white"/>
</g>
<defs>
<filter id="filter0_d" x="0.732422" y="0.0546875" width="64.8237" height="36.6133" filterUnits="userSpaceOnUse" color-interpolation-filters="sRGB">
<feFlood flood-opacity="0" result="BackgroundImageFix"/>
<feColorMatrix in="SourceAlpha" type="matrix" values="0 0 0 0 0 0 0 0 0 0 0 0 0 0 0 0 0 0 127 0" result="hardAlpha"/>
<feOffset dy="4"/>
<feGaussianBlur stdDeviation="2"/>
<feComposite in2="hardAlpha" operator="out"/>
<feColorMatrix type="matrix" values="0 0 0 0 0 0 0 0 0 0 0 0 0 0 0 0 0 0 0.25 0"/>
<feBlend mode="normal" in2="BackgroundImageFix" result="effect1_dropShadow"/>
<feBlend mode="normal" in="SourceGraphic" in2="effect1_dropShadow" result="shape"/>
</filter>
</defs>
</svg>
