<svg width="375" height="812" viewBox="0 0 375 812" fill="none" xmlns="http://www.w3.org/2000/svg">
<rect width="375" height="812" fill="#DE5295"/>
<path d="M192.205 438.564L194.447 437.51L208.163 466.572C208.829 467.985 210.183 468.944 211.748 469.092L211.906 469.323L208.311 471.01C208.173 471.073 208.025 471.084 207.888 471.042L207.761 471C206.862 470.704 206.122 470.061 205.72 469.207L191.803 439.724C191.581 439.281 191.771 438.764 192.205 438.564Z" fill="#00276F"/>
<path d="M230.878 403.167L205.466 433.631L196.171 439.154L209.368 467.11C209.802 468.037 210.923 468.438 211.854 468.006C212.552 467.679 212.975 466.952 212.922 466.193L211.568 447.64L239.402 424.829" fill="#F8BD86"/>
<path d="M212.848 446.217L213.429 467.152C213.45 468.016 212.89 468.86 212.012 469.271C210.838 469.819 209.326 469.06 208.84 468.037L194.426 437.51L205.805 433.42C205.826 433.42 204.726 440.461 212.848 446.217Z" fill="#E7E7E7"/>
<path d="M213.821 450.286C212.086 449.896 210.31 449.717 208.533 449.748" stroke="#00276F" stroke-miterlimit="10" stroke-linecap="round"/>
<path d="M213.525 453.09C211.642 452.731 210.648 452.7 209.062 452.7" stroke="#00276F" stroke-miterlimit="10" stroke-linecap="round"/>
<path d="M213.429 455.388C212.181 455.124 210.616 455.114 209.347 455.051" stroke="#00276F" stroke-miterlimit="10" stroke-linecap="round"/>
<path d="M244.266 296.395L247.915 304.796C249.099 307.526 250.865 309.972 253.086 311.964C263.08 320.903 288.344 356.09 288.619 370.921C288.957 388.841 233.744 446.586 233.744 446.586L212.192 422.478L255.592 370.858L217.903 334.975C217.903 334.975 200.697 328.925 207.624 298.229" fill="#00224C"/>
<path d="M218.527 422.362L259.156 372.017C260.647 370.383 260.446 367.853 258.723 366.462L224.184 331.897C224.184 331.897 206.968 325.604 213.884 293.738" stroke="#15489B" stroke-width="0.75" stroke-miterlimit="10" stroke-dasharray="2 2"/>
<path d="M218.4 426.073L261.514 373.23C263.629 370.911 263.355 367.295 260.901 365.324C260.901 365.324 224.057 329.294 223.92 329.241C222.09 328.451 210.881 322.063 217.374 292.136" stroke="#15489B" stroke-width="0.75" stroke-miterlimit="10"/>
<path d="M216.031 418.072L208.914 424.65L232.211 448.663L238.757 441.758L216.031 418.072Z" fill="#15489B"/>
<path d="M260.817 479.609V477.143H293.039C294.604 477.143 296.053 476.321 296.857 474.982L297.132 474.929V478.893C297.132 479.04 297.079 479.177 296.973 479.293L296.878 479.399C296.233 480.084 295.334 480.474 294.382 480.474H261.684C261.208 480.484 260.817 480.094 260.817 479.609Z" fill="#00276F"/>
<path d="M248.687 434.504L261.99 465.558L263.048 476.289H294.044C295.07 476.289 295.905 475.456 295.905 474.434C295.905 473.664 295.429 472.979 294.71 472.694L277.293 466.011L268.441 431.194" fill="#F8BD86"/>
<path d="M276.563 464.251L295.81 472.631C296.603 472.979 297.132 473.843 297.132 474.803C297.132 476.089 295.799 477.132 294.668 477.132H260.827L261.959 465.126C261.948 465.136 267.87 469.121 276.563 464.251Z" fill="#E7E7E7"/>
<path d="M280.666 465.105C279.577 466.507 278.657 468.035 277.927 469.648" stroke="#00276F" stroke-miterlimit="10" stroke-linecap="round"/>
<path d="M283.088 466.57C281.956 468.109 281.512 468.994 280.835 470.428" stroke="#00276F" stroke-miterlimit="10" stroke-linecap="round"/>
<path d="M285.129 467.635C284.367 468.646 283.68 470.059 283.077 471.176" stroke="#00276F" stroke-miterlimit="10" stroke-linecap="round"/>
<path d="M195.198 302.802C195.198 302.802 193.844 321.776 202.22 339.696C210.606 357.616 244.51 461.69 244.51 461.69L274.585 448.798L238.101 324.938C238.101 324.938 236.896 309.485 230.625 289.13" fill="#00276F"/>
<path d="M252.938 458.084L211.24 339.527C211.24 339.527 202.759 324.769 202.759 313.522" stroke="#1B5ABF" stroke-width="0.75" stroke-miterlimit="10"/>
<path d="M250.59 459.086L207.877 339.517C207.877 339.517 199.396 324.759 199.396 313.511" stroke="#1B5ABF" stroke-width="0.75" stroke-miterlimit="10" stroke-dasharray="2 2"/>
<path d="M241.908 453.741L244.806 463.028L275.474 450.726L272.64 442.177L241.908 453.741Z" fill="#1B5ABF"/>
<path d="M205.181 326.709C205.181 326.709 213.704 322.461 215.914 312.794" stroke="#1B5ABF" stroke-width="0.75" stroke-miterlimit="10"/>
<path d="M238.186 328.217C238.186 328.217 241.58 324.337 241.252 321.164C240.354 312.426 238.186 301.357 238.186 301.357" stroke="#00276F" stroke-width="0.75" stroke-miterlimit="10"/>
<path d="M280.486 246.543L272.957 238.922C272.957 238.922 280 221.286 280.793 221.455C282.411 221.803 279.492 229.297 279.492 229.297C279.492 229.297 283.627 221.276 284.198 221.803C285.235 222.751 282.263 230.963 282.263 230.963C282.263 230.963 285.869 223.025 286.567 223.858C287.276 224.702 283.987 237.024 283.987 237.024L280.486 246.543Z" fill="#F8BD86"/>
<path d="M271.519 239.744L272.925 237.024C272.925 237.024 273.369 232.386 274.554 229.002C275.749 225.618 276.626 223.995 277.25 223.995C277.874 223.995 277.25 229.255 277.25 229.255C277.25 229.255 278.329 233.777 276.764 236.718" fill="#F8BD86"/>
<path d="M280.931 238.711L275.685 233.83C275.463 233.63 275.379 233.293 275.495 233.008L281.449 217.417C281.449 217.417 281.724 217.481 281.914 217.533C282.02 217.565 282.147 217.586 282.252 217.67L287.995 222.656C288.217 222.857 288.301 223.194 288.185 223.479L282.231 238.521C282.147 238.742 281.946 238.879 281.745 238.89L280.931 238.711Z" fill="#0A172B"/>
<path d="M280.761 238.616L275.083 233.683C274.86 233.482 274.776 233.145 274.892 232.86L280.878 217.744C281.005 217.417 281.385 217.312 281.65 217.533L287.392 222.519C287.614 222.72 287.699 223.057 287.582 223.342L281.629 238.384C281.481 238.742 281.057 238.858 280.761 238.616Z" fill="#00276F"/>
<path d="M275.326 231.775L281.956 237.541L287.17 224.375L280.539 218.619L275.326 231.775Z" fill="#8DADE0"/>
<path d="M278.287 235.296C278.234 235.506 278.065 235.601 277.917 235.517C277.758 235.433 277.673 235.19 277.726 234.979C277.779 234.768 277.948 234.674 278.096 234.758C278.255 234.842 278.34 235.085 278.287 235.296Z" fill="#8DADE0"/>
<path d="M283.49 220.074L284.642 221.096" stroke="#8DADE0" stroke-width="0.25" stroke-miterlimit="10" stroke-linecap="round"/>
<path opacity="0.55" d="M280.084 222.646C280.032 222.846 279.873 222.941 279.735 222.857C279.587 222.772 279.513 222.551 279.556 222.351C279.609 222.15 279.767 222.056 279.905 222.14C280.063 222.224 280.137 222.446 280.084 222.646Z" fill="#8DADE0"/>
<path opacity="0.51" d="M285.478 224.838L281.988 221.803C281.618 221.476 281.057 221.634 280.867 222.108L280.433 223.215L280.084 223.278L284.357 226.968C284.727 227.295 285.287 227.136 285.478 226.662L285.742 225.987C285.901 225.587 285.795 225.113 285.478 224.838Z" fill="white"/>
<path d="M281.533 222.541L285.055 225.587" stroke="#8DADE0" stroke-width="0.25" stroke-miterlimit="10" stroke-linecap="round"/>
<path d="M281.216 223.373L283.236 225.123" stroke="#8DADE0" stroke-width="0.25" stroke-miterlimit="10" stroke-linecap="round"/>
<path opacity="0.55" d="M276.69 230.731C276.637 230.931 276.478 231.026 276.341 230.942C276.193 230.857 276.119 230.636 276.161 230.436C276.203 230.235 276.373 230.141 276.51 230.225C276.658 230.299 276.732 230.531 276.69 230.731Z" fill="#8DADE0"/>
<path opacity="0.51" d="M282.073 232.924L278.583 229.888C278.213 229.561 277.652 229.719 277.462 230.193L277.028 231.3L276.679 231.363L280.952 235.053C281.322 235.38 281.882 235.222 282.073 234.747L282.337 234.073C282.496 233.661 282.39 233.198 282.073 232.924Z" fill="white"/>
<path d="M278.139 230.615L281.66 233.672" stroke="#8DADE0" stroke-width="0.25" stroke-miterlimit="10" stroke-linecap="round"/>
<path d="M277.811 231.458L279.831 233.208" stroke="#8DADE0" stroke-width="0.25" stroke-miterlimit="10" stroke-linecap="round"/>
<path opacity="0.55" d="M284.093 231.269C284.04 231.469 283.881 231.564 283.744 231.479C283.595 231.395 283.521 231.174 283.564 230.974C283.617 230.773 283.775 230.678 283.913 230.763C284.061 230.847 284.135 231.068 284.093 231.269Z" fill="#8DADE0"/>
<path opacity="0.51" d="M283.447 228.496L279.672 225.218C279.355 224.944 278.889 225.081 278.731 225.481L278.318 226.525C278.202 226.809 278.287 227.147 278.509 227.337L283.162 231.353L283.046 230.794L283.638 229.318C283.744 229.023 283.669 228.686 283.447 228.496Z" fill="white"/>
<path d="M279.344 226.061L282.866 229.108" stroke="#8DADE0" stroke-width="0.25" stroke-miterlimit="10" stroke-linecap="round"/>
<path d="M279.027 226.894L281.047 228.644" stroke="#8DADE0" stroke-width="0.25" stroke-miterlimit="10" stroke-linecap="round"/>
<path d="M281.343 228.928L282.126 229.603" stroke="#8DADE0" stroke-width="0.25" stroke-miterlimit="10" stroke-linecap="round"/>
<path d="M287.307 220.316L288.619 221.613L275.357 237.256L274.057 235.96L287.307 220.316Z" fill="url(#paint0_linear_68:20)"/>
<path d="M287.202 218.862L287.529 219.188L274.268 234.832L273.94 234.505L287.202 218.862Z" fill="url(#paint1_linear_68:20)"/>
<path d="M249.448 250.095L256.883 261.996L272.925 237.024C272.925 237.024 284.367 238.089 283.056 243.739C276.7 259.741 271.519 284.059 259.019 285.292C245.282 286.642 227.78 261.048 227.78 261.048" fill="#F8BD86"/>
<path d="M256.883 261.996C256.883 261.996 253.562 266.582 251.098 273.36" stroke="#D34F9B" stroke-width="0.75" stroke-miterlimit="10"/>
<path d="M281.755 246.922C281.755 246.922 286.366 235.717 286.937 233.588C287.498 231.458 288.978 225.587 288.026 225.587C287.085 225.587 284.854 231.216 284.611 232.154C282.728 233.156 280.053 234.969 280.085 238.226" fill="#F8BD86"/>
<path d="M220.652 218.619C220.652 218.619 236.346 220.074 253.657 255.05C250.263 259.972 232.644 270.355 227.769 270.261C222.492 262.576 217.533 242.896 217.533 242.896" fill="white"/>
<path d="M236.134 249.315C231.259 230.12 223.92 220.896 223.92 220.896L207.824 216.29L194.796 232.418C181.704 272.084 194.225 315.714 194.225 315.714C203.245 319.551 240.639 311.751 249.755 302.664C249.744 302.664 240.248 265.485 236.134 249.315Z" fill="white"/>
<path d="M240.132 265.201C240.132 265.201 233.3 234.969 229.8 229.266" stroke="#225BAF" stroke-width="0.75" stroke-miterlimit="10"/>
<path d="M179.071 246.543C179.071 246.543 171.192 267.667 173.275 280.064C176.469 299.112 207.264 317.306 207.264 317.306C207.264 317.306 206.217 322.429 208.396 324.864C213.81 320.837 215.555 315.936 215.555 315.936L212.975 311.667C212.975 311.667 196.097 285.187 196.594 276.469C196.943 270.303 206.534 239.67 206.534 239.67" fill="#F8BD86"/>
<path d="M207.824 216.29C207.824 216.29 190.724 221.065 183.48 233.999C174.703 249.663 172.969 262.987 172.969 262.987C180.456 270.45 195.547 273.687 203.827 271.979L209.728 242" fill="white"/>
<path d="M203.816 271.979L209.252 244.361" stroke="#225BAF" stroke-width="0.75" stroke-miterlimit="10"/>
<path d="M225.548 207.604L216.866 192.593L210.056 204.578L210.511 207.33L207.824 216.29C210.511 224.227 221.614 225.123 223.92 220.896L225.548 207.604Z" fill="#F8BD86"/>
<path d="M233.205 187.47C234.622 192.814 235.003 210.945 230.699 212.864C226.394 214.772 217.712 212.948 215.174 209.712C212.975 206.897 210.891 191.813 214.846 188.134C218.812 184.445 231.217 179.986 233.205 187.47Z" fill="#F8BD86"/>
<path d="M220.07 190.98C224.121 191.676 227.642 190.558 230.783 189.536C233.924 188.513 236.874 186.532 238.397 183.612C239.666 181.177 239.751 177.74 236.652 176.402C235.912 176.085 235.087 175.959 234.283 176.012C231.703 176.191 229.652 177.751 227.695 179.269C228.509 175.232 220.842 177.076 219.246 178.531C218.749 178.995 218.41 179.575 217.807 179.943C215.988 181.029 213.673 181.103 211.737 181.936C209.347 182.969 207.454 185.088 206.693 187.575C206.058 189.652 205.286 193.099 206.978 195.597C207.793 196.788 208.575 198.095 208.808 199.508L210.151 205.274C210.151 205.274 212.869 203.334 213.165 203.103C214.233 202.259 214.635 201.163 215.491 200.13C217.691 197.495 219.182 193.679 220.07 190.98Z" fill="#292A2D"/>
<path d="M217.395 198.791C216.877 197.843 216.189 196.767 215.185 196.683C214.667 196.63 214.169 196.883 213.799 197.242C211.875 199.065 211.727 202.586 213.746 204.431C214.593 205.2 215.766 205.548 216.549 204.484L217.554 199.466C217.628 199.245 217.511 199.002 217.395 198.791Z" fill="#F8BD86"/>
<path d="M224.808 213.886C224.808 213.886 217.86 213.633 214.941 209.343" stroke="#D34F9B" stroke-width="0.75" stroke-miterlimit="10"/>
<path d="M229.62 196.198C229.62 196.198 232.443 200.994 231.566 202.312C230.688 203.63 228.372 202.839 228.372 202.839" stroke="#D34F9B" stroke-width="0.75" stroke-miterlimit="10"/>
<path d="M226.183 196.029C226.299 196.367 226.267 196.831 226.289 197.105C226.32 197.6 225.792 197.864 225.348 197.716C224.512 197.442 224.671 195.481 225.696 195.597C225.961 195.629 226.098 195.808 226.183 196.029Z" fill="#00276F"/>
<path d="M233.11 196.029C233.226 196.367 233.194 196.831 233.215 197.105C233.247 197.6 232.718 197.864 232.274 197.716C231.439 197.442 231.597 195.481 232.623 195.597C232.888 195.629 233.036 195.808 233.11 196.029Z" fill="#00276F"/>
<path d="M230.963 206.497L223.825 204.462C223.825 204.462 223.539 209.891 227.864 210.692C230.487 211.188 230.963 206.497 230.963 206.497Z" fill="white"/>
<path d="M226.743 193.405C225.369 193.415 223.899 193.731 222.693 194.258C222.556 194.185 222.196 193.531 222.408 193.152C222.566 192.846 224.724 192.108 226.659 192.15C226.659 192.15 227.008 193.236 226.743 193.405Z" fill="#00276F"/>
<path d="M230.572 193.331C231.555 193.341 232.56 193.637 233.332 194.132C233.448 194.058 233.691 193.521 233.617 193.162C233.564 192.878 232.147 192.171 230.741 192.213C230.741 192.213 230.413 193.162 230.572 193.331Z" fill="#00276F"/>
<path d="M212.89 203.334C212.89 203.334 214.296 205.432 216.189 204.842" stroke="#D34F9B" stroke-width="0.75" stroke-miterlimit="10"/>
<path d="M132.305 208.777C131.459 207.575 130.476 206.321 129.059 205.93C128.657 205.815 128.234 205.783 127.811 205.772C126.129 205.741 124.448 206.173 122.988 206.995C122.576 207.227 122.174 207.501 121.846 207.849C121.455 208.26 121.307 208.597 121.349 209.146C121.381 209.546 121.392 209.957 121.36 210.358C121.318 210.99 121.18 211.591 121.043 212.213C120.662 213.857 120.725 215.418 121.085 217.073C121.222 217.695 121.233 218.369 120.99 218.949C120.778 219.465 120.366 219.855 119.996 220.245C119.245 221.036 118.557 221.911 118.166 222.944C117.764 223.977 117.669 225.179 118.082 226.201C118.293 226.739 118.631 227.213 118.896 227.73C119.552 229.037 119.657 230.629 119.192 232.031C119.086 232.347 119.308 232.684 119.636 232.747C122.544 233.285 125.495 233.591 128.424 233.274C131.586 232.927 134.727 231.83 137.201 229.733" fill="#212429"/>
<path d="M122.809 205.562C121.582 211.096 122.523 226.043 126.679 227.898C130.835 229.754 136.08 225.6 137.646 223.735C139.93 221.004 144.244 209.441 140.374 205.762C136.493 202.083 124.522 197.803 122.809 205.562Z" fill="#F8BD86"/>
<path d="M132.273 224.536L135.319 235.52L134.114 238.492C134.114 238.492 133.31 244.417 134.293 244.722C138.238 245.924 146.931 233.833 146.931 233.833L139.983 218.021" fill="#F8BD86"/>
<path d="M143.272 206.478C142.066 201.239 135.467 197.919 129.788 198.783C125.135 197.445 116.093 202.336 120.133 211.939C120.133 211.939 123.729 208.629 128.329 204.233C131.237 213.32 142.288 217.916 142.288 217.916C142.288 217.916 144.72 212.803 143.272 206.478Z" fill="#212429"/>
<path d="M128.456 199.068C132.633 193.502 142.722 197.139 145.355 199.932C148.337 203.105 149.521 206.299 152.969 208.407C154.566 209.377 156.543 210.01 157.432 211.654C158.648 213.921 157.157 217.093 158.754 219.107C159.43 219.95 162.666 222.554 162.666 226.749C159.134 229.153 156.268 228.383 152.334 229.954C149.49 231.103 145.566 232.969 142.362 233.506C141.981 233.569 141.654 233.243 141.696 232.853C141.854 231.493 142.108 229.764 141.516 228.699C141.209 228.141 140.702 227.73 140.342 227.203C139.454 225.927 139.549 224.24 139.803 222.712C140.046 221.183 140.406 219.592 139.94 218.116C139.507 216.746 138.428 215.691 137.297 214.806" fill="#212429"/>
<path d="M139.179 198.32C138.375 198.404 137.804 197.561 137.508 196.812C137.117 195.821 136.874 194.704 137.212 193.692C138.005 191.32 141.167 191.173 142.986 192.364C144.551 193.386 145.693 195.695 144.424 197.382C143.536 198.562 141.706 198.826 140.353 199.079" fill="#212429"/>
<path d="M137.318 216.619C137.339 216.408 137.529 216.261 137.709 216.134C138.513 215.586 139.507 215.017 140.406 215.396C140.871 215.597 141.199 216.029 141.389 216.493C142.024 218.053 141.833 220.14 140.649 221.426C139.581 222.575 136.778 223.355 136.303 221.236" fill="#F8BD86"/>
<path d="M126.785 214.975C126.785 214.975 124.056 219.708 124.924 220.562C125.791 221.416 127.525 220.888 127.525 220.888" stroke="#D34F9B" stroke-width="0.75" stroke-miterlimit="10"/>
<path d="M130.148 214.806C130.127 215.164 130.264 215.597 130.317 215.871C130.402 216.356 130.962 216.471 131.332 216.218C132.03 215.744 131.406 213.889 130.497 214.268C130.254 214.363 130.169 214.574 130.148 214.806Z" fill="#212429"/>
<path d="M123.126 214.806C123.105 215.164 123.242 215.597 123.295 215.871C123.38 216.356 123.94 216.471 124.31 216.218C125.008 215.744 124.384 213.889 123.475 214.268C123.232 214.363 123.147 214.574 123.126 214.806Z" fill="#212429"/>
<path d="M128.276 212.877C128.276 212.877 129.979 210.758 132.887 212.877" stroke="#212429" stroke-width="0.75" stroke-miterlimit="10" stroke-linecap="round"/>
<path d="M122.851 213.025C123.485 212.392 124.543 211.897 125.696 212.888" stroke="#212429" stroke-width="0.75" stroke-miterlimit="10" stroke-linecap="round"/>
<path d="M126.129 223.239L131.417 221.964C131.417 221.964 130.486 225.147 127.864 225.147C126.584 225.147 126.129 223.239 126.129 223.239Z" fill="white"/>
<path d="M133.151 227.709C133.151 227.709 136.694 226.56 138.1 223.555" stroke="#D34F9B" stroke-width="0.75" stroke-miterlimit="10"/>
<path d="M87.3924 260.671C87.3924 260.671 86.5464 262.969 87.9952 266.912C89.867 271.992 110.002 303.384 122.787 304.554C135.573 305.724 148.432 267.512 148.432 255.748C148.432 243.984 138.026 240.474 131.353 248.96C124.68 257.446 116.992 286.929 116.992 286.929L87.3924 260.671Z" fill="#DD3C91"/>
<path d="M100.569 270.97C100.083 269.22 98.1262 266.3 97.0899 264.888C96.5082 264.097 94.4989 261.304 93.3568 261.841C92.5637 262.21 93.3991 264.308 93.7164 264.888C94.1711 265.742 94.795 266.458 95.419 267.165" fill="#DD3C91"/>
<path d="M100.495 453.649L95.4295 478.2C95.4295 478.2 75.2204 490.038 75.2204 490.291C75.2204 490.544 94.4566 491.229 94.4566 491.229L102.97 487.076H111.282C112.255 487.076 112.974 486.169 112.762 485.231L111.028 477.662L120.038 451.815" fill="#F8BD86"/>
<path d="M76.6058 487.455C79.6303 485.705 90.9986 480.097 90.9986 480.097L102.896 487.076H113.175V492.989H102.896V488.53H101.584C101.13 488.53 100.675 488.678 100.315 488.963L95.8314 492.42C95.345 492.8 94.7422 493 94.1288 493C94.1288 493 77.8642 493 75.2099 493C72.5555 493 71.9739 490.143 76.6058 487.455Z" fill="#FBBDDB"/>
<path d="M107.189 488.204L112.075 481.636L111.504 479.127L105.709 487.107L107.189 488.204Z" fill="#FBBDDB"/>
<path d="M170.101 289.67C170.101 289.67 185.614 314.094 168.345 338.75C161.366 348.722 137.91 390.318 137.91 390.318L124.977 465.044H90.787C90.787 465.044 101.753 391.024 106.692 377.668C111.631 364.312 142.457 301.645 142.457 301.645V291.947" fill="#EF8318"/>
<path d="M154.83 337.263C147.851 347.235 127.134 390.317 127.134 390.317L114.2 465.044" stroke="#AF480E" stroke-width="0.75" stroke-miterlimit="10"/>
<path d="M157.453 337.263C150.473 347.235 129.756 390.317 129.756 390.317L116.823 465.044" stroke="#AF480E" stroke-width="0.75" stroke-miterlimit="10" stroke-dasharray="2 2"/>
<path d="M150.209 435.603L167.573 453.038C167.573 453.038 157.971 473.994 158.119 474.205C158.257 474.405 174.193 464.117 174.193 464.117L178.719 455.968L185.435 451.278C186.217 450.729 186.291 449.591 185.583 448.948L179.893 443.814L164.982 423.111" fill="#F8BD86"/>
<path d="M157.633 471.137C159.081 468.007 165.088 457.075 165.088 457.075L178.667 456L186.968 450.202L190.32 454.978L182.019 460.775L179.481 457.17L178.423 457.908C178.053 458.172 177.778 458.541 177.641 458.973L175.97 464.296C175.79 464.876 175.42 465.371 174.923 465.719C174.923 465.719 161.778 474.89 159.642 476.387C157.516 477.884 155.422 475.913 157.633 471.137Z" fill="#FBBDDB"/>
<path d="M182.759 454.482L182.981 446.429L181.099 444.731L180.94 454.44L182.759 454.482Z" fill="#FBBDDB"/>
<path d="M140.839 291.736L139.591 301.655C139.591 301.655 98.5492 351.8 98.5492 372.967C98.5492 393.617 144.858 445.164 144.858 445.164L170.809 425.473L137.096 377.362C137.096 377.362 170.058 337.327 175.748 331.656C185.265 322.169 184.62 306.009 172.607 289.67" fill="#FFAB37"/>
<path d="M140.036 298.145C140.036 298.145 158.267 300.021 175.579 294.087" stroke="#AF480E" stroke-width="0.75" stroke-miterlimit="10"/>
<path d="M147.755 298.43V292.579" stroke="#AF480E" stroke-width="0.75" stroke-miterlimit="10" stroke-linecap="round"/>
<path d="M170.577 295.594L168.567 290.186" stroke="#AF480E" stroke-width="0.75" stroke-miterlimit="10"/>
<path d="M164.358 430.364L130.56 381.737C128.741 379.123 128.815 375.644 130.729 373.104C138.597 362.71 158.489 336.515 162.666 331.655C171.423 321.452 172.332 309.456 165.733 296.69" stroke="#AF480E" stroke-width="0.75" stroke-miterlimit="10"/>
<path d="M164.877 426.19L164.274 425.325" stroke="#AF480E" stroke-width="0.75" stroke-miterlimit="10"/>
<path d="M163.375 424.039L133.014 380.42C131.745 378.596 131.787 376.171 133.13 374.39C140.184 365.072 161.683 336.737 166.04 331.656C174.415 321.895 175.113 310.088 169.382 297.913" stroke="#AF480E" stroke-width="0.75" stroke-miterlimit="10" stroke-dasharray="1.99 1.99"/>
<path d="M169.043 297.207C168.885 296.891 168.726 296.574 168.567 296.269" stroke="#AF480E" stroke-width="0.75" stroke-miterlimit="10"/>
<path d="M157.802 297.871C157.802 297.871 158.933 301.95 162.243 303.532C165.553 305.113 169.255 306.072 169.255 306.072" stroke="#AF480E" stroke-width="0.75" stroke-miterlimit="10"/>
<path d="M177.239 308.728C177.239 308.728 178.73 308.612 181.427 307.811" stroke="#AF480E" stroke-width="0.75" stroke-miterlimit="10"/>
<path d="M177.239 310.752C177.239 310.752 179.153 310.7 181.839 309.898" stroke="#AF480E" stroke-width="0.75" stroke-miterlimit="10"/>
<path d="M140.934 440.652L145.619 447.198L172.417 426.263L167.33 420.508L140.934 440.652Z" fill="#AF480E"/>
<path d="M90.1631 465.045L91.8974 457.687H126.256V465.045H90.1631Z" fill="#AF480E"/>
<path d="M103.636 273.742C103.784 273.89 103.794 274.132 103.636 274.29L102.726 275.207C102.578 275.355 102.335 275.365 102.176 275.207L84.2199 257.561C84.0718 257.414 84.0613 257.171 84.2199 257.013L85.1294 256.096C85.2774 255.949 85.5206 255.938 85.6793 256.096" fill="#00276F"/>
<path d="M86.5464 258.436L87.9952 259.859" stroke="#2D5491" stroke-width="0.5" stroke-miterlimit="10" stroke-linecap="round"/>
<path d="M88.5663 260.449L88.7883 260.671" stroke="#2D5491" stroke-width="0.5" stroke-miterlimit="10" stroke-linecap="round"/>
<path d="M167.436 249.15C160.71 235.351 146.719 233.401 146.719 233.401C146.719 233.401 135.615 242.477 134.103 238.493C132.485 240.885 122.164 258.742 123.57 267.882C124.977 277.021 132.908 278.286 134.494 280.267C136.08 282.249 139.824 294.941 140.321 295.816C156.311 295.51 172.586 289.67 172.586 289.67C172.586 289.67 174.616 263.886 167.436 249.15Z" fill="white"/>
<path d="M162.18 252.723C159.367 242.055 150.41 236.374 142.521 239.209C135.721 241.655 134.346 249.561 136.292 259.965C138.248 270.38 137.762 284.431 137.762 284.431C137.762 284.431 113.206 275.376 108.585 273.542C103.847 269.526 98.0099 265.331 97.0158 265.331C96.0218 265.331 96.5082 266.975 97.8619 268.314C99.2684 269.716 101.542 271.761 99.6385 271.592C98.2003 271.466 88.8413 262.084 88.8413 262.084C88.0587 262.864 88.9893 265.046 88.9893 265.046C88.9893 265.046 89.1374 268.64 92.0667 271.961C112.413 295.004 136.366 311.058 151.499 305.556C165.744 300.401 163.185 256.529 162.18 252.723Z" fill="#F8BD86"/>
<path d="M95.9689 272.762C95.9689 272.762 95.3978 272.435 94.6047 271.834C93.8221 271.234 92.8492 270.348 91.9715 269.368C91.0937 268.387 90.3112 267.344 89.7824 266.501C89.2642 265.668 88.9893 265.056 88.9893 265.056C88.9893 265.056 89.4651 265.52 90.1419 266.216C90.8188 266.922 91.6859 267.871 92.5637 268.83C93.4203 269.8 94.2769 270.77 94.9219 271.497C95.2392 271.866 95.5036 272.182 95.6939 272.404C95.8737 272.635 95.9689 272.762 95.9689 272.762Z" fill="#D34F9B"/>
<path d="M164.105 254.484C162.222 242.741 153.223 235.71 144.467 237.913C136.916 239.81 134.6 248.148 135.584 259.512C135.869 262.843 136.165 266.522 136.419 270.042L164.084 273.289C164.676 263.939 164.359 256.075 164.105 254.484Z" fill="#FCFCFC"/>
<path d="M98.0605 227.821L70.128 231.932C65.6358 232.594 62.5347 236.761 63.1925 241.231C63.8516 245.708 68.0296 248.796 72.5131 248.136L74.8466 247.793L76.5919 249.458L77.7832 247.36L100.454 244.024C104.947 243.362 108.048 239.194 107.39 234.725C106.723 230.257 102.553 227.16 98.0605 227.821Z" fill="#E61D7D"/>
<path d="M77.1482 237.04C76.8396 236.036 75.8774 235.323 74.8292 235.299C73.6286 235.271 72.6721 236.053 72.3574 237.069C71.7619 236.178 70.6221 235.714 69.4805 236.086C68.4748 236.412 67.7689 237.38 67.7616 238.422C67.7549 239.286 68.1574 240.019 68.7775 240.471L72.8365 243.478C73.1271 243.693 73.5292 243.634 73.7454 243.344L76.7657 239.295C77.2206 238.685 77.4037 237.866 77.1482 237.04Z" fill="white"/>
<path d="M89.6723 235.197C89.3637 234.192 88.4016 233.479 87.3534 233.456C86.1527 233.428 85.1963 234.209 84.8816 235.226C84.286 234.334 83.1462 233.87 82.0046 234.243C80.9989 234.569 80.293 235.536 80.2857 236.579C80.279 237.443 80.6816 238.176 81.3016 238.628L85.3606 241.635C85.6513 241.85 86.0533 241.791 86.2696 241.501L89.2899 237.452C89.7535 236.841 89.9278 236.023 89.6723 235.197Z" fill="white"/>
<path d="M102.197 233.354C101.888 232.349 100.926 231.636 99.8776 231.612C98.6769 231.584 97.7205 232.366 97.4058 233.382C96.8103 232.491 95.6704 232.027 94.5288 232.399C93.5231 232.726 92.8172 233.693 92.8099 234.735C92.8032 235.6 93.2058 236.332 93.8259 236.784L97.8848 239.791C98.1754 240.007 98.5775 239.948 98.7937 239.658L101.814 235.608C102.278 234.997 102.461 234.178 102.197 233.354Z" fill="white"/>
<path d="M302.189 179.731L267.748 179.724C261.843 179.723 257.052 184.497 257.051 190.383C257.05 196.27 261.839 201.045 267.744 201.046L270.815 201.046L272.74 203.527L274.666 201.047L302.185 201.052C308.09 201.053 312.881 196.28 312.882 190.394C312.883 184.507 308.099 179.732 302.189 179.731Z" fill="white" stroke="white" stroke-miterlimit="10" stroke-linecap="round" stroke-linejoin="round"/>
<path d="M267.076 196.98C270.73 196.98 273.692 194.028 273.693 190.386C273.694 186.744 270.732 183.791 267.078 183.79C263.424 183.789 260.461 186.741 260.461 190.384C260.46 194.026 263.422 196.979 267.076 196.98Z" fill="#E6EFFC"/>
<path d="M272.035 191.558C272.682 188.831 270.988 186.097 268.251 185.452C265.515 184.808 262.772 186.496 262.126 189.224C261.479 191.951 263.173 194.685 265.909 195.33C268.646 195.974 271.388 194.286 272.035 191.558Z" fill="#FF5A89"/>
<path d="M265.048 187.171C266.09 186.224 268.098 185.994 268.896 187.143C269.251 187.654 269.325 188.367 269.796 188.771C269.953 188.907 270.152 188.997 270.267 189.17C270.462 189.459 270.366 189.854 270.238 190.179C270.11 190.505 269.953 190.859 270.052 191.197C270.122 191.436 270.317 191.646 270.279 191.893C270.234 192.227 269.825 192.338 269.502 192.358C269.238 192.379 268.973 192.387 268.709 192.371C268.304 192.342 267.903 192.243 267.494 192.259C266.998 192.28 266.523 192.477 266.035 192.576C265.51 192.683 264.965 192.679 264.44 192.559C264.126 192.489 263.77 192.316 263.737 191.987C263.717 191.764 263.861 191.554 263.87 191.332C263.882 190.953 263.502 190.652 263.502 190.273C263.502 189.828 263.986 189.569 264.201 189.186C264.391 188.844 264.354 188.419 264.47 188.045C264.569 187.715 264.776 187.419 265.048 187.171Z" fill="#00276F"/>
<path d="M261.617 194.956C263.295 193.041 265.799 193.083 265.799 193.083L268.271 193.042C268.271 193.042 270.473 193.331 271.795 194.411C275.758 197.645 275.096 203.325 275.096 203.325C275.096 203.325 259.029 199.854 259.008 199.743C258.992 199.631 260.497 196.237 261.617 194.956Z" fill="#FFAB37"/>
<path d="M268.561 188.367C269.06 190.377 268.151 191.88 267.374 191.996C266.258 192.164 265.638 191.616 265.308 190.624C265.164 190.187 264.949 188.531 265.412 188.041C266.181 187.238 268.135 186.653 268.561 188.367Z" fill="#F8BD86"/>
<path d="M265.932 191.056L265.82 192.906C265.82 192.906 265.56 193.898 267.084 193.899C268.609 193.899 268.242 192.906 268.242 192.906L267.994 190.859" fill="#F8BD86"/>
<path d="M265.383 189.882C265.288 189.779 265.085 189.758 264.965 189.845C264.862 189.919 264.837 190.042 264.829 190.154C264.82 190.261 264.829 190.372 264.87 190.475C264.915 190.578 264.998 190.673 265.118 190.714C265.238 190.759 265.391 190.747 265.482 190.669" fill="#F8BD86"/>
<path d="M268.494 189.883C268.589 189.78 268.792 189.759 268.912 189.846C269.015 189.92 269.04 190.043 269.048 190.154C269.056 190.262 269.048 190.373 269.007 190.476C268.961 190.579 268.879 190.673 268.759 190.715C268.639 190.756 268.486 190.748 268.395 190.669" fill="#F8BD86"/>
<path d="M264.779 189.622C265.73 189.421 266.598 188.869 267.185 188.094C267.689 188.708 268.35 189.19 269.085 189.479C269.148 188.985 269.201 188.457 268.987 188.004C268.838 187.691 268.573 187.452 268.313 187.225C268.09 187.032 267.859 186.834 267.582 186.731C267.049 186.529 266.433 186.706 265.966 187.027C265.3 187.48 264.846 188.226 264.746 189.025" fill="#00276F"/>
<path d="M267.454 186.632C267.404 186.661 267.342 186.616 267.301 186.57C267.148 186.397 266.987 186.175 267.057 185.952C267.09 185.854 267.169 185.771 267.255 185.709C267.462 185.565 267.743 185.52 267.974 185.619C268.206 185.718 268.371 185.973 268.334 186.22C268.301 186.468 268.049 186.678 267.801 186.64" fill="#00276F"/>
<path d="M265.986 191.744C265.986 191.744 266.308 192.193 266.891 192.234C267.638 192.288 267.965 191.6 267.965 191.6" stroke="#D34F9B" stroke-width="0.5" stroke-miterlimit="10" stroke-linecap="round" stroke-linejoin="round"/>
<path d="M267.081 190.879C267.081 190.879 266.746 190.949 266.746 190.743C266.746 190.537 266.85 189.623 266.85 189.623" stroke="#D34F9B" stroke-width="0.5" stroke-miterlimit="10" stroke-linecap="round" stroke-linejoin="round"/>
<path d="M267.676 189.784C267.672 189.808 267.668 189.837 267.664 189.862C267.664 189.878 267.664 189.891 267.664 189.907C267.664 189.92 267.664 189.936 267.664 189.948C267.664 189.957 267.664 189.961 267.664 189.969C267.664 189.99 267.668 190.01 267.672 190.031C267.676 190.051 267.688 190.072 267.701 190.084C267.713 190.101 267.726 190.117 267.746 190.126C267.759 190.13 267.771 190.138 267.784 190.142C267.804 190.15 267.825 190.15 267.85 190.146C267.866 190.146 267.879 190.142 267.891 190.134C267.912 190.126 267.928 190.117 267.945 190.101C267.974 190.068 267.994 190.031 267.994 189.986C267.994 189.944 267.982 189.903 267.974 189.862C267.97 189.85 267.97 189.833 267.965 189.821C267.961 189.808 267.957 189.792 267.953 189.78C267.949 189.767 267.945 189.759 267.941 189.747C267.932 189.73 267.92 189.718 267.903 189.705C267.895 189.697 267.883 189.689 267.87 189.689C267.854 189.681 267.833 189.677 267.817 189.677C267.804 189.677 267.792 189.681 267.779 189.681C267.767 189.685 267.759 189.689 267.746 189.693C267.73 189.701 267.717 189.714 267.705 189.73C267.689 189.751 267.68 189.767 267.676 189.784Z" fill="#00276F"/>
<path d="M267.527 189.38C267.527 189.38 267.788 189.186 268.205 189.433" stroke="#00276F" stroke-width="0.5" stroke-miterlimit="10" stroke-linecap="round" stroke-linejoin="round"/>
<path d="M265.903 189.783C265.899 189.796 265.891 189.808 265.891 189.824C265.887 189.837 265.887 189.853 265.883 189.866C265.874 189.907 265.862 189.948 265.862 189.989C265.862 190.01 265.866 190.03 265.874 190.051C265.883 190.072 265.891 190.088 265.907 190.105C265.92 190.113 265.928 190.121 265.94 190.129C265.961 190.142 265.978 190.146 266.002 190.15C266.015 190.154 266.031 190.154 266.044 190.15C266.064 190.15 266.085 190.142 266.106 190.129C266.118 190.121 266.126 190.113 266.139 190.105C266.159 190.084 266.172 190.059 266.18 190.035C266.184 190.006 266.188 189.981 266.188 189.952C266.188 189.936 266.188 189.923 266.188 189.907C266.188 189.894 266.188 189.878 266.188 189.866C266.188 189.841 266.18 189.812 266.176 189.787C266.172 189.775 266.168 189.767 266.164 189.754C266.155 189.738 266.143 189.726 266.126 189.713C266.118 189.705 266.106 189.697 266.093 189.697C266.077 189.688 266.056 189.684 266.04 189.684C266.027 189.684 266.015 189.688 266.003 189.688C265.99 189.693 265.982 189.697 265.969 189.701C265.953 189.709 265.941 189.721 265.928 189.738C265.92 189.75 265.907 189.767 265.903 189.783Z" fill="#00276F"/>
<path d="M266.325 189.38C266.325 189.38 266.065 189.186 265.647 189.433" stroke="#00276F" stroke-width="0.5" stroke-miterlimit="10" stroke-linecap="round" stroke-linejoin="round"/>
<path d="M266.432 191.159L267.527 191.159C267.527 191.159 267.374 191.724 266.973 191.724C266.577 191.724 266.432 191.159 266.432 191.159Z" fill="white"/>
<path d="M276.149 184.904L306.04 184.909" stroke="#E6EFFC" stroke-width="3" stroke-miterlimit="10" stroke-linecap="round" stroke-linejoin="round"/>
<path d="M276.148 188.558L306.039 188.563" stroke="#E6EFFC" stroke-width="3" stroke-miterlimit="10" stroke-linecap="round" stroke-linejoin="round"/>
<path d="M300.063 192.216L306.038 192.217" stroke="#E6EFFC" stroke-width="3" stroke-miterlimit="10" stroke-linecap="round" stroke-linejoin="round"/>
<path d="M276.147 192.211L296.661 192.215" stroke="#E6EFFC" stroke-width="3" stroke-miterlimit="10" stroke-linecap="round" stroke-linejoin="round"/>
<path d="M276.147 195.865L291.962 195.868" stroke="#E6EFFC" stroke-width="3" stroke-miterlimit="10" stroke-linecap="round" stroke-linejoin="round"/>
<path fill-rule="evenodd" clip-rule="evenodd" d="M264.902 556.304L265.443 557.262L265.958 558.231L266.447 559.213L266.909 560.205L267.343 561.208L267.749 562.221L268.127 563.243L268.474 564.275L268.792 565.315L269.08 566.363L269.337 567.419L269.562 568.481L269.756 569.55L269.917 570.624L270.046 571.704L270.141 572.787L270.204 573.875L270.232 574.965L270.227 576.058L270.187 577.152L270.114 578.247L270.005 579.343L269.862 580.438L269.685 581.531L269.472 582.622L269.226 583.711L268.944 584.796L268.629 585.876L268.279 586.952L267.895 588.022L267.478 589.085L267.027 590.141L266.544 591.189L266.028 592.228L265.48 593.258L264.901 594.278L264.291 595.288L263.651 596.286L262.982 597.272L262.284 598.246L261.558 599.207L260.805 600.154L260.025 601.087L259.221 602.006L258.392 602.91L257.54 603.798L256.665 604.671L255.769 605.528L254.853 606.369L253.918 607.194L252.965 608.002L251.996 608.793L251.012 609.567L250.013 610.325L249.002 611.066L247.979 611.791L246.946 612.498L245.903 613.19L244.854 613.865L243.798 614.525L242.737 615.169L241.672 615.798L240.604 616.412L239.535 617.012L238.466 617.598L237.398 618.172L236.332 618.732L235.269 619.281L234.211 619.818L233.157 620.345L232.11 620.862L231.069 621.37L230.036 621.869L229.012 622.361L227.997 622.846L226.992 623.325L225.997 623.799L225.013 624.268L224.04 624.734L223.079 625.197L222.13 625.658L221.193 626.118L220.268 626.577L219.355 627.037L218.455 627.498L217.566 627.96L216.69 628.425L215.826 628.893L214.973 629.364L214.131 629.839L213.3 630.319L212.479 630.803L211.668 631.293L210.866 631.789L210.073 632.29L209.288 632.798L208.509 633.311L207.737 633.831L206.97 634.357L206.208 634.888L205.449 635.425L204.693 635.966L203.938 636.513L203.184 637.063L202.429 637.616L201.673 638.172L200.914 638.728L200.152 639.286L199.385 639.843L198.613 640.398L197.835 640.95L197.05 641.498L196.257 642.041L195.456 642.577L194.646 643.105L193.826 643.624L192.997 644.132L192.157 644.628L191.307 645.11L190.446 645.578L189.574 646.029L188.691 646.463L187.797 646.878L186.893 647.273L185.978 647.647L185.053 647.998L184.119 648.326L183.175 648.629L182.223 648.908L181.263 649.16L180.295 649.386L179.321 649.584L178.342 649.755L177.357 649.899L176.368 650.014L175.376 650.101L174.382 650.159L173.387 650.19L172.391 650.192L171.396 650.166L170.402 650.113L169.411 650.033L168.423 649.927L167.439 649.794L166.46 649.636L165.487 649.453L164.52 649.246L163.56 649.016L162.609 648.764L161.666 648.491L160.733 648.198L159.809 647.886L158.896 647.556L157.993 647.21L157.101 646.848L156.22 646.472L155.352 646.083L154.494 645.683L153.649 645.273L152.816 644.853L151.994 644.426L151.184 643.993L150.386 643.554L149.599 643.112L148.824 642.668L148.059 642.222L147.305 641.776L146.56 641.331L145.825 640.889L145.1 640.449L144.382 640.014L143.673 639.584L142.97 639.16L142.274 638.743L141.584 638.334L140.9 637.932L140.219 637.54L139.542 637.157L138.869 636.784L138.197 636.421L137.527 636.069L136.858 635.727L136.19 635.396L135.52 635.076L134.85 634.767L134.178 634.468L133.503 634.18L132.826 633.902L132.146 633.634L131.462 633.375L130.774 633.124L130.082 632.882L129.386 632.645L128.687 632.415L127.983 632.19L127.275 631.968L126.564 631.749L125.85 631.532L125.133 631.315L124.414 631.097L123.693 630.878L122.972 630.655L122.25 630.427L121.529 630.194L120.81 629.954L120.093 629.706L119.38 629.45L118.671 629.183L117.968 628.905L117.272 628.615L116.584 628.313L115.906 627.996L115.237 627.666L114.58 627.32L113.935 626.959L113.304 626.582L112.688 626.189L112.087 625.779L111.504 625.352L110.938 624.909L110.391 624.448L109.863 623.971L109.355 623.477L108.869 622.967L108.404 622.441L107.96 621.9L107.539 621.343L107.141 620.772L106.766 620.187L106.414 619.589L106.086 618.978L105.781 618.355L105.499 617.721L105.241 617.077L105.006 616.424L104.793 615.762L104.603 615.092L104.435 614.415L104.288 613.732L104.162 613.044L104.056 612.352L103.969 611.657L103.901 610.959L103.851 610.259L103.818 609.558L103.8 608.858L103.798 608.158L103.809 607.46L103.832 606.763L103.867 606.07L103.913 605.38L103.967 604.695L104.03 604.014L104.099 603.338L104.173 602.668L104.252 602.003L104.334 601.345L104.418 600.694L104.502 600.049L104.586 599.411L104.669 598.78L104.749 598.157L104.825 597.541L104.896 596.932L104.962 596.33L105.021 595.735L105.073 595.147L105.116 594.565L105.151 593.99L105.176 593.42L105.192 592.857L105.196 592.298L105.19 591.745L105.172 591.196L105.143 590.651L105.102 590.11L105.049 589.571L104.984 589.035L104.906 588.502L104.817 587.97L104.716 587.439L104.603 586.908L104.477 586.377L104.341 585.846L104.192 585.314L104.032 584.781L103.861 584.245L103.679 583.707L103.487 583.167L103.284 582.622L103.072 582.074L102.85 581.521L102.62 580.964L102.381 580.401L102.134 579.833L101.881 579.259L101.621 578.678L101.355 578.09L101.085 577.496L100.81 576.894L100.531 576.285L100.25 575.667L99.9663 575.042L99.6818 574.408L99.3969 573.766L99.1126 573.115L98.8297 572.456L98.5491 571.788L98.2717 571.111L97.9984 570.425L97.73 569.731L97.4674 569.028L97.2116 568.316L96.9634 567.596L96.7236 566.867L96.4932 566.13L96.273 565.385L96.0638 564.633L95.8665 563.873L95.6821 563.105L95.5112 562.331L95.3548 561.551L95.2137 560.764L95.0886 559.972L94.9803 559.174L94.8897 558.372L94.8173 557.566L94.764 556.756L94.7304 555.943L94.7171 555.127L94.7247 554.31L94.7538 553.491L94.805 552.672L94.8787 551.852L94.9754 551.034L95.0955 550.217L95.2393 549.402L95.4072 548.589L95.5995 547.781L95.8163 546.976L96.0578 546.176L96.3243 545.383L96.6156 544.595L96.932 543.815L97.2733 543.042L97.6395 542.278L98.0304 541.523L98.4459 540.778L98.8858 540.044L99.3498 539.321L99.8376 538.609L100.349 537.91L100.883 537.223L101.44 536.55L102.019 535.891L102.62 535.246L103.241 534.617L103.883 534.002L104.545 533.403L105.226 532.82L105.925 532.253L106.642 531.703L107.376 531.169L108.127 530.652L108.892 530.153L109.672 529.67L110.467 529.205L111.274 528.757L112.093 528.325L112.923 527.911L113.764 527.514L114.614 527.133L115.472 526.767L116.337 526.418L117.209 526.083L118.087 525.762L118.969 525.455L119.854 525.161L120.742 524.879L121.632 524.609L122.523 524.348L123.414 524.098L124.304 523.855L125.193 523.62L126.081 523.392L126.966 523.169L127.848 522.95L128.727 522.735L129.602 522.521L130.473 522.309L131.34 522.097L132.203 521.885L133.061 521.67L133.915 521.452L134.764 521.231L135.609 521.005L136.45 520.773L137.287 520.535L138.12 520.29L138.95 520.037L139.777 519.776L140.602 519.506L141.425 519.226L142.246 518.936L143.067 518.637L143.887 518.327L144.708 518.006L145.53 517.675L146.354 517.333L147.18 516.981L148.009 516.618L148.842 516.245L149.68 515.863L150.523 515.472L151.371 515.072L152.226 514.663L153.088 514.248L153.957 513.826L154.835 513.398L155.721 512.965L156.616 512.528L157.521 512.088L158.435 511.646L159.36 511.204L160.295 510.762L161.24 510.322L162.196 509.884L163.162 509.451L164.139 509.023L165.127 508.602L166.125 508.189L167.134 507.786L168.152 507.393L169.18 507.012L170.217 506.644L171.263 506.291L172.317 505.953L173.379 505.633L174.448 505.33L175.524 505.047L176.605 504.785L177.69 504.544L178.78 504.325L179.874 504.129L180.969 503.958L182.066 503.811L183.164 503.69L184.261 503.595L185.357 503.527L186.45 503.487L187.541 503.474L188.627 503.488L189.707 503.532L190.782 503.603L191.85 503.703L192.91 503.832L193.961 503.988L195.002 504.173L196.033 504.386L197.053 504.626L198.061 504.893L199.057 505.187L200.04 505.506L201.01 505.85L201.966 506.218L202.908 506.608L203.837 507.021L204.751 507.454L205.651 507.906L206.538 508.378L207.41 508.866L208.269 509.37L209.115 509.888L209.949 510.42L210.77 510.964L211.58 511.519L212.379 512.083L213.168 512.656L213.947 513.236L214.717 513.822L215.48 514.412L216.236 515.007L216.986 515.605L217.73 516.204L218.471 516.805L219.208 517.406L219.943 518.006L220.677 518.606L221.41 519.204L222.143 519.8L222.878 520.394L223.615 520.985L224.355 521.574L225.098 522.159L225.846 522.742L226.598 523.321L227.356 523.898L228.119 524.472L228.889 525.043L229.665 525.613L230.447 526.18L231.237 526.746L232.034 527.311L232.838 527.876L233.65 528.441L234.469 529.006L235.294 529.572L236.127 530.14L236.967 530.71L237.813 531.282L238.665 531.859L239.522 532.439L240.385 533.025L241.252 533.615L242.123 534.212L242.997 534.816L243.873 535.426L244.751 536.045L245.63 536.673L246.509 537.309L247.387 537.956L248.263 538.612L249.137 539.28L250.006 539.959L250.87 540.649L251.728 541.352L252.579 542.067L253.422 542.795L254.255 543.536L255.078 544.29L255.89 545.058L256.688 545.84L257.473 546.636L258.243 547.446L258.997 548.27L259.735 549.108L260.454 549.96L261.154 550.825L261.834 551.705L262.493 552.598L263.13 553.505L263.744 554.425L264.335 555.358L264.902 556.304Z" fill="url(#paint2_linear_68:20)" fill-opacity="0.26"/>
<path fill-rule="evenodd" clip-rule="evenodd" d="M270.566 556.877L271.164 557.973L271.735 559.082L272.276 560.204L272.789 561.338L273.272 562.483L273.724 563.64L274.145 564.807L274.535 565.985L274.893 567.171L275.217 568.366L275.509 569.57L275.767 570.78L275.99 571.998L276.178 573.221L276.332 574.45L276.449 575.683L276.531 576.92L276.576 578.16L276.585 579.402L276.556 580.645L276.491 581.889L276.388 583.133L276.248 584.375L276.07 585.616L275.854 586.854L275.602 588.088L275.312 589.317L274.984 590.542L274.62 591.76L274.219 592.971L273.781 594.174L273.308 595.368L272.798 596.553L272.254 597.728L271.675 598.892L271.062 600.043L270.415 601.183L269.736 602.309L269.025 603.421L268.283 604.519L267.51 605.602L266.708 606.669L265.877 607.719L265.019 608.753L264.134 609.77L263.224 610.769L262.289 611.75L261.332 612.712L260.352 613.656L259.351 614.581L258.331 615.487L257.293 616.374L256.239 617.241L255.168 618.09L254.084 618.919L252.987 619.729L251.879 620.52L250.761 621.292L249.634 622.046L248.501 622.782L247.361 623.5L246.218 624.201L245.071 624.886L243.923 625.554L242.774 626.206L241.626 626.844L240.48 627.467L239.338 628.077L238.2 628.674L237.067 629.259L235.941 629.833L234.822 630.396L233.712 630.951L232.61 631.496L231.518 632.034L230.437 632.566L229.367 633.091L228.309 633.612L227.263 634.129L226.23 634.643L225.209 635.154L224.201 635.665L223.207 636.175L222.226 636.686L221.258 637.197L220.303 637.711L219.361 638.228L218.433 638.749L217.516 639.273L216.612 639.802L215.719 640.337L214.838 640.877L213.967 641.423L213.106 641.976L212.254 642.535L211.411 643.102L210.576 643.676L209.748 644.256L208.925 644.844L208.108 645.438L207.294 646.038L206.483 646.644L205.674 647.255L204.865 647.87L204.056 648.489L203.246 649.111L202.432 649.734L201.615 650.358L200.793 650.981L199.965 651.602L199.131 652.219L198.289 652.832L197.438 653.439L196.579 654.038L195.709 654.627L194.829 655.206L193.939 655.773L193.037 656.326L192.124 656.863L191.198 657.383L190.261 657.885L189.312 658.366L188.35 658.826L187.378 659.263L186.393 659.676L185.397 660.063L184.391 660.424L183.374 660.757L182.348 661.061L181.313 661.335L180.269 661.579L179.218 661.792L178.161 661.974L177.097 662.123L176.029 662.241L174.958 662.327L173.883 662.381L172.807 662.402L171.73 662.392L170.653 662.35L169.578 662.277L168.504 662.173L167.434 662.038L166.368 661.875L165.307 661.682L164.252 661.461L163.204 661.214L162.163 660.94L161.13 660.641L160.107 660.318L159.094 659.973L158.09 659.606L157.098 659.219L156.117 658.814L155.147 658.391L154.19 657.952L153.245 657.499L152.313 657.033L151.393 656.555L150.486 656.067L149.592 655.571L148.71 655.068L147.841 654.559L146.985 654.046L146.14 653.531L145.307 653.014L144.485 652.497L143.674 651.982L142.873 651.469L142.083 650.96L141.301 650.456L140.528 649.958L139.763 649.467L139.004 648.984L138.253 648.51L137.507 648.045L136.766 647.59L136.029 647.146L135.295 646.713L134.564 646.291L133.835 645.882L133.107 645.485L132.379 645.1L131.651 644.727L130.922 644.367L130.191 644.019L129.457 643.683L128.721 643.358L127.982 643.044L127.239 642.741L126.491 642.447L125.74 642.162L124.984 641.884L124.224 641.613L123.46 641.348L122.692 641.087L121.92 640.829L121.144 640.572L120.366 640.316L119.585 640.059L118.803 639.8L118.02 639.537L117.236 639.269L116.453 638.995L115.672 638.713L114.894 638.422L114.119 638.121L113.349 637.808L112.585 637.483L111.829 637.145L111.08 636.792L110.342 636.423L109.614 636.039L108.899 635.637L108.197 635.219L107.51 634.782L106.838 634.327L106.183 633.853L105.546 633.36L104.928 632.848L104.33 632.318L103.753 631.769L103.198 631.201L102.665 630.614L102.155 630.01L101.668 629.389L101.206 628.751L100.768 628.096L100.354 627.427L99.966 626.742L99.6028 626.043L99.2647 625.332L98.9517 624.608L98.6638 623.872L98.4007 623.126L98.1621 622.371L97.9476 621.607L97.7567 620.835L97.589 620.057L97.4437 619.273L97.3201 618.485L97.2175 617.694L97.1349 616.899L97.0715 616.103L97.0263 615.306L96.9981 614.51L96.986 613.714L96.9888 612.921L97.0052 612.13L97.034 611.342L97.0741 610.559L97.1241 609.78L97.1827 609.007L97.2486 608.239L97.3206 607.478L97.3972 606.724L97.4772 605.977L97.5593 605.237L97.6422 604.506L97.7248 603.782L97.8057 603.066L97.8839 602.359L97.9581 601.659L98.0273 600.968L98.0906 600.284L98.1468 599.609L98.1951 598.941L98.2347 598.28L98.2648 597.627L98.2847 596.98L98.2938 596.339L98.2915 595.705L98.2773 595.076L98.251 594.451L98.2121 593.831L98.1606 593.215L98.0961 592.603L98.0187 591.993L97.9283 591.385L97.8248 590.779L97.7084 590.174L97.5789 589.57L97.4366 588.965L97.2815 588.359L97.1139 587.753L96.9339 587.144L96.7419 586.533L96.538 585.919L96.3228 585.302L96.0965 584.681L95.8596 584.055L95.6127 583.423L95.3562 582.787L95.0906 582.144L94.8167 581.495L94.5351 580.839L94.2464 580.175L93.9514 579.504L93.6508 578.825L93.3454 578.137L93.0361 577.441L92.7236 576.735L92.4089 576.021L92.0929 575.296L91.7763 574.563L91.4603 573.819L91.1457 573.066L90.8335 572.303L90.5246 571.53L90.2199 570.747L89.9205 569.954L89.6273 569.152L89.3413 568.339L89.0634 567.517L88.7945 566.686L88.5357 565.845L88.2877 564.996L88.0516 564.137L87.8283 563.271L87.6188 562.396L87.4239 561.514L87.2445 560.625L87.0815 559.729L86.9359 558.826L86.8084 557.919L86.6998 557.006L86.611 556.088L86.5427 555.167L86.4957 554.242L86.4707 553.315L86.4682 552.385L86.489 551.455L86.5337 550.524L86.6027 549.594L86.6966 548.665L86.8158 547.738L86.9607 546.813L87.1317 545.892L87.329 544.975L87.553 544.063L87.8039 543.158L88.0817 542.259L88.3865 541.367L88.7185 540.485L89.0776 539.611L89.4637 538.747L89.8766 537.894L90.3164 537.053L90.7826 536.224L91.275 535.407L91.7933 534.605L92.3372 533.817L92.9061 533.043L93.4996 532.286L94.1173 531.544L94.7584 530.819L95.4225 530.111L96.1089 529.421L96.8169 528.749L97.5458 528.095L98.2948 527.46L99.0633 526.843L99.8502 526.247L100.655 525.669L101.477 525.111L102.314 524.573L103.167 524.054L104.034 523.555L104.915 523.076L105.807 522.616L106.711 522.175L107.626 521.753L108.549 521.349L109.481 520.962L110.42 520.593L111.365 520.24L112.314 519.903L113.268 519.58L114.225 519.272L115.184 518.976L116.144 518.691L117.105 518.418L118.065 518.154L119.024 517.899L119.98 517.65L120.935 517.408L121.886 517.171L122.834 516.938L123.778 516.707L124.717 516.477L125.652 516.248L126.582 516.017L127.508 515.784L128.428 515.548L129.344 515.308L130.255 515.062L131.162 514.809L132.064 514.55L132.962 514.282L133.856 514.005L134.748 513.719L135.636 513.423L136.522 513.116L137.407 512.797L138.291 512.467L139.174 512.125L140.058 511.772L140.943 511.406L141.829 511.028L142.719 510.639L143.611 510.237L144.507 509.825L145.408 509.401L146.314 508.967L147.227 508.523L148.146 508.071L149.073 507.609L150.008 507.141L150.952 506.666L151.905 506.185L152.867 505.7L153.84 505.212L154.823 504.722L155.817 504.231L156.823 503.741L157.839 503.253L158.868 502.769L159.907 502.289L160.959 501.815L162.022 501.349L163.096 500.893L164.181 500.447L165.278 500.014L166.385 499.594L167.502 499.19L168.628 498.802L169.764 498.432L170.909 498.082L172.061 497.752L173.22 497.445L174.386 497.16L175.557 496.9L176.734 496.666L177.913 496.457L179.096 496.277L180.281 496.125L181.467 496.001L182.652 495.908L183.836 495.845L185.019 495.813L186.198 495.813L187.373 495.844L188.542 495.907L189.706 496.002L190.862 496.13L192.01 496.29L193.149 496.482L194.278 496.705L195.396 496.961L196.502 497.247L197.596 497.564L198.677 497.911L199.745 498.286L200.798 498.69L201.837 499.12L202.861 499.577L203.871 500.058L204.865 500.562L205.845 501.088L206.81 501.635L207.76 502.202L208.696 502.786L209.618 503.387L210.527 504.002L211.422 504.631L212.305 505.272L213.177 505.924L214.037 506.586L214.888 507.255L215.729 507.931L216.562 508.612L217.387 509.298L218.206 509.987L219.019 510.678L219.828 511.371L220.633 512.064L221.436 512.756L222.237 513.447L223.038 514.137L223.839 514.824L224.642 515.509L225.447 516.19L226.255 516.869L227.066 517.544L227.883 518.216L228.704 518.884L229.531 519.55L230.364 520.212L231.204 520.872L232.051 521.529L232.905 522.185L233.767 522.839L234.636 523.491L235.513 524.144L236.398 524.796L237.291 525.449L238.192 526.103L239.1 526.76L240.016 527.419L240.938 528.081L241.867 528.747L242.803 529.418L243.743 530.095L244.689 530.777L245.638 531.467L246.592 532.165L247.548 532.871L248.506 533.586L249.465 534.31L250.424 535.045L251.382 535.792L252.338 536.55L253.291 537.32L254.24 538.103L255.184 538.899L256.122 539.709L257.051 540.533L257.973 541.371L258.884 542.224L259.784 543.093L260.671 543.976L261.545 544.876L262.405 545.79L263.248 546.721L264.075 547.667L264.883 548.63L265.672 549.607L266.441 550.601L267.188 551.61L267.912 552.634L268.613 553.673L269.29 554.727L269.941 555.795L270.566 556.877Z" fill="url(#paint3_linear_68:20)" fill-opacity="0.26"/>
<path fill-rule="evenodd" clip-rule="evenodd" d="M283.27 553.028L283.937 554.253L284.574 555.492L285.179 556.746L285.752 558.014L286.291 559.294L286.796 560.587L287.266 561.892L287.702 563.207L288.101 564.534L288.464 565.87L288.79 567.214L289.078 568.568L289.328 569.928L289.539 571.295L289.71 572.669L289.842 574.047L289.933 575.429L289.984 576.815L289.994 578.203L289.963 579.592L289.89 580.982L289.776 582.372L289.62 583.761L289.422 585.147L289.182 586.53L288.901 587.909L288.577 589.283L288.213 590.651L287.806 592.013L287.359 593.366L286.871 594.71L286.343 596.045L285.775 597.369L285.168 598.682L284.523 599.982L283.839 601.269L283.118 602.542L282.36 603.8L281.567 605.043L280.739 606.27L279.877 607.48L278.983 608.672L278.056 609.845L277.099 611.001L276.112 612.136L275.096 613.252L274.054 614.348L272.985 615.424L271.892 616.478L270.776 617.511L269.638 618.523L268.48 619.514L267.303 620.483L266.109 621.431L264.899 622.357L263.676 623.262L262.439 624.145L261.192 625.008L259.935 625.85L258.67 626.672L257.399 627.475L256.123 628.258L254.843 629.022L253.562 629.768L252.281 630.497L251 631.209L249.722 631.905L248.447 632.586L247.177 633.253L245.913 633.906L244.656 634.547L243.408 635.177L242.169 635.796L240.94 636.405L239.722 637.006L238.516 637.599L237.322 638.186L236.141 638.768L234.974 639.345L233.821 639.919L232.682 640.49L231.558 641.06L230.448 641.63L229.353 642.2L228.273 642.772L227.208 643.346L226.157 643.923L225.121 644.504L224.099 645.09L223.09 645.681L222.094 646.278L221.11 646.882L220.139 647.492L219.178 648.109L218.228 648.734L217.287 649.367L216.356 650.008L215.431 650.656L214.514 651.312L213.601 651.976L212.694 652.647L211.789 653.323L210.886 654.006L209.984 654.694L209.081 655.385L208.177 656.079L207.269 656.775L206.358 657.472L205.441 658.168L204.517 658.861L203.586 659.551L202.647 660.236L201.698 660.914L200.739 661.583L199.769 662.241L198.787 662.888L197.793 663.521L196.787 664.138L195.768 664.739L194.736 665.32L193.69 665.88L192.631 666.418L191.558 666.931L190.473 667.419L189.374 667.88L188.263 668.312L187.14 668.715L186.006 669.086L184.86 669.426L183.705 669.732L182.541 670.004L181.368 670.242L180.188 670.445L179.001 670.612L177.81 670.743L176.614 670.838L175.415 670.898L174.214 670.922L173.012 670.91L171.81 670.862L170.61 670.78L169.412 670.663L168.217 670.513L167.028 670.329L165.843 670.114L164.666 669.867L163.496 669.59L162.334 669.283L161.182 668.949L160.04 668.588L158.909 668.202L157.789 667.791L156.681 667.359L155.586 666.905L154.505 666.432L153.436 665.941L152.381 665.434L151.341 664.913L150.314 664.379L149.302 663.834L148.304 663.279L147.32 662.716L146.35 662.147L145.393 661.574L144.451 660.997L143.521 660.419L142.603 659.842L141.698 659.265L140.805 658.692L139.922 658.123L139.049 657.559L138.186 657.002L137.332 656.453L136.486 655.913L135.647 655.383L134.814 654.863L133.987 654.354L133.164 653.857L132.346 653.373L131.53 652.902L130.716 652.444L129.903 652L129.091 651.57L128.278 651.153L127.464 650.75L126.648 650.361L125.83 649.985L125.008 649.622L124.183 649.271L123.353 648.931L122.519 648.603L121.681 648.284L120.837 647.973L119.989 647.67L119.136 647.373L118.279 647.081L117.417 646.792L116.552 646.506L115.683 646.219L114.812 645.932L113.938 645.642L113.064 645.348L112.19 645.048L111.316 644.741L110.444 644.426L109.575 644.1L108.71 643.763L107.851 643.414L106.999 643.05L106.154 642.671L105.319 642.277L104.495 641.865L103.683 641.435L102.884 640.986L102.101 640.518L101.333 640.029L100.584 639.52L99.8527 638.99L99.1418 638.44L98.4521 637.868L97.7847 637.274L97.1405 636.66L96.5204 636.025L95.9253 635.37L95.3559 634.695L94.8127 634L94.2963 633.287L93.8072 632.555L93.3456 631.807L92.912 631.041L92.5063 630.261L92.1288 629.465L91.7793 628.656L91.4577 627.834L91.1638 627L90.8972 626.156L90.6576 625.302L90.4443 624.439L90.2568 623.57L90.0943 622.694L89.9561 621.813L89.8413 620.928L89.7488 620.04L89.6778 619.151L89.627 618.26L89.5953 617.37L89.5815 616.481L89.5842 615.594L89.6023 614.71L89.6342 613.83L89.6786 612.954L89.7341 612.084L89.7992 611.22L89.8725 610.362L89.9524 609.512L90.0377 608.669L90.1267 607.834L90.218 607.008L90.3103 606.19L90.4022 605.381L90.4922 604.581L90.5791 603.791L90.6617 603.009L90.7387 602.236L90.809 601.473L90.8715 600.718L90.9252 599.971L90.9691 599.233L91.0025 598.503L91.0244 597.78L91.0343 597.064L91.0315 596.355L91.0155 595.652L90.9859 594.954L90.9423 594.261L90.8845 593.573L90.8123 592.888L90.7257 592.206L90.6246 591.527L90.5089 590.85L90.3787 590.174L90.234 589.498L90.0749 588.822L89.9017 588.146L89.7144 587.467L89.5133 586.787L89.2987 586.105L89.071 585.418L88.8306 584.728L88.5778 584.034L88.3132 583.334L88.0374 582.629L87.7509 581.917L87.4543 581.199L87.1484 580.473L86.8339 579.74L86.5114 578.998L86.1819 578.248L85.8462 577.488L85.5052 576.72L85.1597 575.941L84.8108 575.153L84.4593 574.354L84.1063 573.545L83.7528 572.725L83.3999 571.894L83.0485 571.052L82.6998 570.199L82.3547 569.335L82.0145 568.46L81.68 567.574L81.3526 566.677L81.0331 565.769L80.7226 564.85L80.4222 563.921L80.133 562.981L79.856 562.031L79.5922 561.072L79.3427 560.104L79.1085 559.126L78.8907 558.14L78.6901 557.146L78.5079 556.145L78.3451 555.137L78.2024 554.122L78.0809 553.102L77.9815 552.076L77.9049 551.046L77.8521 550.013L77.8238 548.977L77.8207 547.938L77.8436 546.899L77.8931 545.859L77.9697 544.819L78.0742 543.78L78.2068 542.744L78.3682 541.711L78.5587 540.681L78.7786 539.657L79.0282 538.638L79.3078 537.626L79.6174 536.622L79.9573 535.626L80.3275 534.639L80.7278 533.663L81.1584 532.698L81.6189 531.745L82.1093 530.805L82.6293 529.878L83.1785 528.966L83.7566 528.069L84.3633 527.189L84.9979 526.325L85.6599 525.478L86.3489 524.65L87.0642 523.84L87.805 523.049L88.5707 522.278L89.3606 521.527L90.1737 520.796L91.0094 520.087L91.8667 519.398L92.7447 518.731L93.6425 518.086L94.5592 517.463L95.4939 516.862L96.4454 516.283L97.4129 515.725L98.3952 515.19L99.3913 514.676L100.4 514.184L101.42 513.712L102.451 513.261L103.49 512.83L104.538 512.418L105.592 512.024L106.652 511.647L107.716 511.287L108.784 510.942L109.854 510.612L110.925 510.294L111.997 509.989L113.068 509.694L114.138 509.409L115.206 509.132L116.271 508.862L117.332 508.598L118.39 508.337L119.443 508.08L120.492 507.823L121.535 507.567L122.573 507.31L123.606 507.05L124.633 506.786L125.655 506.518L126.671 506.243L127.683 505.962L128.689 505.672L129.691 505.373L130.69 505.064L131.684 504.745L132.676 504.414L133.665 504.071L134.652 503.715L135.638 503.347L136.624 502.965L137.61 502.57L138.597 502.162L139.586 501.74L140.578 501.305L141.574 500.857L142.574 500.396L143.579 499.923L144.591 499.438L145.609 498.943L146.635 498.437L147.669 497.922L148.712 497.399L149.765 496.868L150.828 496.331L151.902 495.79L152.987 495.245L154.084 494.698L155.194 494.149L156.315 493.602L157.45 493.057L158.597 492.516L159.757 491.98L160.93 491.451L162.116 490.931L163.315 490.421L164.526 489.924L165.749 489.44L166.985 488.971L168.231 488.52L169.488 488.087L170.756 487.674L172.033 487.283L173.318 486.915L174.612 486.571L175.913 486.254L177.22 485.964L178.533 485.702L179.849 485.47L181.169 485.269L182.491 485.099L183.814 484.962L185.137 484.858L186.459 484.788L187.778 484.753L189.094 484.752L190.405 484.788L191.711 484.859L193.009 484.966L194.299 485.109L195.581 485.288L196.852 485.503L198.112 485.753L199.359 486.039L200.594 486.36L201.815 486.714L203.021 487.102L204.213 487.522L205.388 487.974L206.548 488.455L207.691 488.965L208.818 489.503L209.928 490.067L211.022 490.656L212.099 491.268L213.159 491.901L214.204 492.554L215.233 493.226L216.247 493.914L217.247 494.617L218.233 495.334L219.206 496.063L220.166 496.802L221.115 497.551L222.054 498.306L222.984 499.068L223.905 499.835L224.819 500.605L225.727 501.378L226.63 502.152L227.529 502.927L228.425 503.701L229.32 504.474L230.213 505.245L231.108 506.013L232.004 506.779L232.902 507.541L233.804 508.299L234.71 509.054L235.621 509.805L236.538 510.553L237.461 511.296L238.391 512.037L239.329 512.775L240.274 513.51L241.228 514.242L242.189 514.974L243.16 515.704L244.139 516.433L245.127 517.162L246.124 517.892L247.129 518.624L248.143 519.358L249.165 520.094L250.195 520.835L251.232 521.58L252.276 522.33L253.326 523.087L254.381 523.85L255.441 524.621L256.505 525.401L257.573 526.19L258.642 526.99L259.713 527.8L260.783 528.622L261.853 529.456L262.92 530.304L263.984 531.165L265.043 532.04L266.097 532.93L267.143 533.835L268.181 534.757L269.209 535.694L270.227 536.648L271.231 537.619L272.222 538.607L273.198 539.612L274.157 540.635L275.099 541.675L276.022 542.733L276.924 543.808L277.805 544.902L278.663 546.012L279.497 547.14L280.306 548.285L281.089 549.446L281.844 550.624L282.572 551.818L283.27 553.028Z" fill="url(#paint4_linear_68:20)" fill-opacity="0.26"/>
<path fill-rule="evenodd" clip-rule="evenodd" d="M304.195 550.445L304.986 551.895L305.74 553.363L306.457 554.848L307.135 556.349L307.774 557.865L308.372 559.396L308.929 560.941L309.445 562.499L309.918 564.07L310.348 565.652L310.734 567.244L311.075 568.847L311.37 570.458L311.62 572.077L311.823 573.703L311.979 575.335L312.087 576.972L312.148 578.613L312.159 580.257L312.122 581.903L312.036 583.549L311.9 585.195L311.715 586.839L311.481 588.481L311.197 590.119L310.863 591.752L310.48 593.379L310.047 594.999L309.566 596.611L309.036 598.214L308.458 599.806L307.833 601.386L307.16 602.955L306.441 604.509L305.676 606.049L304.866 607.573L304.011 609.081L303.114 610.571L302.174 612.043L301.193 613.496L300.172 614.928L299.112 616.34L298.015 617.73L296.88 619.098L295.711 620.443L294.508 621.765L293.273 623.063L292.007 624.336L290.712 625.585L289.39 626.809L288.042 628.008L286.67 629.181L285.276 630.329L283.861 631.451L282.428 632.548L280.978 633.619L279.513 634.666L278.036 635.688L276.547 636.685L275.048 637.659L273.542 638.609L272.031 639.536L270.515 640.442L268.997 641.325L267.479 642.189L265.962 643.032L264.448 643.856L262.937 644.663L261.433 645.453L259.936 646.227L258.447 646.986L256.968 647.731L255.5 648.464L254.045 649.186L252.602 649.898L251.173 650.6L249.758 651.296L248.36 651.984L246.977 652.668L245.611 653.348L244.262 654.024L242.93 654.7L241.615 655.375L240.319 656.05L239.039 656.727L237.777 657.407L236.533 658.091L235.305 658.779L234.094 659.473L232.898 660.173L231.719 660.88L230.553 661.594L229.402 662.317L228.265 663.048L227.139 663.789L226.025 664.538L224.921 665.297L223.826 666.065L222.739 666.842L221.658 667.628L220.583 668.422L219.511 669.224L218.442 670.032L217.373 670.847L216.303 671.665L215.232 672.488L214.157 673.312L213.077 674.137L211.99 674.961L210.896 675.783L209.793 676.6L208.68 677.411L207.556 678.213L206.42 679.006L205.271 679.786L204.108 680.552L202.931 681.302L201.739 682.033L200.532 682.743L199.309 683.432L198.07 684.095L196.815 684.732L195.544 685.34L194.258 685.918L192.957 686.464L191.641 686.976L190.311 687.453L188.967 687.893L187.61 688.295L186.241 688.658L184.862 688.98L183.473 689.262L182.075 689.502L180.669 689.7L179.258 689.856L177.841 689.969L176.42 690.039L174.998 690.067L173.574 690.053L172.15 689.997L170.729 689.9L169.31 689.762L167.895 689.584L166.485 689.367L165.083 689.112L163.688 688.819L162.302 688.491L160.926 688.128L159.561 687.732L158.208 687.305L156.868 686.848L155.542 686.362L154.23 685.85L152.933 685.313L151.651 684.753L150.385 684.172L149.136 683.571L147.903 682.954L146.687 682.321L145.488 681.676L144.306 681.019L143.14 680.352L141.991 679.679L140.858 679L139.742 678.317L138.64 677.633L137.554 676.949L136.481 676.267L135.423 675.588L134.377 674.914L133.344 674.246L132.321 673.587L131.309 672.937L130.307 672.297L129.313 671.669L128.327 671.053L127.347 670.451L126.373 669.863L125.403 669.29L124.436 668.732L123.472 668.19L122.509 667.664L121.547 667.154L120.584 666.661L119.62 666.184L118.654 665.723L117.684 665.278L116.711 664.848L115.733 664.432L114.751 664.03L113.763 663.641L112.77 663.263L111.77 662.896L110.766 662.537L109.755 662.186L108.74 661.84L107.719 661.498L106.694 661.158L105.665 660.819L104.633 660.479L103.598 660.136L102.563 659.787L101.527 659.433L100.492 659.069L99.4589 658.696L98.4297 658.31L97.4054 657.911L96.3876 657.497L95.3777 657.067L94.3774 656.619L93.3883 656.151L92.4119 655.663L91.45 655.154L90.5041 654.623L89.5759 654.068L88.6669 653.49L87.7788 652.887L86.913 652.26L86.0709 651.608L85.254 650.931L84.4634 650.228L83.7003 649.501L82.9659 648.749L82.261 647.973L81.5864 647.173L80.943 646.351L80.3314 645.506L79.752 644.64L79.2054 643.753L78.6917 642.847L78.2113 641.922L77.7641 640.98L77.3502 640.022L76.9693 639.049L76.6212 638.061L76.3055 637.061L76.0217 636.05L75.7691 635.029L75.547 633.999L75.3547 632.962L75.191 631.919L75.055 630.871L74.9456 629.82L74.8615 628.766L74.8014 627.712L74.764 626.657L74.7477 625.605L74.751 624.554L74.7725 623.507L74.8103 622.465L74.863 621.428L74.9288 620.398L75.0061 619.374L75.0929 618.359L75.1877 617.351L75.2888 616.353L75.3943 615.365L75.5026 614.386L75.612 613.418L75.7208 612.46L75.8276 611.513L75.9306 610.576L76.0285 609.65L76.1198 608.736L76.2031 607.831L76.2772 606.937L76.3409 606.053L76.393 605.179L76.4326 604.314L76.4586 603.458L76.4704 602.61L76.4671 601.77L76.4482 600.938L76.4132 600.111L76.3616 599.291L76.2932 598.476L76.2078 597.665L76.1052 596.858L75.9855 596.054L75.8485 595.251L75.6943 594.451L75.523 593.65L75.3346 592.85L75.1294 592.049L74.9076 591.246L74.6695 590.44L74.4154 589.632L74.1457 588.819L73.8609 588.002L73.5616 587.18L73.2482 586.351L72.9215 585.516L72.5822 584.673L72.231 583.822L71.8686 582.963L71.4961 582.095L71.1142 581.216L70.7239 580.328L70.3263 579.429L69.9224 578.519L69.5132 577.597L69.0999 576.663L68.6836 575.717L68.2656 574.759L67.8469 573.788L67.4289 572.804L67.0127 571.807L66.5996 570.797L66.191 569.774L65.788 568.737L65.3919 567.688L65.0041 566.625L64.6257 565.55L64.258 564.462L63.9023 563.362L63.5597 562.249L63.2317 561.125L62.9193 559.989L62.6238 558.842L62.3464 557.684L62.0885 556.517L61.851 555.34L61.6353 554.154L61.4424 552.96L61.2735 551.758L61.1297 550.55L61.012 549.335L60.9214 548.116L60.8589 546.892L60.8255 545.665L60.8219 544.435L60.8491 543.204L60.9078 541.972L60.9987 540.741L61.1225 539.511L61.2797 538.284L61.471 537.06L61.6967 535.841L61.9573 534.628L62.2531 533.422L62.5844 532.223L62.9513 531.034L63.354 529.854L63.7925 528.686L64.2669 527.53L64.777 526.387L65.3226 525.258L65.9036 524.145L66.5197 523.047L67.1704 521.967L67.8553 520.905L68.574 519.862L69.3258 518.839L70.1102 517.837L70.9264 516.855L71.7737 515.896L72.6514 514.96L73.5585 514.046L74.4942 513.157L75.4576 512.292L76.4475 511.451L77.4631 510.636L78.5033 509.846L79.5669 509.082L80.6529 508.344L81.7601 507.632L82.8874 506.946L84.0335 506.286L85.1972 505.652L86.3772 505.043L87.5722 504.46L88.7807 503.902L90.0015 503.367L91.233 502.857L92.4739 502.368L93.7229 501.902L94.9784 501.455L96.2392 501.029L97.5041 500.62L98.7717 500.229L100.041 499.853L101.31 499.492L102.579 499.143L103.847 498.805L105.112 498.477L106.373 498.157L107.631 497.844L108.884 497.535L110.131 497.23L111.373 496.926L112.609 496.623L113.839 496.318L115.062 496.01L116.279 495.698L117.489 495.38L118.694 495.055L119.892 494.721L121.084 494.378L122.271 494.024L123.454 493.658L124.632 493.279L125.806 492.887L126.978 492.481L128.148 492.06L129.316 491.624L130.484 491.172L131.652 490.704L132.821 490.22L133.993 489.721L135.168 489.205L136.348 488.674L137.532 488.129L138.723 487.568L139.921 486.994L141.128 486.407L142.343 485.808L143.568 485.198L144.804 484.579L146.051 483.95L147.31 483.315L148.583 482.673L149.868 482.028L151.168 481.379L152.482 480.73L153.811 480.082L155.155 479.436L156.514 478.795L157.888 478.161L159.278 477.534L160.683 476.918L162.103 476.315L163.538 475.725L164.987 475.152L166.45 474.597L167.927 474.062L169.416 473.549L170.918 473.06L172.43 472.597L173.953 472.161L175.486 471.754L177.027 471.378L178.576 471.035L180.13 470.725L181.69 470.45L183.253 470.211L184.819 470.01L186.387 469.847L187.954 469.724L189.52 469.641L191.083 469.599L192.641 469.599L194.195 469.641L195.741 469.725L197.279 469.851L198.808 470.021L200.325 470.233L201.831 470.487L203.323 470.784L204.801 471.122L206.264 471.501L207.71 471.921L209.139 472.38L210.551 472.878L211.943 473.412L213.317 473.982L214.671 474.587L216.006 475.223L217.321 475.891L218.616 476.588L219.892 477.313L221.148 478.062L222.386 478.836L223.605 479.631L224.806 480.446L225.99 481.279L227.158 482.128L228.31 482.991L229.448 483.866L230.573 484.752L231.685 485.647L232.786 486.549L233.877 487.457L234.96 488.37L236.035 489.285L237.105 490.201L238.169 491.118L239.231 492.035L240.29 492.95L241.349 493.863L242.409 494.773L243.47 495.679L244.534 496.582L245.603 497.48L246.676 498.374L247.755 499.263L248.841 500.148L249.935 501.029L251.036 501.906L252.147 502.779L253.267 503.65L254.396 504.518L255.535 505.383L256.685 506.248L257.845 507.111L259.015 507.975L260.196 508.84L261.387 509.706L262.588 510.575L263.798 511.447L265.018 512.324L266.246 513.206L267.483 514.094L268.726 514.99L269.977 515.894L271.233 516.807L272.493 517.73L273.757 518.665L275.024 519.612L276.292 520.571L277.56 521.544L278.827 522.532L280.091 523.536L281.352 524.555L282.606 525.592L283.854 526.646L285.094 527.718L286.323 528.809L287.541 529.919L288.746 531.048L289.936 532.198L291.11 533.368L292.266 534.558L293.402 535.769L294.518 537.001L295.611 538.254L296.679 539.527L297.723 540.822L298.739 542.137L299.727 543.472L300.685 544.828L301.612 546.203L302.507 547.598L303.369 549.012L304.195 550.445Z" fill="url(#paint5_linear_68:20)" fill-opacity="0.26"/>
<path d="M154.731 581.264C154.733 581.277 154.733 581.304 154.729 581.345C154.812 582.367 154.416 582.977 153.539 583.174C153.235 583.243 152.951 583.227 152.688 583.126C152.105 582.91 151.729 582.428 151.561 581.678L150.602 571.383L141.856 573.354C142.274 577.518 142.596 581.049 142.822 583.948C142.876 585.017 142.473 585.655 141.612 585.862C141.333 585.925 141.069 585.911 140.822 585.82C140.211 585.598 139.82 585.105 139.648 584.343C139.575 583.665 139.067 577.974 138.122 567.269C137.546 560.685 137.253 557.374 137.245 557.336C137.202 557.145 137.228 556.906 137.323 556.617C137.543 555.994 137.907 555.625 138.415 555.51C138.656 555.456 138.899 555.468 139.144 555.546C139.705 555.727 140.069 556.098 140.236 556.661L141.556 570.158C143.596 569.672 146.514 569.001 150.312 568.145C150.207 567.087 150.04 565.277 149.809 562.713C149.512 559.323 149.268 556.641 149.077 554.669C149.059 554.473 149.067 554.271 149.101 554.063C149.243 553.39 149.644 552.979 150.304 552.831C150.546 552.776 150.795 552.787 151.052 552.862C151.626 553.04 151.997 553.41 152.164 553.973L153.456 567.436L158.258 566.354C158.55 566.288 158.834 566.278 159.111 566.322C159.809 566.458 160.234 566.863 160.386 567.536C160.432 567.74 160.427 567.954 160.371 568.18C160.234 568.758 159.81 569.188 159.099 569.468L153.784 570.666C154.376 576.966 154.692 580.499 154.731 581.264ZM170.689 568.478C170.616 567.68 170.415 566.197 170.086 564.029C170.076 563.924 170.067 563.826 170.06 563.734C170.032 562.9 170.428 562.377 171.248 562.165C171.286 562.156 171.332 562.153 171.386 562.154C172.089 562.076 172.552 562.532 172.775 563.523C172.833 563.777 172.893 564.163 172.957 564.683C172.983 564.917 173.003 565.093 173.016 565.21C173.575 568.701 173.958 570.904 174.165 571.819C174.239 572.149 174.333 572.475 174.445 572.797C175.012 574.364 175.759 575.043 176.686 574.834C176.813 574.805 176.944 574.763 177.078 574.706C177.426 574.534 177.899 574.114 178.495 573.445C179.08 572.78 179.581 572.4 180 572.305C180.165 572.268 180.336 572.283 180.511 572.35C180.959 572.503 181.241 572.833 181.355 573.341C181.364 573.379 181.369 573.432 181.37 573.498C181.419 574.128 181.033 574.875 180.214 575.741C179.213 576.807 178.128 577.472 176.96 577.736C175.382 578.078 174.096 577.614 173.102 576.343C172.293 577.966 170.919 579.004 168.978 579.454C168.521 579.557 168.076 579.598 167.644 579.575C165.269 579.403 163.607 577.208 162.656 572.991C162.198 570.959 161.96 568.863 161.94 566.705C161.943 566.598 161.944 566.484 161.944 566.364C162.023 564.878 162.424 564.054 163.148 563.891C164.053 563.7 164.628 564.091 164.874 565.063C164.92 565.266 164.964 565.73 165.007 566.455C165.204 569.4 165.445 571.508 165.732 572.778C166.327 575.42 167.301 576.602 168.653 576.324C170.391 575.919 171.069 573.304 170.689 568.478ZM177.801 571.52C177.704 571.088 177.626 570.625 177.568 570.131C177.342 567.886 177.592 565.794 178.316 563.856C179.199 561.494 180.586 560.1 182.479 559.674C183.305 559.488 184.065 559.483 184.759 559.661C184.944 559.299 185.251 559.062 185.68 558.952C186.521 558.776 187.075 559.219 187.341 560.28C187.349 560.318 187.784 565.506 188.646 575.843C190.981 573.114 192.453 571.354 193.062 570.563C193.44 570.05 193.882 569.731 194.387 569.603C194.565 569.563 194.749 569.582 194.94 569.659C195.366 569.83 195.623 570.112 195.712 570.506C195.834 571.106 195.618 571.775 195.063 572.514C194.034 573.867 192 576.361 188.961 579.996L189.506 586.5C189.617 587.997 189.25 589.241 188.405 590.232C187.714 591.015 186.873 591.518 185.882 591.742C184.711 591.992 183.576 591.781 182.476 591.108C181.415 590.426 180.763 589.545 180.519 588.466C180.279 587.399 180.321 586.461 180.646 585.654C180.851 585.141 181.319 584.461 182.049 583.616L182.083 583.588C182.093 583.573 182.124 583.532 182.176 583.467C182.906 582.622 184.168 581.143 185.961 579.03L185.68 575.21C184.958 575.973 184.135 576.466 183.21 576.687C182.397 576.87 181.645 576.82 180.954 576.535C179.459 575.884 178.408 574.212 177.801 571.52ZM184.857 571.291C184.978 570.997 185.04 570.268 185.045 569.106C185.059 566.74 184.925 564.395 184.641 562.07C184.314 561.983 183.997 561.968 183.689 562.024C183.461 562.075 183.233 562.16 183.006 562.278C181.899 562.875 181.142 564.193 180.734 566.234C180.385 568.061 180.4 569.813 180.777 571.489C180.818 571.667 180.864 571.844 180.917 572.019C181.306 573.332 181.85 573.91 182.549 573.753C182.905 573.673 183.296 573.398 183.724 572.928C184.227 572.374 184.604 571.828 184.857 571.291ZM186.438 585.59C186.438 585.59 186.371 584.791 186.238 583.192C186.196 583.242 186.149 583.299 186.097 583.364C185.057 584.613 184.527 585.253 184.507 585.284C183.747 586.176 183.43 586.929 183.554 587.541C183.603 587.757 183.687 587.952 183.806 588.125C184.148 588.635 184.611 588.825 185.195 588.693C185.437 588.639 185.644 588.552 185.817 588.433C186.38 588.026 186.587 587.078 186.438 585.59ZM192.548 568.196C192.451 567.764 192.373 567.301 192.315 566.807C192.09 564.562 192.339 562.47 193.063 560.532C193.946 558.171 195.334 556.777 197.226 556.35C198.052 556.164 198.812 556.16 199.506 556.337C199.691 555.975 199.998 555.739 200.427 555.629C201.269 555.452 201.822 555.895 202.088 556.956C202.097 556.994 202.532 562.182 203.393 572.519C205.728 569.79 207.2 568.03 207.809 567.239C208.187 566.727 208.629 566.407 209.134 566.28C209.312 566.239 209.497 566.258 209.688 566.335C210.113 566.506 210.37 566.789 210.459 567.182C210.581 567.782 210.365 568.452 209.811 569.19C208.781 570.544 206.747 573.038 203.709 576.672L204.254 583.176C204.364 584.673 203.997 585.917 203.153 586.908C202.461 587.691 201.621 588.194 200.63 588.418C199.458 588.668 198.323 588.457 197.223 587.784C196.162 587.102 195.51 586.221 195.267 585.142C195.026 584.075 195.068 583.138 195.394 582.33C195.598 581.817 196.066 581.138 196.796 580.292L196.83 580.265C196.84 580.249 196.871 580.209 196.923 580.144C197.653 579.298 198.915 577.819 200.708 575.707L200.427 571.886C199.705 572.649 198.882 573.142 197.958 573.363C197.145 573.547 196.392 573.496 195.701 573.211C194.206 572.561 193.155 570.889 192.548 568.196ZM199.604 567.967C199.725 567.673 199.788 566.945 199.793 565.782C199.807 563.417 199.672 561.071 199.388 558.746C199.062 558.659 198.744 558.644 198.437 558.7C198.208 558.752 197.98 558.836 197.753 558.954C196.646 559.551 195.889 560.869 195.481 562.91C195.132 564.737 195.147 566.489 195.525 568.166C195.565 568.344 195.611 568.52 195.664 568.695C196.054 570.009 196.598 570.587 197.296 570.429C197.652 570.349 198.044 570.074 198.472 569.604C198.974 569.05 199.352 568.504 199.604 567.967ZM201.185 582.266C201.185 582.266 201.119 581.467 200.985 579.869C200.943 579.918 200.896 579.976 200.844 580.041C199.804 581.289 199.274 581.929 199.255 581.961C198.495 582.853 198.177 583.605 198.302 584.217C198.35 584.433 198.434 584.628 198.553 584.801C198.895 585.312 199.358 585.501 199.943 585.369C200.184 585.315 200.391 585.228 200.565 585.109C201.127 584.702 201.334 583.754 201.185 582.266ZM209.143 555.126C209.226 555.494 209.342 556.302 209.49 557.55C209.909 561.247 210.217 563.533 210.415 564.409C210.546 564.994 210.79 565.513 211.146 565.966C211.674 566.648 212.236 566.922 212.833 566.787C212.96 566.759 213.09 566.716 213.224 566.659C213.573 566.487 214.039 566.068 214.623 565.403C215.194 564.74 215.69 564.362 216.109 564.267C216.287 564.227 216.479 564.251 216.685 564.338C217.098 564.511 217.352 564.808 217.446 565.227C217.542 565.886 217.194 566.685 216.405 567.624C215.42 568.7 214.285 569.383 213.002 569.672C211.923 569.916 210.943 569.743 210.063 569.154C208.738 568.251 207.795 566.555 207.234 564.065C207.042 563.214 206.839 561.511 206.623 558.957C206.515 557.767 206.431 556.892 206.372 556.331C206.359 556.214 206.346 556.097 206.333 555.98C206.249 554.663 206.627 553.911 207.465 553.722C207.605 553.691 207.748 553.672 207.893 553.666C208.509 553.674 208.926 554.16 209.143 555.126ZM205.846 550.623C205.795 550.395 205.797 550.167 205.853 549.941C205.995 549.389 206.352 549.048 206.924 548.919C207.152 548.867 207.38 548.87 207.606 548.925C208.158 549.068 208.499 549.425 208.628 549.996C208.679 550.225 208.677 550.452 208.621 550.679C208.479 551.231 208.122 551.572 207.551 551.701C207.322 551.752 207.094 551.75 206.868 551.694C206.316 551.552 205.975 551.195 205.846 550.623ZM215.254 563.139C215.156 562.707 215.079 562.244 215.021 561.75C214.798 559.517 215.049 557.432 215.773 555.494C216.653 553.12 218.039 551.719 219.932 551.293C220.44 551.178 220.943 551.132 221.442 551.153C223.227 551.257 224.332 552.25 224.756 554.13C224.787 554.269 224.814 554.417 224.835 554.572C225.092 556.303 224.652 557.904 223.515 559.375C222.401 560.827 220.936 561.758 219.119 562.167C218.776 562.245 218.432 562.289 218.088 562.3C218.105 562.496 218.153 562.765 218.23 563.108C218.396 563.845 218.652 564.388 218.998 564.737C219.458 565.181 220.232 565.327 221.319 565.175C221.789 565.069 222.241 564.914 222.675 564.709C223.433 564.338 224.277 563.674 225.209 562.717C225.815 562.086 226.263 561.738 226.556 561.672C226.721 561.635 226.904 561.647 227.104 561.709C227.565 561.859 227.847 562.162 227.95 562.619C227.985 562.772 227.99 562.944 227.967 563.136C227.81 564.039 226.957 565.052 225.408 566.176C223.975 567.219 222.655 567.877 221.448 568.149C220.991 568.252 220.557 568.31 220.146 568.323C217.675 568.372 216.044 566.644 215.254 563.139ZM219.729 554.482C218.748 555.517 218.172 557.195 218.001 559.516C218.336 559.521 218.649 559.49 218.941 559.424C219.996 559.187 220.844 558.655 221.485 557.83C222.201 556.921 222.449 555.978 222.229 555C222.008 554.021 221.585 553.596 220.96 553.724C220.518 553.837 220.108 554.089 219.729 554.482Z" fill="#EFECEC"/>
<defs>
<linearGradient id="paint0_linear_68:20" x1="288.377" y1="221.315" x2="274.342" y2="236.296" gradientUnits="userSpaceOnUse">
<stop stop-color="white" stop-opacity="0.6"/>
<stop offset="0.8878" stop-color="white" stop-opacity="0.1"/>
</linearGradient>
<linearGradient id="paint1_linear_68:20" x1="287.766" y1="219.392" x2="273.755" y2="234.346" gradientUnits="userSpaceOnUse">
<stop stop-color="white" stop-opacity="0.6"/>
<stop offset="0.8878" stop-color="white" stop-opacity="0.1"/>
</linearGradient>
<linearGradient id="paint2_linear_68:20" x1="-111.663" y1="843.279" x2="22.4007" y2="926.013" gradientUnits="userSpaceOnUse">
<stop stop-color="white"/>
<stop offset="1" stop-color="#E61D7D"/>
</linearGradient>
<linearGradient id="paint3_linear_68:20" x1="-132.992" y1="878.163" x2="17.9107" y2="965.664" gradientUnits="userSpaceOnUse">
<stop stop-color="white"/>
<stop offset="1" stop-color="#E61D7D"/>
</linearGradient>
<linearGradient id="paint4_linear_68:20" x1="-166.966" y1="911.932" x2="1.6235" y2="1009.51" gradientUnits="userSpaceOnUse">
<stop stop-color="white"/>
<stop offset="1" stop-color="#E61D7D"/>
</linearGradient>
<linearGradient id="paint5_linear_68:20" x1="-229.183" y1="975.509" x2="-29.5205" y2="1091.12" gradientUnits="userSpaceOnUse">
<stop stop-color="white"/>
<stop offset="1" stop-color="#E61D7D"/>
</linearGradient>
</defs>
</svg>
