<svg width="34" height="34" viewBox="0 0 34 34" fill="none" xmlns="http://www.w3.org/2000/svg">
<g filter="url(#filter0_d)">
<path d="M27.1629 8.05731C24.7028 1.00735 17.5607 4.43398 16.9982 8.02047C15.9411 4.24854 8.79397 1.64969 6.85987 8.75402C4.71049 16.637 16.6727 23.2163 17.5583 24.3428C18.3728 23.399 29.8427 15.63 27.1629 8.05731Z" fill="#E61D7D"/>
<path d="M28.2322 6.28528C27.9591 5.37875 27.5281 4.57405 26.941 3.91932C26.3942 3.26321 25.6912 2.75708 24.9948 2.44354C24.6257 2.26339 24.2598 2.17953 23.8939 2.09568C23.6909 2.05444 23.5297 2.05997 23.3267 2.01873L22.7627 2.03809L23.256 2.31039L23.7493 2.58269C24.0782 2.76423 24.4071 2.94576 24.6973 3.17683C25.3165 3.58943 25.8583 4.10109 26.3616 4.66229C26.8648 5.22348 27.2505 5.88512 27.6395 6.64305C27.8138 7.02271 27.9882 7.40237 28.1223 7.78341C28.2094 7.97324 28.258 8.2126 28.3451 8.40243L28.568 9.02145C28.6001 8.77932 28.5918 8.53858 28.5852 8.34599C28.5769 8.10524 28.5687 7.8645 28.5218 7.67329C28.465 7.19319 28.3679 6.71447 28.2322 6.28528Z" fill="#E61D7D"/>
<path d="M28.9934 4.9578C28.9415 4.62214 28.8897 4.28649 28.7975 3.95221C28.6133 3.28366 28.2695 2.66879 27.8485 2.15298C27.4275 1.63717 26.9309 1.26857 26.4006 1.09395C26.1153 1.00733 25.8703 0.919325 25.5866 0.880853C25.4658 0.885 25.303 0.842381 25.1821 0.846528C25.0613 0.850675 24.9001 0.856204 24.7809 0.9085C24.9051 1.00065 25.0276 1.04465 25.1518 1.1368C25.234 1.18219 25.3581 1.27434 25.4806 1.31834C25.7273 1.45449 25.9337 1.59202 26.1417 1.7777C26.5561 2.10092 26.9722 2.47228 27.3077 2.84641C27.6448 3.26869 27.9433 3.7405 28.2435 4.26046C28.3726 4.49705 28.5033 4.7818 28.6341 5.06654C28.6793 5.2096 28.7649 5.35128 28.8101 5.49435C28.8554 5.63741 28.9409 5.77909 28.9878 5.9703C29.0214 5.77633 29.0165 5.63188 29.0099 5.43929L28.9934 4.9578Z" fill="#E61D7D"/>
<path d="M5.84483 8.54809C5.95246 8.15876 6.09873 7.71989 6.2483 7.37732C6.54413 6.59589 6.92384 5.90798 7.38742 5.31361C7.851 4.71924 8.35652 4.17164 8.94591 3.71757C9.21963 3.46715 9.53529 3.26349 9.85096 3.05984L10.3244 2.75436L10.7979 2.44888L10.234 2.46823C10.0325 2.47515 9.87307 2.52882 9.6733 2.58388C9.31405 2.69262 8.9548 2.80136 8.59885 3.0064C7.92559 3.36694 7.29922 3.91869 6.79866 4.61074C6.29811 5.30279 5.88307 6.13652 5.67276 7.05964C5.56678 7.49712 5.50273 7.98137 5.47732 8.41609C5.4453 8.65821 5.45356 8.89896 5.46017 9.09155C5.46843 9.33229 5.47669 9.57304 5.52358 9.76425L5.70352 9.1314C5.7372 8.93743 5.77087 8.74345 5.84483 8.54809Z" fill="#E61D7D"/>
<path d="M6.36148 3.61334C6.66889 3.16895 7.05851 2.76993 7.44978 2.41907C7.64624 2.26771 7.88134 2.06683 8.0778 1.91547C8.19535 1.81502 8.31455 1.76273 8.43209 1.66228C8.54964 1.56184 8.66884 1.50954 8.78639 1.4091C8.66554 1.41325 8.50275 1.37063 8.3819 1.37477C8.26104 1.37892 8.09991 1.38445 7.98071 1.43675C7.70038 1.49457 7.46198 1.59916 7.18329 1.70514C6.62923 2.01338 6.15904 2.41516 5.77273 2.91047C5.38806 3.45392 5.08727 4.09091 4.94927 4.77052C4.88026 5.11033 4.85155 5.44875 4.82283 5.78717L4.841 6.31681C4.84761 6.5094 4.85257 6.65385 4.89946 6.84506C4.93479 6.69923 5.0104 6.55202 5.04407 6.35804C5.11803 6.16268 5.15336 6.01686 5.22897 5.86965C5.33991 5.57661 5.45085 5.28357 5.56344 5.03868C5.78697 4.50075 6.05243 4.00959 6.36148 3.61334Z" fill="#E61D7D"/>
<path d="M7.5669 17.5997L7.52992 17.6974C7.75612 18.4127 8.09822 18.9794 8.44031 19.5461C8.78241 20.1129 9.20177 20.5805 9.61948 21C10.0372 21.4195 10.4952 21.8377 10.9918 22.2063C11.4884 22.5749 12.022 22.8458 12.6329 23.0177L12.6699 22.92C11.8312 21.9847 10.9941 21.0975 10.157 20.2103C9.28132 19.3727 8.4426 18.4373 7.5669 17.5997Z" fill="#E61D7D"/>
<path d="M5.92481 19.1021L5.88783 19.1998C6.1979 20.0087 6.58359 20.6703 7.0079 21.2824C7.43222 21.8945 7.89517 22.4571 8.39675 22.9701C8.89833 23.4832 9.39826 23.9481 9.97875 24.4102C10.5576 24.8242 11.1364 25.2382 11.8295 25.4554L11.8665 25.3577C10.902 24.2821 9.89882 23.256 8.93429 22.1804C7.93113 21.1543 6.92631 20.0801 5.92481 19.1021Z" fill="#E61D7D"/>
<path d="M25.2906 20.4621C25.677 19.9667 26.0633 19.4714 26.3674 18.9307C26.6715 18.3901 26.9723 17.7531 27.1489 17.0239L27.1053 16.929C26.2891 17.8247 25.5165 18.8153 24.7002 19.711C23.9259 20.6535 23.1517 21.596 22.379 22.5866L22.4226 22.6815C23.0203 22.4682 23.5324 22.1132 24.0042 21.7595C24.4744 21.3578 24.8624 20.9106 25.2906 20.4621Z" fill="#E61D7D"/>
<path d="M26.0151 21.5942C25.1266 22.7334 24.1961 23.8259 23.3076 24.9651L23.3512 25.06C24.0261 24.7476 24.5768 24.3431 25.1259 23.8904C25.675 23.4377 26.1419 22.9396 26.6055 22.3452C27.0707 21.799 27.494 21.206 27.8754 20.5663C28.2568 19.9265 28.5962 19.24 28.8501 18.4118L28.8065 18.3169C27.8744 19.3612 26.9456 20.5018 26.0151 21.5942Z" fill="#E61D7D"/>
</g>
<defs>
<filter id="filter0_d" x="0.822754" y="0.846191" width="32.1919" height="32.6094" filterUnits="userSpaceOnUse" color-interpolation-filters="sRGB">
<feFlood flood-opacity="0" result="BackgroundImageFix"/>
<feColorMatrix in="SourceAlpha" type="matrix" values="0 0 0 0 0 0 0 0 0 0 0 0 0 0 0 0 0 0 127 0" result="hardAlpha"/>
<feOffset dy="4"/>
<feGaussianBlur stdDeviation="2"/>
<feComposite in2="hardAlpha" operator="out"/>
<feColorMatrix type="matrix" values="0 0 0 0 0 0 0 0 0 0 0 0 0 0 0 0 0 0 0.25 0"/>
<feBlend mode="normal" in2="BackgroundImageFix" result="effect1_dropShadow"/>
<feBlend mode="normal" in="SourceGraphic" in2="effect1_dropShadow" result="shape"/>
</filter>
</defs>
</svg>
