<svg width="308" height="270" viewBox="0 0 308 270" fill="none" xmlns="http://www.w3.org/2000/svg">
<path fill-rule="evenodd" clip-rule="evenodd" d="M254.625 128.904L255.025 130.233L255.391 131.569L255.72 132.913L256.013 134.262L256.27 135.617L256.488 136.976L256.669 138.339L256.811 139.705L256.914 141.074L256.977 142.444L257 143.814L256.983 145.185L256.924 146.554L256.825 147.921L256.684 149.285L256.501 150.646L256.276 152.001L256.009 153.351L255.699 154.695L255.347 156.031L254.952 157.358L254.515 158.676L254.035 159.984L253.514 161.28L252.95 162.565L252.344 163.836L251.697 165.093L251.008 166.336L250.279 167.562L249.51 168.773L248.702 169.966L247.854 171.14L246.968 172.296L246.045 173.432L245.085 174.548L244.089 175.643L243.059 176.716L241.994 177.767L240.897 178.795L239.767 179.8L238.607 180.781L237.418 181.738L236.2 182.671L234.955 183.578L233.684 184.461L232.388 185.318L231.069 186.15L229.729 186.956L228.368 187.737L226.989 188.493L225.592 189.223L224.18 189.928L222.753 190.608L221.314 191.264L219.863 191.895L218.403 192.503L216.936 193.087L215.461 193.649L213.982 194.19L212.499 194.708L211.014 195.207L209.529 195.686L208.045 196.145L206.563 196.588L205.084 197.013L203.611 197.422L202.143 197.816L200.683 198.197L199.231 198.564L197.788 198.92L196.355 199.266L194.934 199.602L193.524 199.93L192.127 200.252L190.743 200.567L189.373 200.878L188.017 201.185L186.676 201.49L185.349 201.793L184.038 202.096L182.742 202.401L181.461 202.707L180.195 203.016L178.944 203.328L177.708 203.646L176.486 203.968L175.279 204.297L174.085 204.633L172.905 204.976L171.737 205.328L170.581 205.688L169.436 206.057L168.302 206.435L167.178 206.822L166.062 207.219L164.955 207.626L163.854 208.042L162.76 208.467L161.67 208.901L160.584 209.344L159.502 209.794L158.421 210.251L157.34 210.714L156.259 211.182L155.177 211.654L154.092 212.128L153.004 212.603L151.911 213.077L150.813 213.55L149.709 214.019L148.598 214.483L147.479 214.94L146.353 215.388L145.218 215.826L144.074 216.251L142.922 216.662L141.76 217.057L140.589 217.435L139.408 217.792L138.219 218.129L137.02 218.443L135.813 218.732L134.598 218.994L133.376 219.23L132.146 219.436L130.911 219.612L129.67 219.756L128.424 219.868L127.175 219.946L125.923 219.99L124.669 220L123.415 219.974L122.162 219.913L120.91 219.816L119.662 219.683L118.417 219.515L117.177 219.312L115.943 219.073L114.717 218.8L113.499 218.492L112.291 218.151L111.093 217.778L109.906 217.372L108.732 216.936L107.571 216.469L106.424 215.974L105.291 215.452L104.174 214.903L103.073 214.329L101.989 213.731L100.921 213.111L99.8705 212.471L98.8377 211.812L97.8225 211.135L96.8253 210.442L95.8458 209.736L94.8842 209.016L93.9403 208.286L93.0138 207.546L92.1043 206.798L91.2116 206.045L90.3352 205.287L89.4744 204.526L88.6287 203.764L87.7974 203.001L86.9798 202.24L86.175 201.482L85.3822 200.728L84.6006 199.98L83.8291 199.237L83.0668 198.503L82.3127 197.777L81.5658 197.06L80.8251 196.354L80.0894 195.658L79.3577 194.975L78.6291 194.303L77.9025 193.644L77.1768 192.998L76.4511 192.365L75.7244 191.745L74.9958 191.139L74.2644 190.546L73.5293 189.967L72.7899 189.4L72.0454 188.846L71.2952 188.305L70.5388 187.775L69.7757 187.256L69.0057 186.747L68.2287 186.248L67.4447 185.757L66.6539 185.273L65.8564 184.796L65.0527 184.323L64.2432 183.854L63.4287 183.388L62.6099 182.922L61.7876 182.456L60.9629 181.989L60.1369 181.518L59.3107 181.044L58.4855 180.564L57.6629 180.077L56.8441 179.582L56.0307 179.078L55.2241 178.564L54.4261 178.039L53.6382 177.503L52.862 176.953L52.0991 176.389L51.3512 175.812L50.62 175.219L49.9069 174.612L49.2136 173.989L48.5416 173.35L47.8922 172.695L47.2669 172.023L46.6669 171.336L46.0935 170.633L45.5478 169.915L45.0306 169.181L44.5429 168.433L44.0854 167.67L43.6587 166.893L43.2634 166.104L42.8998 165.302L42.5682 164.489L42.2689 163.665L42.0018 162.831L41.767 161.988L41.5643 161.137L41.3934 160.279L41.254 159.414L41.1456 158.545L41.0676 157.671L41.0194 156.794L41 155.914L41.0087 155.033L41.0444 154.151L41.1061 153.27L41.1926 152.39L41.3027 151.512L41.435 150.636L41.5883 149.765L41.7611 148.898L41.9518 148.036L42.1591 147.179L42.3812 146.329L42.6167 145.485L42.8639 144.649L43.1212 143.82L43.3869 142.999L43.6595 142.187L43.9372 141.382L44.2186 140.586L44.502 139.799L44.7859 139.021L45.0687 138.25L45.349 137.489L45.6254 136.736L45.8965 135.99L46.1611 135.253L46.4179 134.523L46.6658 133.801L46.9037 133.085L47.1306 132.375L47.3456 131.671L47.548 130.973L47.7371 130.279L47.9121 129.59L48.0727 128.904L48.2184 128.221L48.3489 127.54L48.4639 126.861L48.5635 126.184L48.6475 125.506L48.716 124.829L48.7691 124.15L48.807 123.471L48.8297 122.789L48.8374 122.104L48.8306 121.417L48.8093 120.725L48.7741 120.029L48.7252 119.328L48.6631 118.622L48.5884 117.909L48.5016 117.19L48.4032 116.464L48.294 115.73L48.1745 114.988L48.0455 114.238L47.9078 113.479L47.7623 112.712L47.6096 111.934L47.4509 111.148L47.2868 110.351L47.1186 109.544L46.947 108.727L46.7731 107.9L46.598 107.062L46.4227 106.213L46.2483 105.355L46.0758 104.485L45.9064 103.605L45.7411 102.715L45.5811 101.815L45.4274 100.905L45.2812 99.9855L45.1435 99.0563L45.0154 98.1181L44.8979 97.171L44.7922 96.2156L44.6992 95.2523L44.62 94.2814L44.5556 93.3036L44.5069 92.3192L44.475 91.329L44.4608 90.3335L44.4653 89.3333L44.4893 88.3292L44.5338 87.3219L44.5996 86.3121L44.6876 85.3005L44.7985 84.2881L44.9331 83.2755L45.0922 82.2638L45.2764 81.2537L45.4862 80.2462L45.7224 79.2422L45.9854 78.2425L46.2756 77.2483L46.5936 76.2603L46.9397 75.2796L47.3142 74.3071L47.7173 73.3438L48.1493 72.3906L48.6103 71.4485L49.1003 70.5185L49.6194 69.6014L50.1675 68.6983L50.7446 67.8099L51.3504 66.9372L51.9848 66.081L52.6474 65.2422L53.338 64.4216L54.0561 63.6199L54.8013 62.838L55.5731 62.0763L56.3709 61.3358L57.1941 60.6169L58.0421 59.9202L58.9142 59.2464L59.8096 58.5958L60.7276 57.9689L61.6674 57.366L62.6281 56.7877L63.6088 56.234L64.6086 55.7052L65.6266 55.2016L66.6618 54.7232L67.7133 54.27L68.78 53.8422L69.861 53.4396L70.9553 53.0621L72.0617 52.7096L73.1794 52.3818L74.3072 52.0784L75.4442 51.7989L76.5891 51.5428L77.7409 51.3094L78.8985 51.0979L80.0609 50.9075L81.2271 50.7373L82.3959 50.5862L83.5664 50.4531L84.7377 50.3368L85.9089 50.2362L87.0792 50.15L88.2478 50.0767L89.414 50.0151L90.5773 49.9638L91.7369 49.9214L92.8925 49.8863L94.0437 49.8573L95.1901 49.8328L96.3316 49.8114L97.4678 49.7917L98.5989 49.7724L99.7248 49.7521L100.846 49.7295L101.961 49.7033L103.072 49.6723L104.179 49.6354L105.282 49.5915L106.381 49.5396L107.477 49.4788L108.571 49.4083L109.662 49.3272L110.753 49.235L111.843 49.1312L112.933 49.0152L114.025 48.8867L115.118 48.7455L116.214 48.5914L117.313 48.4245L118.417 48.2449L119.525 48.0527L120.64 47.8483L121.761 47.6321L122.89 47.4046L124.027 47.1664L125.173 46.9184L126.328 46.6613L127.494 46.396L128.67 46.1236L129.857 45.8451L131.056 45.5617L132.267 45.2747L133.49 44.9853L134.725 44.695L135.973 44.4051L137.234 44.1171L138.507 43.8324L139.792 43.5528L141.09 43.2796L142.4 43.0145L143.721 42.759L145.054 42.5147L146.397 42.2833L147.75 42.0662L149.112 41.865L150.483 41.6812L151.862 41.5163L153.247 41.3717L154.638 41.2488L156.034 41.149L157.434 41.0735L158.836 41.0234L160.239 41L161.643 41.0043L163.045 41.0372L164.445 41.0997L165.841 41.1925L167.231 41.3164L168.616 41.472L169.993 41.6597L171.36 41.88L172.717 42.1333L174.063 42.4197L175.396 42.7394L176.714 43.0924L178.017 43.4785L179.303 43.8978L180.572 44.3498L181.822 44.8343L183.053 45.3508L184.263 45.8986L185.452 46.4772L186.618 47.0858L187.763 47.7232L188.884 48.3887L189.982 49.0809L191.057 49.7988L192.108 50.5409L193.136 51.3061L194.142 52.0928L195.124 52.8997L196.084 53.7254L197.023 54.5683L197.941 55.427L198.838 56.3L199.716 57.1859L200.576 58.0833L201.419 58.9908L202.246 59.9069L203.058 60.8305L203.856 61.7603L204.642 62.6951L205.417 63.6338L206.182 64.5753L206.939 65.5188L207.689 66.4632L208.434 67.4079L209.175 68.3521L209.913 69.2953L210.649 70.2369L211.386 71.1765L212.123 72.1138L212.863 73.0485L213.606 73.9806L214.353 74.91L215.106 75.8367L215.864 76.7609L216.63 77.6828L217.402 78.6026L218.182 79.5208L218.971 80.4378L219.768 81.3539L220.574 82.2696L221.389 83.1856L222.213 84.1023L223.047 85.0203L223.889 85.9403L224.74 86.863L225.599 87.7888L226.467 88.7187L227.342 89.6531L228.224 90.5928L229.113 91.5385L230.007 92.4908L230.907 93.4504L231.81 94.4179L232.716 95.3941L233.625 96.3793L234.534 97.3744L235.443 98.3797L236.351 99.3958L237.256 100.423L238.158 101.462L239.054 102.514L239.943 103.577L240.825 104.654L241.697 105.743L242.558 106.846L243.407 107.962L244.243 109.092L245.063 110.235L245.866 111.392L246.652 112.563L247.418 113.747L248.163 114.944L248.887 116.154L249.586 117.377L250.261 118.613L250.91 119.861L251.531 121.121L252.124 122.393L252.688 123.675L253.22 124.968L253.721 126.271L254.19 127.583L254.625 128.904Z" fill="url(#paint0_linear)" fill-opacity="0.26"/>
<path fill-rule="evenodd" clip-rule="evenodd" d="M261.438 131.181L261.87 132.695L262.264 134.219L262.619 135.75L262.936 137.287L263.212 138.831L263.448 140.381L263.643 141.934L263.796 143.491L263.907 145.051L263.975 146.612L264 148.174L263.981 149.736L263.919 151.296L263.811 152.854L263.659 154.409L263.462 155.959L263.219 157.504L262.931 159.043L262.597 160.574L262.217 162.096L261.791 163.609L261.319 165.111L260.802 166.602L260.239 168.079L259.631 169.543L258.977 170.992L258.279 172.425L257.537 173.841L256.75 175.239L255.921 176.618L255.048 177.977L254.134 179.316L253.179 180.633L252.183 181.928L251.147 183.2L250.073 184.448L248.961 185.671L247.813 186.869L246.629 188.04L245.411 189.186L244.16 190.304L242.877 191.394L241.563 192.457L240.22 193.492L238.849 194.497L237.451 195.474L236.029 196.422L234.583 197.341L233.115 198.231L231.627 199.092L230.12 199.924L228.597 200.728L227.058 201.503L225.505 202.25L223.941 202.97L222.366 203.662L220.782 204.329L219.192 204.969L217.596 205.585L215.997 206.176L214.395 206.744L212.793 207.29L211.192 207.814L209.593 208.318L207.999 208.802L206.409 209.268L204.826 209.718L203.251 210.151L201.684 210.57L200.128 210.976L198.582 211.37L197.049 211.753L195.528 212.127L194.021 212.494L192.528 212.853L191.05 213.207L189.588 213.557L188.141 213.904L186.71 214.25L185.295 214.596L183.897 214.943L182.515 215.291L181.15 215.644L179.801 216L178.467 216.361L177.15 216.729L175.847 217.104L174.56 217.487L173.286 217.878L172.026 218.279L170.78 218.689L169.545 219.109L168.321 219.54L167.108 219.982L165.905 220.434L164.71 220.897L163.523 221.372L162.343 221.857L161.167 222.351L159.996 222.856L158.828 223.369L157.662 223.89L156.497 224.417L155.331 224.951L154.163 225.488L152.993 226.028L151.819 226.569L150.64 227.11L149.455 227.649L148.264 228.184L147.066 228.712L145.86 229.233L144.645 229.744L143.42 230.242L142.187 230.727L140.943 231.196L139.69 231.646L138.427 232.076L137.153 232.484L135.87 232.868L134.577 233.225L133.275 233.554L131.965 233.854L130.646 234.122L129.32 234.357L127.987 234.557L126.648 234.722L125.305 234.849L123.957 234.939L122.607 234.989L121.255 235L119.902 234.971L118.55 234.901L117.2 234.79L115.853 234.639L114.51 234.448L113.172 234.215L111.842 233.943L110.519 233.632L109.205 233.282L107.902 232.893L106.61 232.467L105.33 232.005L104.063 231.508L102.81 230.976L101.573 230.412L100.351 229.816L99.1465 229.191L97.9587 228.537L96.7887 227.856L95.637 227.149L94.5039 226.42L93.3897 225.668L92.2947 224.897L91.2189 224.108L90.1624 223.302L89.1251 222.482L88.1069 221.65L87.1074 220.806L86.1264 219.955L85.1635 219.096L84.218 218.232L83.2895 217.365L82.3773 216.496L81.4805 215.627L80.5986 214.76L79.7304 213.896L78.8753 213.037L78.0321 212.183L77.1999 211.338L76.3776 210.5L75.5642 209.673L74.7585 208.856L73.9594 208.051L73.1659 207.259L72.3766 206.479L71.5907 205.714L70.8068 204.963L70.024 204.227L69.2412 203.505L68.4573 202.799L67.6713 202.108L66.8824 201.433L66.0895 200.772L65.2919 200.127L64.4888 199.495L63.6796 198.878L62.8636 198.274L62.0404 197.683L61.2099 197.103L60.3717 196.534L59.526 195.975L58.6729 195.423L57.8127 194.879L56.9457 194.34L56.0726 193.806L55.1939 193.274L54.3107 192.744L53.4237 192.213L52.5341 191.68L51.643 191.144L50.7518 190.603L49.8617 190.056L48.9743 189.501L48.0911 188.937L47.2136 188.363L46.3436 187.777L45.4828 187.179L44.6329 186.567L43.7955 185.941L42.9727 185.299L42.1659 184.64L41.3771 183.965L40.6079 183.273L39.8601 182.563L39.1351 181.834L38.4346 181.088L37.7601 180.323L37.1129 179.54L36.4944 178.739L35.9057 177.92L35.3478 177.084L34.8217 176.23L34.3283 175.361L33.868 174.476L33.4415 173.576L33.0493 172.663L32.6916 171.736L32.3687 170.797L32.0806 169.846L31.8273 168.886L31.6087 167.916L31.4244 166.938L31.274 165.953L31.1571 164.962L31.073 163.966L31.0209 162.966L31 161.963L31.0094 160.959L31.0479 159.954L31.1144 158.95L31.2077 157.947L31.3265 156.946L31.4693 155.949L31.6346 154.956L31.821 153.967L32.0267 152.985L32.2503 152.009L32.4899 151.04L32.7439 150.078L33.0106 149.125L33.2881 148.181L33.5748 147.245L33.8688 146.319L34.1684 145.402L34.4719 144.495L34.7776 143.598L35.0838 142.711L35.3889 141.833L35.6913 140.965L35.9894 140.107L36.2819 139.257L36.5673 138.417L36.8443 137.585L37.1117 136.762L37.3683 135.946L37.6131 135.137L37.8451 134.335L38.0634 133.539L38.2673 132.748L38.4562 131.963L38.6294 131.181L38.7865 130.402L38.9273 129.627L39.0514 128.853L39.1588 128.081L39.2494 127.309L39.3233 126.537L39.3806 125.764L39.4214 124.989L39.4459 124.212L39.4543 123.432L39.4468 122.648L39.4239 121.86L39.3859 121.067L39.3332 120.268L39.2663 119.463L39.1857 118.651L39.092 117.831L38.9859 117.003L38.868 116.167L38.7391 115.322L38.6 114.467L38.4515 113.602L38.2945 112.727L38.1298 111.842L37.9586 110.945L37.7816 110.037L37.6001 109.117L37.415 108.186L37.2275 107.243L37.0386 106.288L36.8495 105.321L36.6613 104.343L36.4753 103.352L36.2925 102.349L36.1143 101.335L35.9416 100.309L35.7759 99.2719L35.6181 98.2237L35.4696 97.1647L35.3314 96.0954L35.2047 95.0161L35.0907 93.9273L34.9904 92.8294L34.905 91.723L34.8354 90.6085L34.7829 89.4867L34.7485 88.3582L34.7332 87.2236L34.738 86.0838L34.7639 84.9395L34.8119 83.7914L34.8829 82.6406L34.9778 81.4877L35.0975 80.3339L35.2427 79.1799L35.4143 78.0269L35.6129 76.8758L35.8393 75.7275L36.094 74.5833L36.3777 73.444L36.6909 72.3109L37.0339 71.1849L37.4072 70.0672L37.8112 68.9589L38.246 67.8611L38.712 66.7748L39.2092 65.7011L39.7378 64.6412L40.2978 63.5961L40.8891 62.5667L41.5115 61.5543L42.165 60.5597L42.8493 59.584L43.5641 58.628L44.309 57.6928L45.0837 56.7792L45.8875 55.8879L46.72 55.02L47.5806 54.176L48.4686 53.3567L49.3834 52.5627L50.3241 51.7947L51.29 51.0533L52.2803 50.3388L53.294 49.6518L54.3303 48.9926L55.3882 48.3616L56.4667 47.759L57.5648 47.1851L58.6815 46.6398L59.8157 46.1234L60.9664 45.6358L62.1325 45.177L63.3128 44.7468L64.5064 44.345L65.7121 43.9714L66.9287 43.6256L68.1551 43.3071L69.3901 43.0152L70.6325 42.7492L71.8813 42.5082L73.1352 42.2913L74.3931 42.0973L75.6539 41.925L76.9165 41.7733L78.18 41.6409L79.4434 41.5262L80.7058 41.4279L81.9664 41.3444L83.2244 41.2742L84.4792 41.2158L85.7301 41.1674L86.9767 41.1274L88.2184 41.0943L89.4551 41.0664L90.6864 41.042L91.9121 41.0196L93.1322 40.9976L94.3466 40.9745L95.5556 40.9487L96.7592 40.9188L97.9577 40.8835L99.1515 40.8414L100.341 40.7914L101.527 40.7323L102.709 40.663L103.889 40.5826L105.066 40.4902L106.243 40.3852L107.419 40.2668L108.595 40.1346L109.772 39.9882L110.951 39.8272L112.133 39.6517L113.319 39.4615L114.51 39.2567L115.706 39.0377L116.908 38.8047L118.118 38.5583L119.335 38.2991L120.562 38.0277L121.798 37.745L123.044 37.452L124.301 37.1496L125.57 36.8392L126.85 36.5218L128.144 36.1988L129.45 35.8717L130.769 35.5419L132.102 35.211L133.448 34.8806L134.807 34.5524L136.181 34.228L137.568 33.9093L138.968 33.598L140.38 33.2958L141.806 33.0047L143.243 32.7263L144.692 32.4625L146.152 32.2151L147.621 31.9858L149.1 31.7763L150.587 31.5884L152.082 31.4236L153.582 31.2836L155.088 31.1698L156.598 31.0837L158.11 31.0267L159.624 31L161.138 31.0049L162.65 31.0424L164.16 31.1136L165.666 31.2194L167.166 31.3606L168.66 31.5379L170.145 31.7518L171.62 32.0029L173.084 32.2916L174.536 32.618L175.973 32.9823L177.395 33.3846L178.801 33.8247L180.188 34.3025L181.557 34.8177L182.906 35.3698L184.233 35.9584L185.538 36.5828L186.82 37.2422L188.079 37.9357L189.313 38.6622L190.523 39.4206L191.707 40.2095L192.867 41.0276L194.001 41.8735L195.11 42.7455L196.194 43.6421L197.254 44.5617L198.29 45.5027L199.302 46.4633L200.292 47.4419L201.261 48.4369L202.208 49.4465L203.136 50.4692L204.045 51.5034L204.937 52.5476L205.812 53.6002L206.673 54.6598L207.521 55.7252L208.357 56.7949L209.182 57.868L209.999 58.9432L210.808 60.0195L211.612 61.0962L212.411 62.1723L213.207 63.2471L214.001 64.3202L214.796 65.3911L215.591 66.4593L216.389 67.5246L217.191 68.5868L217.997 69.646L218.809 70.7021L219.627 71.7554L220.452 72.8061L221.286 73.8544L222.127 74.9008L222.978 75.9458L223.838 76.9899L224.707 78.0335L225.587 79.0774L226.476 80.1222L227.374 81.1684L228.283 82.2169L229.201 83.2684L230.128 84.3236L231.064 85.3833L232.008 86.4482L232.959 87.5191L233.918 88.5969L234.883 89.6822L235.853 90.7759L236.827 91.8785L237.805 92.991L238.785 94.1139L239.766 95.2479L240.747 96.3936L241.726 97.5517L242.702 98.7226L243.675 99.9068L244.641 101.105L245.601 102.317L246.552 103.544L247.492 104.786L248.422 106.043L249.337 107.315L250.238 108.602L251.123 109.905L251.99 111.224L252.838 112.558L253.664 113.907L254.468 115.271L255.248 116.651L256.003 118.045L256.731 119.453L257.43 120.875L258.101 122.311L258.74 123.76L259.348 125.222L259.923 126.695L260.463 128.18L260.968 129.675L261.438 131.181Z" fill="url(#paint1_linear)" fill-opacity="0.26"/>
<path fill-rule="evenodd" clip-rule="evenodd" d="M278.141 129.967L278.623 131.66L279.063 133.362L279.46 135.073L279.812 136.792L280.121 138.517L280.384 140.249L280.601 141.985L280.772 143.725L280.896 145.469L280.972 147.213L281 148.959L280.979 150.704L280.909 152.448L280.789 154.19L280.62 155.927L280.399 157.66L280.129 159.387L279.807 161.107L279.434 162.818L279.01 164.519L278.535 166.21L278.009 167.889L277.432 169.555L276.803 171.206L276.124 172.842L275.395 174.461L274.616 176.063L273.788 177.645L272.91 179.208L271.984 180.75L271.011 182.269L269.991 183.765L268.925 185.237L267.813 186.685L266.658 188.106L265.459 189.5L264.219 190.867L262.937 192.206L261.616 193.516L260.257 194.796L258.861 196.045L257.429 197.264L255.963 198.452L254.464 199.608L252.934 200.732L251.375 201.824L249.787 202.884L248.174 203.911L246.536 204.906L244.876 205.868L243.194 206.798L241.494 207.696L239.777 208.562L238.044 209.397L236.299 210.202L234.541 210.976L232.774 211.72L231 212.436L229.219 213.124L227.434 213.785L225.647 214.42L223.859 215.03L222.073 215.615L220.289 216.179L218.509 216.72L216.735 217.241L214.969 217.743L213.211 218.228L211.463 218.696L209.726 219.15L208.002 219.59L206.291 220.019L204.594 220.437L202.912 220.846L201.246 221.247L199.597 221.643L197.965 222.034L196.35 222.423L194.754 222.809L193.175 223.196L191.615 223.583L190.073 223.973L188.549 224.366L187.044 224.765L185.556 225.169L184.085 225.58L182.632 225.999L181.195 226.427L179.774 226.864L178.369 227.311L176.977 227.77L175.599 228.24L174.234 228.721L172.881 229.215L171.538 229.72L170.205 230.238L168.88 230.768L167.562 231.31L166.251 231.863L164.944 232.427L163.641 233.001L162.34 233.583L161.039 234.172L159.738 234.768L158.435 235.369L157.129 235.973L155.819 236.578L154.504 237.182L153.182 237.784L151.853 238.382L150.516 238.972L149.169 239.554L147.814 240.125L146.448 240.683L145.071 241.225L143.684 241.748L142.285 242.252L140.875 242.732L139.454 243.188L138.022 243.617L136.58 244.016L135.127 244.384L133.665 244.719L132.193 245.019L130.713 245.281L129.226 245.505L127.732 245.689L126.233 245.832L124.729 245.931L123.222 245.988L121.713 246L120.204 245.967L118.695 245.889L117.188 245.766L115.685 245.597L114.187 245.383L112.695 245.123L111.21 244.819L109.734 244.471L108.268 244.079L106.813 243.645L105.371 243.169L103.943 242.653L102.529 242.097L101.132 241.503L99.751 240.872L98.3879 240.207L97.0433 239.507L95.7179 238.776L94.4123 238.015L93.1271 237.226L91.8627 236.41L90.6194 235.57L89.3975 234.708L88.1971 233.826L87.0182 232.926L85.8607 232.009L84.7244 231.079L83.6092 230.137L82.5145 229.185L81.4399 228.225L80.3849 227.259L79.3488 226.29L78.3308 225.319L77.3302 224.348L76.346 223.379L75.3773 222.413L74.4231 221.453L73.4822 220.499L72.5535 219.554L71.636 218.618L70.7283 217.693L69.8292 216.781L68.9376 215.881L68.052 214.995L67.1714 214.124L66.2943 213.269L65.4197 212.429L64.5461 211.606L63.6726 210.8L62.7978 210.011L61.9208 209.239L61.0404 208.484L60.1557 207.745L59.2657 207.024L58.3695 206.318L57.4665 205.628L56.5559 204.953L55.6374 204.293L54.7106 203.645L53.7753 203.009L52.8316 202.383L51.8797 201.767L50.9197 201.159L49.9523 200.557L48.978 199.96L47.9975 199.365L47.0119 198.772L46.0222 198.179L45.0295 197.583L44.0351 196.984L43.0406 196.38L42.0474 195.768L41.0571 195.148L40.0716 194.518L39.0925 193.876L38.1217 193.222L37.1611 192.553L36.2126 191.869L35.2783 191.169L34.36 190.451L33.4598 189.716L32.5796 188.961L31.7213 188.187L30.8868 187.393L30.0778 186.579L29.2962 185.745L28.5435 184.89L27.8213 184.015L27.1311 183.12L26.4741 182.204L25.8516 181.27L25.2646 180.316L24.7139 179.345L24.2003 178.356L23.7245 177.35L23.2868 176.329L22.8877 175.293L22.5273 174.243L22.2059 173.181L21.9232 172.107L21.6792 171.023L21.4735 169.93L21.3058 168.829L21.1753 167.722L21.0814 166.609L21.0233 165.491L21 164.371L21.0104 163.248L21.0534 162.125L21.1277 161.003L21.2318 159.882L21.3643 158.763L21.5236 157.649L21.7081 156.539L21.9161 155.434L22.1457 154.336L22.3952 153.245L22.6626 152.162L22.946 151.088L23.2436 150.022L23.5532 148.967L23.8731 147.921L24.2012 146.886L24.5356 145.861L24.8743 144.848L25.2154 143.845L25.5571 142.853L25.8975 141.872L26.2349 140.902L26.5676 139.943L26.894 138.993L27.2124 138.054L27.5216 137.125L27.8199 136.204L28.1063 135.292L28.3794 134.388L28.6383 133.492L28.8819 132.602L29.1094 131.719L29.3202 130.84L29.5135 129.967L29.6888 129.097L29.8459 128.23L29.9844 127.365L30.1042 126.502L30.2053 125.639L30.2878 124.776L30.3517 123.912L30.3973 123.046L30.4246 122.178L30.4339 121.306L30.4257 120.43L30.4001 119.549L30.3577 118.663L30.2988 117.77L30.2242 116.87L30.1342 115.962L30.0297 115.046L29.9113 114.121L29.7798 113.187L29.636 112.242L29.4807 111.287L29.315 110.32L29.1398 109.342L28.956 108.352L28.7649 107.35L28.5675 106.335L28.3649 105.308L28.1584 104.267L27.9491 103.213L27.7383 102.146L27.5273 101.065L27.3174 99.9711L27.1098 98.8638L26.9058 97.7433L26.7069 96.6096L26.5143 95.4631L26.3293 94.3039L26.1533 93.1323L25.9875 91.9488L25.8333 90.7537L25.692 89.5475L25.5647 88.3305L25.4528 87.1035L25.3575 85.8668L25.2799 84.6213L25.2213 83.3675L25.1829 82.1062L25.1658 80.8382L25.1711 79.5643L25.2001 78.2853L25.2536 77.0022L25.3328 75.7159L25.4387 74.4275L25.5723 73.1379L25.7343 71.8482L25.9258 70.5595L26.1475 69.2729L26.4001 67.9896L26.6843 66.7107L27.0009 65.4374L27.3503 64.171L27.7331 62.9126L28.1497 61.6634L28.6004 60.4247L29.0857 59.1977L29.6057 57.9836L30.1605 56.7836L30.7504 55.599L31.3752 54.4309L32.035 53.2805L32.7296 52.1489L33.4588 51.0373L34.2224 49.9468L35.0201 48.8784L35.8513 47.8331L36.7157 46.812L37.6127 45.8159L38.5416 44.8458L39.502 43.9025L40.4929 42.9869L41.5136 42.0995L42.5634 41.2412L43.6412 40.4125L44.7462 39.614L45.8774 38.8461L47.0338 38.1094L48.2143 37.4042L49.4178 36.7307L50.6431 36.0892L51.8892 35.4798L53.1549 34.9026L54.4389 34.3577L55.7401 33.8448L57.0573 33.364L58.3891 32.915L59.7345 32.4975L61.0921 32.111L62.4606 31.755L63.8387 31.4288L65.2252 31.1315L66.6186 30.8622L68.0178 30.6197L69.4215 30.4028L70.8284 30.2103L72.2373 30.0408L73.6472 29.8927L75.057 29.7646L76.4657 29.6547L77.8724 29.5614L79.2762 29.483L80.6763 29.4176L82.0722 29.3635L83.4632 29.3189L84.8489 29.2819L86.2289 29.2507L87.6028 29.2235L88.9706 29.1984L90.332 29.1738L91.6872 29.1479L93.0363 29.1191L94.3794 29.0857L95.7168 29.0463L97.0489 28.9993L98.3762 28.9434L99.6992 28.8773L101.019 28.7998L102.335 28.71L103.649 28.6067L104.962 28.4893L106.274 28.357L107.586 28.2093L108.9 28.0456L110.216 27.8657L111.535 27.6695L112.858 27.4569L114.187 27.2281L115.521 26.9833L116.863 26.723L118.213 26.4475L119.571 26.1578L120.94 25.8545L122.319 25.5385L123.71 25.211L125.113 24.8731L126.528 24.5261L127.958 24.1714L129.401 23.8105L130.858 23.4449L132.33 23.0763L133.817 22.7064L135.319 22.3372L136.837 21.9703L138.369 21.6078L139.917 21.2516L141.479 20.9036L143.055 20.5659L144.646 20.2405L146.25 19.9294L147.867 19.6346L149.495 19.358L151.135 19.1018L152.786 18.8677L154.445 18.6576L156.112 18.4735L157.787 18.317L159.467 18.1898L161.152 18.0936L162.839 18.0298L164.529 18L166.218 18.0054L167.906 18.0474L169.591 18.127L171.271 18.2452L172.945 18.403L174.612 18.6012L176.269 18.8403L177.915 19.1209L179.549 19.4435L181.168 19.8083L182.772 20.2155L184.359 20.6651L185.928 21.157L187.476 21.691L189.004 22.2668L190.508 22.8839L191.99 23.5417L193.446 24.2396L194.877 24.9766L196.281 25.7517L197.659 26.5637L199.008 27.4113L200.33 28.293L201.624 29.2074L202.889 30.1527L204.127 31.1273L205.337 32.1294L206.52 33.1572L207.675 34.2089L208.805 35.2825L209.91 36.3763L210.99 37.4883L212.048 38.6167L213.083 39.7597L214.097 40.9156L215.092 42.0826L216.07 43.259L217.03 44.4433L217.976 45.634L218.909 46.8296L219.83 48.0289L220.741 49.2306L221.645 50.4336L222.541 51.6369L223.433 52.8396L224.321 54.0409L225.207 55.2403L226.094 56.4371L226.982 57.6309L227.872 58.8216L228.766 60.0088L229.666 61.1926L230.572 62.373L231.485 63.5502L232.406 64.7244L233.336 65.8961L234.275 67.0657L235.224 68.2336L236.184 69.4005L237.154 70.5669L238.135 71.7336L239.127 72.9012L240.13 74.0706L241.144 75.2424L242.168 76.4176L243.203 77.597L244.247 78.7813L245.301 79.9715L246.362 81.1685L247.432 82.373L248.509 83.586L249.591 84.8083L250.679 86.0407L251.77 87.284L252.863 88.5391L253.958 89.8065L255.052 91.087L256.145 92.3813L257.234 93.6899L258.319 95.0135L259.398 96.3526L260.469 97.7075L261.53 99.0786L262.58 100.466L263.616 101.871L264.638 103.293L265.644 104.732L266.631 106.188L267.598 107.662L268.544 109.153L269.466 110.66L270.363 112.185L271.234 113.727L272.076 115.285L272.888 116.859L273.669 118.449L274.417 120.054L275.131 121.673L275.809 123.307L276.45 124.953L277.053 126.613L277.617 128.284L278.141 129.967Z" fill="url(#paint2_linear)" fill-opacity="0.26"/>
<path fill-rule="evenodd" clip-rule="evenodd" d="M304.613 132.592L305.184 134.597L305.705 136.613L306.175 138.639L306.593 140.675L306.959 142.718L307.27 144.768L307.528 146.825L307.73 148.885L307.877 150.95L307.967 153.016L308 155.083L307.975 157.15L307.892 159.215L307.75 161.277L307.549 163.335L307.289 165.387L306.968 167.432L306.587 169.468L306.145 171.495L305.643 173.51L305.08 175.512L304.457 177.5L303.773 179.473L303.029 181.428L302.224 183.366L301.361 185.283L300.438 187.18L299.456 189.054L298.417 190.904L297.32 192.73L296.167 194.529L294.958 196.301L293.695 198.044L292.379 199.758L291.01 201.441L289.59 203.093L288.121 204.711L286.603 206.297L285.038 207.847L283.428 209.363L281.773 210.843L280.077 212.287L278.34 213.693L276.565 215.062L274.753 216.394L272.905 217.687L271.025 218.942L269.114 220.158L267.174 221.336L265.207 222.475L263.215 223.576L261.201 224.64L259.167 225.666L257.114 226.655L255.046 227.607L252.964 228.524L250.871 229.406L248.769 230.253L246.659 231.068L244.545 231.851L242.428 232.602L240.31 233.325L238.194 234.018L236.081 234.685L233.972 235.326L231.871 235.943L229.778 236.538L227.696 237.112L225.625 237.667L223.568 238.204L221.525 238.725L219.498 239.233L217.488 239.728L215.496 240.212L213.523 240.688L211.569 241.156L209.635 241.62L207.723 242.079L205.831 242.537L203.961 242.995L202.113 243.454L200.286 243.915L198.481 244.381L196.698 244.853L194.935 245.331L193.194 245.818L191.472 246.314L189.77 246.821L188.087 247.339L186.421 247.869L184.773 248.412L183.141 248.968L181.524 249.538L179.92 250.123L178.329 250.721L176.75 251.335L175.181 251.963L173.62 252.604L172.067 253.259L170.519 253.927L168.975 254.606L167.433 255.295L165.893 255.994L164.351 256.699L162.808 257.411L161.261 258.125L159.709 258.842L158.151 259.558L156.585 260.271L155.01 260.978L153.426 261.678L151.832 262.367L150.225 263.043L148.607 263.703L146.977 264.345L145.333 264.965L143.676 265.561L142.006 266.13L140.323 266.67L138.627 267.178L136.918 267.651L135.197 268.087L133.464 268.483L131.721 268.838L129.968 269.149L128.206 269.414L126.436 269.632L124.66 269.801L122.879 269.919L121.094 269.986L119.306 270L117.518 269.961L115.731 269.869L113.946 269.723L112.166 269.523L110.391 269.269L108.623 268.962L106.864 268.602L105.115 268.189L103.379 267.726L101.656 267.211L99.9474 266.648L98.2554 266.036L96.581 265.378L94.9253 264.675L93.2896 263.928L91.6749 263.139L90.082 262.311L88.5119 261.445L86.9653 260.544L85.4429 259.609L83.945 258.644L82.4722 257.649L81.0247 256.628L79.6027 255.584L78.2061 254.517L76.8349 253.432L75.4889 252.33L74.1678 251.214L72.871 250.087L71.5981 248.95L70.3483 247.807L69.1209 246.659L67.915 245.509L66.7296 244.359L65.5638 243.212L64.4162 242.068L63.2858 240.931L62.1712 239.802L61.0711 238.682L59.9842 237.574L58.9089 236.479L57.8438 235.398L56.7876 234.333L55.7386 233.284L54.6953 232.252L53.6564 231.239L52.6202 230.245L51.5854 229.271L50.5506 228.316L49.5144 227.381L48.4754 226.467L47.4325 225.573L46.3844 224.699L45.3301 223.844L44.2685 223.008L43.1987 222.191L42.1201 221.392L41.032 220.61L39.9341 219.842L38.8262 219.089L37.7082 218.349L36.5805 217.619L35.4434 216.899L34.2973 216.186L33.1431 215.479L31.9817 214.775L30.8141 214.072L29.6416 213.37L28.4657 212.665L27.2878 211.955L26.1096 211.239L24.9331 210.515L23.76 209.781L22.5925 209.034L21.4326 208.274L20.2826 207.499L19.1446 206.708L18.0211 205.898L16.9143 205.068L15.8265 204.219L14.7601 203.347L13.7174 202.454L12.7006 201.537L11.712 200.597L10.7537 199.634L9.82776 198.645L8.93613 197.633L8.08064 196.597L7.263 195.536L6.48476 194.453L5.74733 193.346L5.05192 192.217L4.39958 191.066L3.79118 189.895L3.22745 188.704L2.70897 187.495L2.23616 186.268L1.80929 185.025L1.42847 183.767L1.09364 182.496L0.804595 181.212L0.560959 179.918L0.362203 178.614L0.207642 177.302L0.0964371 175.984L0.0276002 174.661L0 173.334L0.0123658 172.005L0.0632942 170.675L0.151256 169.345L0.274604 168.018L0.431579 166.694L0.620322 165.373L0.83888 164.059L1.08522 162.751L1.35722 161.451L1.65272 160.159L1.9695 158.876L2.30527 157.604L2.65775 156.342L3.02462 155.092L3.40354 153.854L3.7922 152.628L4.18828 151.415L4.5895 150.214L4.99359 149.027L5.39836 147.852L5.80164 146.691L6.20135 145.542L6.59548 144.406L6.9821 143.282L7.35936 142.17L7.72553 141.069L8.07898 139.979L8.41819 138.899L8.74176 137.828L9.04842 136.767L9.33703 135.713L9.60658 134.667L9.8562 133.627L10.0852 132.592L10.2929 131.562L10.479 130.535L10.643 129.511L10.785 128.489L10.9048 127.467L11.0025 126.446L11.0782 125.422L11.1321 124.397L11.1645 123.369L11.1756 122.336L11.1658 121.299L11.1355 120.256L11.0852 119.206L11.0155 118.149L10.9271 117.083L10.8206 116.008L10.6967 114.923L10.5565 113.828L10.4007 112.721L10.2303 111.602L10.0464 110.471L9.85006 109.327L9.64248 108.168L9.42485 106.996L9.19844 105.809L8.96457 104.608L8.72461 103.391L8.47995 102.158L8.23204 100.91L7.98234 99.6463L7.73238 98.3666L7.48366 97.0711L7.23773 95.7598L6.99614 94.4328L6.76047 93.0903L6.53229 91.7326L6.31315 90.3599L6.10463 88.9725L5.90827 87.571L5.7256 86.1557L5.55816 84.7273L5.40742 83.2862L5.27485 81.833L5.16191 80.3686L5.07003 78.8936L5.00063 77.4089L4.95511 75.9153L4.93485 74.4137L4.9412 72.9051L4.97546 71.3905L5.0389 69.871L5.13276 68.3478L5.25821 66.822L5.41639 65.2949L5.60837 63.7676L5.83518 62.2415L6.09776 60.7179L6.39701 59.1982L6.73376 57.6837L7.10875 56.1759L7.52267 54.6762L7.97611 53.1859L8.4696 51.7066L9.00359 50.2398L9.57843 48.7867L10.1944 47.349L10.8517 45.928L11.5504 44.5251L12.2906 43.1418L13.0722 41.7795L13.8951 40.4395L14.7589 39.1232L15.6635 37.8317L16.6084 36.5665L17.5931 35.3287L18.617 34.1195L19.6796 32.9399L20.7801 31.7911L21.9177 30.6741L23.0916 29.5897L24.3008 28.5389L25.5443 27.5224L26.8211 26.5411L28.1302 25.5955L29.4702 24.6862L30.8401 23.8138L32.2385 22.9786L33.6641 22.1811L35.1157 21.4214L36.5919 20.6998L38.0912 20.0163L39.6123 19.3709L41.1537 18.7636L42.714 18.1942L44.2917 17.6625L45.8855 17.1681L47.4937 16.7104L49.1148 16.2888L50.7474 15.9025L52.3898 15.5505L54.0405 15.2315L55.698 14.9443L57.3608 14.6875L59.0274 14.4596L60.6965 14.2588L62.3667 14.0835L64.0368 13.9317L65.7055 13.8016L67.3719 13.6911L69.0348 13.5983L70.6935 13.5209L72.3471 13.4568L73.9949 13.404L75.6364 13.3601L77.2711 13.3232L78.8987 13.2909L80.519 13.2613L82.1318 13.2322L83.7372 13.2015L85.3353 13.1674L86.9263 13.1278L88.5107 13.0811L90.0887 13.0254L91.661 12.9592L93.2283 12.881L94.7912 12.7893L96.3506 12.6829L97.9074 12.5606L99.4624 12.4216L101.017 12.2649L102.572 12.0899L104.128 11.8961L105.687 11.6831L107.249 11.4507L108.817 11.199L110.391 10.928L111.971 10.6381L113.561 10.3298L115.16 10.0037L116.769 9.66053L118.39 9.30134L120.024 8.9272L121.672 8.53937L123.334 8.13923L125.011 7.7283L126.704 7.30824L128.413 6.8808L130.139 6.44785L131.883 6.01137L133.645 5.57342L135.424 5.13612L137.222 4.7017L139.037 4.2724L140.87 3.85055L142.721 3.43849L144.589 3.03859L146.473 2.65323L148.373 2.2848L150.288 1.93568L152.218 1.60821L154.16 1.30473L156.115 1.02751L158.081 0.778779L160.056 0.560694L162.04 0.375346L164.03 0.224741L166.026 0.110791L168.025 0.0353089L170.026 0L172.027 0.00645288L174.027 0.0561343L176.023 0.150383L178.013 0.290404L179.997 0.477265L181.971 0.711891L183.934 0.995063L185.884 1.32741L187.819 1.70943L189.738 2.14144L191.638 2.62364L193.518 3.15606L195.376 3.73859L197.21 4.37098L199.02 5.05282L200.802 5.78358L202.557 6.56259L204.282 7.38899L205.977 8.26175L207.641 9.17962L209.273 10.1412L210.871 11.1449L212.437 12.1891L213.97 13.2719L215.469 14.3914L216.935 15.5455L218.368 16.7322L219.769 17.9493L221.139 19.1947L222.477 20.4661L223.786 21.7614L225.065 23.0782L226.318 24.4145L227.544 25.7681L228.746 27.1369L229.925 28.5189L231.082 29.912L232.221 31.3145L233.341 32.7245L234.446 34.1404L235.537 35.5606L236.617 36.9836L237.687 38.4082L238.749 39.8331L239.805 41.2574L240.857 42.68L241.907 44.1003L242.957 45.5176L244.009 46.9314L245.064 48.3413L246.123 49.7473L247.189 51.1491L248.262 52.547L249.344 53.941L250.435 55.3315L251.536 56.7191L252.649 58.1041L253.774 59.4871L254.91 60.869L256.06 62.2503L257.222 63.6319L258.397 65.0146L259.585 66.3994L260.786 67.7871L261.999 69.1788L263.225 70.5753L264.462 71.9779L265.71 73.3873L266.968 74.8048L268.235 76.2312L269.51 77.6677L270.793 79.1151L272.081 80.5746L273.373 82.0469L274.668 83.5331L275.965 85.034L277.262 86.5504L278.556 88.0831L279.847 89.6328L281.132 91.2002L282.41 92.7859L283.678 94.3904L284.935 96.0142L286.179 97.6576L287.407 99.321L288.618 101.005L289.809 102.709L290.978 104.433L292.124 106.178L293.244 107.944L294.337 109.73L295.4 111.535L296.431 113.361L297.429 115.206L298.391 117.07L299.316 118.953L300.202 120.853L301.047 122.771L301.851 124.705L302.61 126.655L303.325 128.621L303.993 130.6L304.613 132.592Z" fill="url(#paint3_linear)" fill-opacity="0.26"/>
<path d="M113.562 141.398C113.562 141.411 113.556 141.438 113.543 141.477C113.4 142.492 112.879 143 111.98 143C111.668 143 111.395 142.922 111.16 142.766C110.639 142.427 110.379 141.874 110.379 141.105L111.707 130.852H102.742C102.234 135.005 101.772 138.521 101.355 141.398C101.173 142.453 100.639 142.987 99.7539 143C99.4674 143 99.2135 142.928 98.9922 142.785C98.4453 142.434 98.1719 141.867 98.1719 141.086C98.25 140.409 99.0052 134.745 100.438 124.094C101.323 117.544 101.766 114.25 101.766 114.211C101.766 114.016 101.844 113.788 102 113.527C102.352 112.967 102.788 112.688 103.309 112.688C103.556 112.688 103.79 112.753 104.012 112.883C104.52 113.182 104.793 113.625 104.832 114.211L103.152 127.668C105.249 127.642 108.243 127.629 112.137 127.629C112.267 126.574 112.501 124.771 112.84 122.219C113.296 118.846 113.647 116.177 113.895 114.211C113.921 114.016 113.973 113.82 114.051 113.625C114.337 113 114.819 112.688 115.496 112.688C115.743 112.688 115.984 112.753 116.219 112.883C116.74 113.182 117.02 113.625 117.059 114.211L115.359 127.629H120.281C120.581 127.629 120.861 127.681 121.121 127.785C121.772 128.072 122.098 128.56 122.098 129.25C122.098 129.458 122.046 129.667 121.941 129.875C121.681 130.409 121.173 130.734 120.418 130.852H114.969C114.161 137.128 113.693 140.643 113.562 141.398ZM131.941 132.434C132.046 131.639 132.176 130.148 132.332 127.961C132.345 127.857 132.358 127.759 132.371 127.668C132.527 126.848 133.029 126.424 133.875 126.398C133.914 126.398 133.96 126.405 134.012 126.418C134.715 126.496 135.066 127.043 135.066 128.059C135.066 128.319 135.04 128.71 134.988 129.23C134.962 129.465 134.943 129.641 134.93 129.758C134.708 133.286 134.598 135.52 134.598 136.457C134.598 136.796 134.617 137.134 134.656 137.473C134.865 139.126 135.444 139.953 136.395 139.953C136.525 139.953 136.661 139.94 136.805 139.914C137.182 139.823 137.736 139.517 138.465 138.996C139.181 138.475 139.754 138.215 140.184 138.215C140.353 138.215 140.516 138.267 140.672 138.371C141.076 138.618 141.277 139.003 141.277 139.523C141.277 139.562 141.271 139.615 141.258 139.68C141.167 140.305 140.626 140.949 139.637 141.613C138.426 142.434 137.221 142.844 136.023 142.844C134.409 142.831 133.257 142.095 132.566 140.637C131.421 142.043 129.852 142.753 127.859 142.766C127.391 142.766 126.948 142.707 126.531 142.59C124.253 141.9 123.113 139.393 123.113 135.07C123.113 132.987 123.341 130.891 123.797 128.781C123.823 128.677 123.849 128.566 123.875 128.449C124.279 127.017 124.852 126.301 125.594 126.301C126.518 126.314 126.993 126.822 127.02 127.824C127.02 128.033 126.961 128.495 126.844 129.211C126.388 132.128 126.16 134.237 126.16 135.539C126.16 138.247 126.85 139.615 128.23 139.641C130.014 139.628 131.251 137.225 131.941 132.434ZM138.211 136.965C138.211 136.522 138.237 136.053 138.289 135.559C138.562 133.319 139.266 131.333 140.398 129.602C141.779 127.492 143.439 126.438 145.379 126.438C146.225 126.438 146.967 126.6 147.605 126.926C147.866 126.613 148.217 126.451 148.66 126.438C149.52 126.451 149.962 127.004 149.988 128.098C149.988 128.137 149.272 133.293 147.84 143.566C150.717 141.418 152.54 140.025 153.309 139.387C153.79 138.97 154.292 138.755 154.812 138.742C154.995 138.742 155.171 138.801 155.34 138.918C155.717 139.178 155.906 139.51 155.906 139.914C155.893 140.526 155.535 141.132 154.832 141.73C153.53 142.824 150.997 144.81 147.234 147.688L146.336 154.152C146.115 155.637 145.483 156.77 144.441 157.551C143.595 158.163 142.664 158.469 141.648 158.469C140.451 158.456 139.389 158 138.465 157.102C137.579 156.203 137.137 155.201 137.137 154.094C137.137 153 137.384 152.095 137.879 151.379C138.191 150.923 138.797 150.363 139.695 149.699L139.734 149.68C139.747 149.667 139.786 149.634 139.852 149.582C140.75 148.918 142.306 147.753 144.52 146.086L145.086 142.297C144.214 142.883 143.302 143.182 142.352 143.195C141.518 143.195 140.796 142.98 140.184 142.551C138.868 141.587 138.211 139.725 138.211 136.965ZM145.145 138.293C145.327 138.033 145.548 137.336 145.809 136.203C146.342 133.898 146.727 131.581 146.961 129.25C146.661 129.094 146.355 129.009 146.043 128.996C145.809 128.996 145.568 129.029 145.32 129.094C144.109 129.432 143.081 130.552 142.234 132.453C141.492 134.159 141.121 135.871 141.121 137.59C141.121 137.772 141.128 137.954 141.141 138.137C141.232 139.504 141.635 140.188 142.352 140.188C142.716 140.188 143.159 140.005 143.68 139.641C144.292 139.211 144.78 138.762 145.145 138.293ZM143.543 152.59C143.543 152.59 143.654 151.796 143.875 150.207C143.823 150.246 143.764 150.292 143.699 150.344C142.41 151.333 141.753 151.841 141.727 151.867C140.789 152.57 140.314 153.234 140.301 153.859C140.301 154.081 140.34 154.289 140.418 154.484C140.639 155.057 141.049 155.344 141.648 155.344C141.896 155.344 142.117 155.305 142.312 155.227C142.951 154.953 143.361 154.074 143.543 152.59ZM153.328 136.965C153.328 136.522 153.354 136.053 153.406 135.559C153.68 133.319 154.383 131.333 155.516 129.602C156.896 127.492 158.556 126.438 160.496 126.438C161.342 126.438 162.085 126.6 162.723 126.926C162.983 126.613 163.335 126.451 163.777 126.438C164.637 126.451 165.079 127.004 165.105 128.098C165.105 128.137 164.389 133.293 162.957 143.566C165.835 141.418 167.658 140.025 168.426 139.387C168.908 138.97 169.409 138.755 169.93 138.742C170.112 138.742 170.288 138.801 170.457 138.918C170.835 139.178 171.023 139.51 171.023 139.914C171.01 140.526 170.652 141.132 169.949 141.73C168.647 142.824 166.115 144.81 162.352 147.688L161.453 154.152C161.232 155.637 160.6 156.77 159.559 157.551C158.712 158.163 157.781 158.469 156.766 158.469C155.568 158.456 154.507 158 153.582 157.102C152.697 156.203 152.254 155.201 152.254 154.094C152.254 153 152.501 152.095 152.996 151.379C153.309 150.923 153.914 150.363 154.812 149.699L154.852 149.68C154.865 149.667 154.904 149.634 154.969 149.582C155.867 148.918 157.423 147.753 159.637 146.086L160.203 142.297C159.331 142.883 158.419 143.182 157.469 143.195C156.635 143.195 155.913 142.98 155.301 142.551C153.986 141.587 153.328 139.725 153.328 136.965ZM160.262 138.293C160.444 138.033 160.665 137.336 160.926 136.203C161.46 133.898 161.844 131.581 162.078 129.25C161.779 129.094 161.473 129.009 161.16 128.996C160.926 128.996 160.685 129.029 160.438 129.094C159.227 129.432 158.198 130.552 157.352 132.453C156.609 134.159 156.238 135.871 156.238 137.59C156.238 137.772 156.245 137.954 156.258 138.137C156.349 139.504 156.753 140.188 157.469 140.188C157.833 140.188 158.276 140.005 158.797 139.641C159.409 139.211 159.897 138.762 160.262 138.293ZM158.66 152.59C158.66 152.59 158.771 151.796 158.992 150.207C158.94 150.246 158.882 150.292 158.816 150.344C157.527 151.333 156.87 151.841 156.844 151.867C155.906 152.57 155.431 153.234 155.418 153.859C155.418 154.081 155.457 154.289 155.535 154.484C155.757 155.057 156.167 155.344 156.766 155.344C157.013 155.344 157.234 155.305 157.43 155.227C158.068 154.953 158.478 154.074 158.66 152.59ZM172.391 127.863C172.391 128.241 172.326 129.055 172.195 130.305C171.792 134.003 171.59 136.301 171.59 137.199C171.59 137.798 171.714 138.358 171.961 138.879C172.326 139.66 172.814 140.051 173.426 140.051C173.556 140.051 173.693 140.038 173.836 140.012C174.214 139.921 174.76 139.615 175.477 139.094C176.18 138.573 176.746 138.312 177.176 138.312C177.358 138.312 177.54 138.378 177.723 138.508C178.087 138.768 178.27 139.113 178.27 139.543C178.217 140.207 177.703 140.91 176.727 141.652C175.529 142.486 174.272 142.902 172.957 142.902C171.85 142.902 170.932 142.518 170.203 141.75C169.109 140.578 168.562 138.716 168.562 136.164C168.562 135.292 168.738 133.586 169.09 131.047C169.246 129.862 169.357 128.99 169.422 128.43C169.435 128.312 169.448 128.195 169.461 128.078C169.669 126.776 170.203 126.125 171.062 126.125C171.206 126.125 171.349 126.138 171.492 126.164C172.091 126.307 172.391 126.874 172.391 127.863ZM170.164 122.746C170.164 122.512 170.216 122.29 170.32 122.082C170.581 121.574 171.004 121.32 171.59 121.32C171.824 121.32 172.046 121.372 172.254 121.477C172.762 121.737 173.016 122.16 173.016 122.746C173.016 122.98 172.964 123.202 172.859 123.41C172.599 123.918 172.176 124.172 171.59 124.172C171.355 124.172 171.134 124.12 170.926 124.016C170.418 123.755 170.164 123.332 170.164 122.746ZM176.59 137.023C176.59 136.581 176.616 136.112 176.668 135.617C176.941 133.391 177.645 131.411 178.777 129.68C180.158 127.557 181.818 126.496 183.758 126.496C184.279 126.496 184.78 126.561 185.262 126.691C186.98 127.186 187.84 128.397 187.84 130.324C187.84 130.467 187.833 130.617 187.82 130.773C187.69 132.518 186.909 133.983 185.477 135.168C184.07 136.34 182.436 136.926 180.574 136.926C180.223 136.926 179.878 136.893 179.539 136.828C179.513 137.023 179.5 137.297 179.5 137.648C179.5 138.404 179.63 138.99 179.891 139.406C180.242 139.94 180.965 140.253 182.059 140.344C182.54 140.344 183.016 140.292 183.484 140.188C184.305 139.992 185.275 139.53 186.395 138.801C187.124 138.319 187.638 138.078 187.938 138.078C188.107 138.078 188.283 138.13 188.465 138.234C188.882 138.482 189.09 138.84 189.09 139.309C189.09 139.465 189.057 139.634 188.992 139.816C188.641 140.663 187.586 141.464 185.828 142.219C184.201 142.922 182.768 143.273 181.531 143.273C181.062 143.273 180.626 143.234 180.223 143.156C177.801 142.661 176.59 140.617 176.59 137.023ZM182.859 129.562C181.674 130.357 180.743 131.867 180.066 134.094C180.392 134.172 180.704 134.211 181.004 134.211C182.085 134.211 183.029 133.879 183.836 133.215C184.734 132.486 185.184 131.62 185.184 130.617C185.184 129.615 184.865 129.107 184.227 129.094C183.771 129.107 183.315 129.263 182.859 129.562Z" fill="#EFECEC"/>
<defs>
<linearGradient id="paint0_linear" x1="-288.461" y1="377.656" x2="-146.406" y2="516.676" gradientUnits="userSpaceOnUse">
<stop stop-color="white"/>
<stop offset="1" stop-color="#E61D7D"/>
</linearGradient>
<linearGradient id="paint1_linear" x1="-324.391" y1="414.675" x2="-162.931" y2="564.232" gradientUnits="userSpaceOnUse">
<stop stop-color="white"/>
<stop offset="1" stop-color="#E61D7D"/>
</linearGradient>
<linearGradient id="paint2_linear" x1="-375.574" y1="446.813" x2="-195.141" y2="613.681" gradientUnits="userSpaceOnUse">
<stop stop-color="white"/>
<stop offset="1" stop-color="#E61D7D"/>
</linearGradient>
<linearGradient id="paint3_linear" x1="-469.788" y1="507.805" x2="-256.111" y2="705.484" gradientUnits="userSpaceOnUse">
<stop stop-color="white"/>
<stop offset="1" stop-color="#E61D7D"/>
</linearGradient>
</defs>
</svg>
