<svg width="61" height="61" viewBox="0 0 61 61" fill="none" xmlns="http://www.w3.org/2000/svg">
<path d="M30.0221 0C15.5221 0 7.62207 9 7.62207 20.9V58H52.4221V20.9C52.4221 3.2 40.3221 3.6 40.3221 3.6C40.3221 3.6 39.4221 0 30.0221 0Z" fill="#231F20"/>
<path d="M13.3219 31.2999C13.3219 31.2999 9.92188 30.4 9.92188 25.5C9.92188 21.6 12.4219 20.9 12.4219 20.9C21.5219 20.9 38.3219 9.19995 38.3219 9.19995C38.3219 9.19995 42.0219 19.6 47.4219 21C47.4219 21 50.0219 21.5 50.0219 25.6C50.0219 30.5 46.5219 31.4 46.5219 31.4C46.5219 38.8 36.2219 47.7999 30.0219 47.7999C23.8219 47.7999 13.3219 38.7999 13.3219 31.2999Z" fill="#B47D56"/>
<path d="M30.022 36.1999C26.822 36.1999 25.222 33.8999 26.822 33.8999H33.222C34.822 33.8999 33.222 36.1999 30.022 36.1999Z" fill="#935E3E"/>
<path d="M34.8217 29.4C33.7217 29.4 33.8217 28 33.8217 28C35.5217 19.2 45.3217 23.9 45.3217 23.9C46.1217 25.4 43.5217 29.2 42.8217 29.4C39.6217 30.2 34.8217 29.4 34.8217 29.4Z" fill="#F5F5F5"/>
<path d="M39.2217 29.3C41.1547 29.3 42.7217 27.733 42.7217 25.8C42.7217 23.8671 41.1547 22.3 39.2217 22.3C37.2887 22.3 35.7217 23.8671 35.7217 25.8C35.7217 27.733 37.2887 29.3 39.2217 29.3Z" fill="#664E27"/>
<path d="M39.222 27.0001C39.8847 27.0001 40.422 26.4628 40.422 25.8001C40.422 25.1374 39.8847 24.6001 39.222 24.6001C38.5592 24.6001 38.022 25.1374 38.022 25.8001C38.022 26.4628 38.5592 27.0001 39.222 27.0001Z" fill="#2B2925"/>
<path d="M33.8223 27.9999C35.5223 17.4999 44.2223 24.4999 47.6223 22.9999C44.2223 26.2999 37.3223 19.1999 33.8223 27.9999Z" fill="#3B3226"/>
<path d="M25.122 29.4C26.222 29.4 26.122 28 26.122 28C24.422 19.2 14.622 23.9 14.622 23.9C13.822 25.4 16.422 29.2 17.122 29.4C20.322 30.2 25.122 29.4 25.122 29.4Z" fill="#F5F5F5"/>
<path d="M20.7217 29.3C22.6547 29.3 24.2217 27.733 24.2217 25.8C24.2217 23.8671 22.6547 22.3 20.7217 22.3C18.7887 22.3 17.2217 23.8671 17.2217 25.8C17.2217 27.733 18.7887 29.3 20.7217 29.3Z" fill="#664E27"/>
<path d="M26.1223 27.9999C24.4223 17.4999 15.7223 24.4999 12.3223 22.9999C15.7223 26.2999 22.7223 19.1999 26.1223 27.9999Z" fill="#3B3226"/>
<path d="M20.722 27.0001C21.3847 27.0001 21.922 26.4628 21.922 25.8001C21.922 25.1374 21.3847 24.6001 20.722 24.6001C20.0592 24.6001 19.522 25.1374 19.522 25.8001C19.522 26.4628 20.0592 27.0001 20.722 27.0001Z" fill="#2B2925"/>
<path d="M50.4221 60C50.4221 45 49.0221 44.8 30.0221 44.8C11.0221 44.8 9.62207 45 9.62207 60H50.4221Z" fill="#B386E2"/>
<path d="M2.22193 18.2C3.02193 18.9 16.1219 29.4 16.1219 29.4L12.9219 35.5C8.62193 33 6.72193 28.3 0.421932 21.2C-0.778068 19.8 0.821932 17.1 2.22193 18.2Z" fill="#A8734F"/>
<path d="M57.8219 18.1999C57.0219 18.8999 43.9219 29.3999 43.9219 29.3999L47.1219 35.4999C51.4219 32.8999 53.3219 28.2999 59.6219 21.0999C60.8219 19.7999 59.2219 17.0999 57.8219 18.1999" fill="#A8734F"/>
<path d="M40.822 42.4001C45.222 38.9001 48.222 36.2001 48.222 36.2001L44.722 28.3C41.722 31 36.122 34 29.922 37C23.822 34 18.122 31.1 15.122 28.3L11.622 36.2001C11.622 36.2001 14.622 38.9001 19.022 42.4001C8.922 47.8001 1.022 53.4 7.122 59C10.822 62.4 20.822 57 30.022 50.5C39.222 56.9 49.222 62.3 52.922 59C59.022 53.4 51.122 47.8001 40.822 42.4001Z" fill="#C99FF7"/>
<path d="M21.1217 56.0999L40.8217 42.3999L26.4217 55.9999L21.1217 56.0999Z" fill="#B386E2"/>
<path d="M19.2217 42.4L30.0217 37L18.2217 41.6L19.2217 42.4Z" fill="#B386E2"/>
</svg>
