<svg width="93" height="93" viewBox="0 0 93 93" fill="none" xmlns="http://www.w3.org/2000/svg">
<circle cx="46.5" cy="46.5" r="46.5" fill="#F71304"/>
<path d="M47.0221 11C32.5221 11 24.6221 20 24.6221 31.9V69H69.4221V31.9C69.4221 14.2 57.3221 14.6 57.3221 14.6C57.3221 14.6 56.4221 11 47.0221 11Z" fill="#231F20"/>
<path d="M30.3219 42.2999C30.3219 42.2999 26.9219 41.4 26.9219 36.5C26.9219 32.6 29.4219 31.9 29.4219 31.9C38.5219 31.9 55.3219 20.2 55.3219 20.2C55.3219 20.2 59.0219 30.6 64.4219 32C64.4219 32 67.0219 32.5 67.0219 36.6C67.0219 41.5 63.5219 42.4 63.5219 42.4C63.5219 49.8 53.2219 58.7999 47.0219 58.7999C40.8219 58.7999 30.3219 49.7999 30.3219 42.2999Z" fill="#B47D56"/>
<path d="M47.022 47.1999C43.822 47.1999 42.222 44.8999 43.822 44.8999H50.222C51.822 44.8999 50.222 47.1999 47.022 47.1999Z" fill="#935E3E"/>
<path d="M51.8217 40.4C50.7217 40.4 50.8217 39 50.8217 39C52.5217 30.2 62.3217 34.9 62.3217 34.9C63.1217 36.4 60.5217 40.2 59.8217 40.4C56.6217 41.2 51.8217 40.4 51.8217 40.4Z" fill="#F5F5F5"/>
<path d="M56.2217 40.3C58.1547 40.3 59.7217 38.733 59.7217 36.8C59.7217 34.8671 58.1547 33.3 56.2217 33.3C54.2887 33.3 52.7217 34.8671 52.7217 36.8C52.7217 38.733 54.2887 40.3 56.2217 40.3Z" fill="#664E27"/>
<path d="M56.222 38.0001C56.8847 38.0001 57.422 37.4628 57.422 36.8001C57.422 36.1374 56.8847 35.6001 56.222 35.6001C55.5592 35.6001 55.022 36.1374 55.022 36.8001C55.022 37.4628 55.5592 38.0001 56.222 38.0001Z" fill="#2B2925"/>
<path d="M50.8223 38.9999C52.5223 28.4999 61.2223 35.4999 64.6223 33.9999C61.2223 37.2999 54.3223 30.1999 50.8223 38.9999Z" fill="#3B3226"/>
<path d="M42.122 40.4C43.222 40.4 43.122 39 43.122 39C41.422 30.2 31.622 34.9 31.622 34.9C30.822 36.4 33.422 40.2 34.122 40.4C37.322 41.2 42.122 40.4 42.122 40.4Z" fill="#F5F5F5"/>
<path d="M37.7217 40.3C39.6547 40.3 41.2217 38.733 41.2217 36.8C41.2217 34.8671 39.6547 33.3 37.7217 33.3C35.7887 33.3 34.2217 34.8671 34.2217 36.8C34.2217 38.733 35.7887 40.3 37.7217 40.3Z" fill="#664E27"/>
<path d="M43.1223 38.9999C41.4223 28.4999 32.7223 35.4999 29.3223 33.9999C32.7223 37.2999 39.7223 30.1999 43.1223 38.9999Z" fill="#3B3226"/>
<path d="M37.722 38.0001C38.3847 38.0001 38.922 37.4628 38.922 36.8001C38.922 36.1374 38.3847 35.6001 37.722 35.6001C37.0592 35.6001 36.522 36.1374 36.522 36.8001C36.522 37.4628 37.0592 38.0001 37.722 38.0001Z" fill="#2B2925"/>
<path d="M67.4221 71C67.4221 56 66.0221 55.8 47.0221 55.8C28.0221 55.8 26.6221 56 26.6221 71H67.4221Z" fill="#B386E2"/>
<path d="M19.2219 29.2C20.0219 29.9 33.1219 40.4 33.1219 40.4L29.9219 46.5C25.6219 44 23.7219 39.3 17.4219 32.2C16.2219 30.8 17.8219 28.1 19.2219 29.2Z" fill="#A8734F"/>
<path d="M74.8219 29.1999C74.0219 29.8999 60.9219 40.3999 60.9219 40.3999L64.1219 46.4999C68.4219 43.8999 70.3219 39.2999 76.6219 32.0999C77.8219 30.7999 76.2219 28.0999 74.8219 29.1999Z" fill="#A8734F"/>
<path d="M57.822 53.4001C62.222 49.9001 65.222 47.2001 65.222 47.2001L61.722 39.3C58.722 42 53.122 45 46.922 48C40.822 45 35.122 42.1 32.122 39.3L28.622 47.2001C28.622 47.2001 31.622 49.9001 36.022 53.4001C25.922 58.8001 18.022 64.4 24.122 70C27.822 73.4001 37.822 68 47.022 61.5C56.222 67.9 66.222 73.3 69.922 70C76.022 64.4 68.122 58.8001 57.822 53.4001Z" fill="#C99FF7"/>
<path d="M38.1217 67.0999L57.8217 53.3999L43.4217 66.9999L38.1217 67.0999Z" fill="#B386E2"/>
<path d="M36.2217 53.4L47.0217 48L35.2217 52.6L36.2217 53.4Z" fill="#B386E2"/>
</svg>
